<?xml version="1.0" encoding="utf-8"?>
<!-- Generator: Adobe Illustrator 27.9.0, SVG Export Plug-In . SVG Version: 6.00 Build 0)  -->
<svg version="1.1" id="Capa_1" xmlns="http://www.w3.org/2000/svg" xmlns:xlink="http://www.w3.org/1999/xlink" x="0px" y="0px"
	 viewBox="0 0 600 600" style="enable-background:new 0 0 600 600;" xml:space="preserve">
<style type="text/css">
	.st0{fill:#EDC055;}
	.st1{fill:#EBE9DF;}
	.st2{fill:#E0DDC9;}
	.st3{fill:#F6E33C;}
	.st4{fill:#BABEE1;}
	.st5{fill:#A0A8D5;}
	.st6{fill:#68529D;}
	.st7{fill:#F9986E;}
	.st8{fill:#DEDEDE;}
	.st9{fill:#503985;}
	.st10{fill:#FC7955;}
	.st11{fill:#E27B47;}
	.st12{fill:#DB5442;}
</style>
<g>
	<path class="st0" d="M123.02,128.62c0-1.54-1.67-2.51-3.01-1.74l-111.2,64.2c-4.02,2.32-4.02,8.12,0,10.44l0,0
		c7.12,4.11,15.88,4.11,23,0l91.2-52.66V128.62z"/>
	<path class="st1" d="M140.52,143.16L26.83,210.79l-7.79-4.12l-2.73-1.45l-2.6-1.37c-0.25-0.13-0.5-0.29-0.72-0.44
		c-0.78-0.54-1.4-1.22-1.86-1.96c-0.55-0.88-0.86-1.88-0.97-2.89c-0.1-1.11,0.07-2.25,0.51-3.29c0.52-1.27,1.46-2.39,2.82-3.18
		l106.44-61.34c0.31,0.4,0.63,0.81,0.97,1.19c0.57,0.68,1.19,1.33,1.84,1.96c0.75,0.73,1.54,1.42,2.38,2.08
		c0.74,0.59,1.52,1.15,2.33,1.69c1.02,0.67,2.1,1.29,3.24,1.87c0.93,0.48,1.9,0.93,2.9,1.35
		C135.74,141.76,138.04,142.54,140.52,143.16z"/>
	<g>
		<g>
			<path class="st2" d="M122.75,133.9L10.17,198.56c-0.1-1.11,0.07-2.25,0.51-3.29l110.23-63.33
				C121.49,132.62,122.1,133.27,122.75,133.9z"/>
		</g>
		<g>
			<path class="st2" d="M127.46,137.66L13,203.41c-0.78-0.54-1.4-1.22-1.86-1.96l113.99-65.47
				C125.88,136.56,126.65,137.13,127.46,137.66z"/>
		</g>
		<g>
			<path class="st2" d="M133.6,140.88l-114.55,65.8l-2.73-1.45l114.38-65.69C131.63,140.01,132.59,140.46,133.6,140.88z"/>
		</g>
	</g>
	<path class="st3" d="M140.55,138.75L20.32,208.17v201.32c0,5.41,5.85,8.78,10.53,6.08l110.48-63.79c1.38-0.79,2.22-2.26,2.22-3.85
		V140.48C143.56,138.94,141.89,137.98,140.55,138.75z"/>
	<polygon class="st4" points="143.56,172.08 143.56,237.64 23.74,307.32 23.74,241.28 	"/>
	<path class="st0" d="M31.81,201.52v213.49c-7.11,4.1-15.88,4.1-23,0c-2.01-1.16-3.01-3.19-3.01-5.23c0,0,0.35-204.83,0.01-213.23
		c0.07,1.95,1.07,3.87,2.99,4.97c3.57,2.07,7.54,3.08,11.5,3.08C24.29,204.61,28.26,203.59,31.81,201.52z"/>
	<g>
		<path class="st5" d="M20.31,239.56c-3.96,0-7.93-1.02-11.5-3.08c-1.92-1.1-2.93-3.02-2.99-4.97c0.07,1.66,0.11,52.79,0.13,66.67
			c0.32,1.58,1.27,3.06,2.86,3.97c3.57,2.07,7.54,3.08,11.5,3.08c3.97,0,7.95-1.02,11.5-3.08v-65.67
			C28.26,238.54,24.29,239.56,20.31,239.56z"/>
	</g>
	<polygon class="st6" points="130.79,187.96 51.95,233.7 51.95,239.36 130.79,193.63 	"/>
	<polygon class="st6" points="130.79,200.53 51.95,246.27 51.95,251.93 130.79,206.19 	"/>
	<polygon class="st6" points="130.79,213.66 51.95,259.4 51.95,265.06 130.79,219.33 	"/>
	<path class="st7" d="M119.63,215.93v-55.74c0-2.93-1.8-5.56-4.52-6.63l-5.54-2.17l-12.9,7.69l5.54,2.17
		c2.73,1.07,4.52,3.7,4.52,6.62v55.74c0-0.82,6.53-23.09,6.53-23.09L119.63,215.93z"/>
	<path class="st4" d="M185.93,219.03l-23.91,13.81l-46.61,26.91l7.74,138.13l-45.92,26.27c-1.86,1.06-4.18-0.29-4.18-2.43V264.52
		c0-2.5,1.33-4.8,3.49-6.04l37.6-21.71l47.89-27.67l3.53-2.04c3.16-1.82,6.68-2.73,10.19-2.73c3.53,0,7.04,0.91,10.19,2.73
		c2.01,1.16,3.15,3.08,3.4,5.11C189.64,214.78,188.52,217.54,185.93,219.03z"/>
	<polygon class="st6" points="170.17,222.27 170.17,228.14 162.02,232.84 115.4,259.75 116.37,277.06 73.04,302.08 73.04,278.36 	
		"/>
	<polygon class="st6" points="122.45,385.58 73.04,414.2 73.04,410.07 122.22,381.59 	"/>
	<polygon class="st6" points="121.52,368.84 73.04,396.91 73.04,392.78 121.28,364.84 	"/>
	<polygon class="st6" points="122.01,377.7 73.04,406.06 73.04,401.93 121.78,373.7 	"/>
	<path class="st5" d="M185.93,219.03l-23.91,13.81v-23.73l3.53-2.04c3.16-1.82,6.68-2.73,10.19-2.73c3.53,0,7.04,0.91,10.19,2.73
		c2.01,1.16,3.15,3.08,3.4,5.11C189.64,214.78,188.52,217.54,185.93,219.03z"/>
	<path class="st1" d="M186.14,215.64c-0.24,1.55-1.32,3.16-3.57,4.59l0.03,0.01l-2.86,2.04l-67.38,47.85l-11.97,163.22
		c-1.7-1.61-3.55-3.02-5.5-4.25c-0.85-0.55-1.72-1.05-2.61-1.52c-0.9-0.48-1.82-0.93-2.74-1.33c-0.86-0.39-1.73-0.75-2.61-1.07
		c-1.08-0.42-2.2-0.8-3.31-1.12c-0.86-0.26-1.74-0.51-2.61-0.72c-0.73-0.18-1.46-0.35-2.2-0.51l0.03-161.07l87.4-50.66
		c1.59-0.91,3.28-1.61,5-2.06c1.7-0.44,3.44-0.67,5.17-0.67h0.01c0.35,0,0.71,0.01,1.06,0.03c0.72,0.04,1.44,0.12,2.14,0.24
		c0.42,0.07,0.84,0.13,1.24,0.24c0.2,0.04,0.39,0.08,0.59,0.13c0.85,0.34,1.65,0.81,2.33,1.37c0.71,0.59,1.31,1.28,1.73,2.03
		C186.06,213.38,186.32,214.51,186.14,215.64z"/>
	<path class="st2" d="M180.86,208.86l-97.25,54.85v160.36c-0.86-0.26-1.74-0.51-2.61-0.72V262.19l95.41-53.83h0.01
		c0.35,0,0.71,0.01,1.06,0.03c0.72,0.04,1.44,0.12,2.14,0.24C180.04,208.69,180.45,208.76,180.86,208.86z"/>
	<path class="st2" d="M185.5,212.39l-95.97,54.15v159.72c-0.86-0.39-1.73-0.75-2.61-1.07V265.01l96.86-54.65
		C184.48,210.95,185.08,211.65,185.5,212.39z"/>
	<path class="st2" d="M182.57,220.23l0.03,0.01l-2.86,2.04l-84.85,47.85v158.97c-0.85-0.55-1.72-1.05-2.61-1.52V268.61l93.87-52.96
		C185.9,217.2,184.82,218.81,182.57,220.23z"/>
	<path class="st8" d="M102.23,273.73l-1.84,159.62c-1.7-1.61-3.55-3.02-5.5-4.25c-0.85-0.55-1.72-1.05-2.61-1.52
		c-0.9-0.48-1.82-0.93-2.74-1.33c-0.86-0.39-1.73-0.75-2.61-1.07c-1.08-0.42-2.2-0.8-3.31-1.12c-0.86-0.26-1.74-0.51-2.61-0.72
		c-0.73-0.18-1.46-0.35-2.2-0.51l0.03-161.07C86.62,263.41,94.42,267.4,102.23,273.73z"/>
	<path class="st4" d="M189.38,213.06v166.03c0,2.33-1.15,4.65-3.45,5.99l-6.6,3.82l-81.56,47.08c-1.87,1.07-4.2-0.27-4.2-2.43
		V275.91c0-2.21,1.18-4.25,3.08-5.34l82.67-47.72l6.6-3.82C188.22,217.7,189.37,215.38,189.38,213.06z"/>
	<polygon class="st6" points="189.38,236.12 189.38,259.85 93.58,315.16 93.58,291.44 	"/>
	<polygon class="st6" points="189.38,367.73 189.38,371.84 93.58,427.3 93.58,423.19 	"/>
	<polygon class="st6" points="189.38,350.44 189.38,354.56 93.58,410.02 93.58,405.9 	"/>
	<polygon class="st6" points="189.38,359.59 189.38,363.7 93.58,419.16 93.58,415.05 	"/>
	<path class="st5" d="M189.38,213.06v166.03c0,2.33-1.15,4.65-3.45,5.99l-6.6,3.82V222.84l6.6-3.82
		C188.22,217.7,189.37,215.38,189.38,213.06z"/>
	<path class="st9" d="M185.93,238.06l-6.6,3.82v23.96l6.6-3.82c2.3-1.33,3.45-3.66,3.45-5.99v-23.96
		C189.38,234.4,188.23,236.72,185.93,238.06z"/>
	<path class="st9" d="M185.93,369.88l-6.6,3.82v4.29l6.6-3.82c2.3-1.33,3.45-3.66,3.45-5.99v-4.3
		C189.38,366.23,188.23,368.55,185.93,369.88z"/>
	<path class="st9" d="M185.93,361.55l-6.6,3.82v4.29l6.6-3.82c2.3-1.33,3.45-3.66,3.45-5.99v-4.29
		C189.38,357.89,188.23,360.22,185.93,361.55z"/>
	<path class="st9" d="M185.93,352.24l-6.6,3.82v4.29l6.6-3.82c2.3-1.33,3.45-3.66,3.45-5.99v-4.29
		C189.38,348.58,188.23,350.91,185.93,352.24z"/>
	<path class="st10" d="M235.41,148.59c0-1.54-1.67-2.51-3.01-1.74l-111.2,64.2c-4.02,2.32-4.02,8.12,0,10.44v0
		c7.12,4.11,15.88,4.11,23,0l91.2-52.66V148.59z"/>
	<path class="st1" d="M252.92,163.13l-113.69,67.63l-7.79-4.12l-2.73-1.45l-2.6-1.37c-0.25-0.13-0.5-0.29-0.72-0.44
		c-0.78-0.54-1.4-1.22-1.86-1.96c-0.55-0.88-0.86-1.88-0.97-2.89c-0.1-1.11,0.07-2.25,0.51-3.29c0.52-1.27,1.46-2.39,2.82-3.18
		l106.44-61.34c0.31,0.4,0.63,0.81,0.97,1.19c0.57,0.68,1.19,1.33,1.84,1.96c0.74,0.73,1.54,1.42,2.38,2.08
		c0.75,0.59,1.52,1.15,2.33,1.69c1.02,0.67,2.1,1.29,3.24,1.87c0.93,0.48,1.89,0.93,2.9,1.35
		C248.14,161.74,250.44,162.51,252.92,163.13z"/>
	<g>
		<path class="st2" d="M235.15,153.87l-112.58,64.66c-0.1-1.11,0.07-2.25,0.51-3.29l110.23-63.33
			C233.88,152.59,234.5,153.24,235.15,153.87z"/>
	</g>
	<g>
		<path class="st2" d="M239.85,157.63l-114.46,65.74c-0.78-0.54-1.4-1.22-1.86-1.96l113.99-65.47
			C238.27,156.54,239.04,157.1,239.85,157.63z"/>
	</g>
	<g>
		<path class="st2" d="M246,160.85l-114.55,65.8l-2.73-1.45L243.1,159.5C244.02,159.99,244.99,160.43,246,160.85z"/>
	</g>
	<path class="st7" d="M252.95,158.72l-120.24,69.42v201.32c0,5.41,5.85,8.78,10.53,6.08l110.48-63.79c1.38-0.79,2.22-2.26,2.22-3.85
		V160.45C255.95,158.91,254.28,157.95,252.95,158.72z"/>
	<polygon class="st3" points="255.95,329.27 255.95,353.01 136.13,422.69 136.13,398.46 	"/>
	<polygon class="st3" points="255.95,174.31 255.95,182.37 136.13,252.05 136.13,243.5 	"/>
	<path class="st10" d="M144.21,221.5v213.49c-7.11,4.1-15.88,4.1-23,0c-2.01-1.16-3.01-3.19-3.01-5.23c0,0,0.35-204.83,0.01-213.23
		c0.07,1.95,1.07,3.87,2.99,4.97c3.57,2.06,7.54,3.08,11.5,3.08C136.68,224.58,140.66,223.56,144.21,221.5z"/>
	<path class="st0" d="M132.71,396.74c-3.96,0-7.93-1.02-11.5-3.08c-1.92-1.1-2.93-3.02-2.99-4.97c0.07,1.66,0.11,10.97,0.13,24.85
		c0.32,1.58,1.27,3.06,2.86,3.97c3.57,2.06,7.54,3.08,11.5,3.08c3.97,0,7.95-1.02,11.5-3.08v-23.85
		C140.66,395.73,136.68,396.74,132.71,396.74z"/>
	<path class="st0" d="M132.71,241.73c-3.96,0-7.93-1.02-11.5-3.08c-1.92-1.1-2.93-3.02-2.99-4.97c0.04,0.92,0.07,4.2,0.09,9.31
		c0.28,1.65,1.25,3.21,2.9,4.15c3.57,2.07,7.54,3.08,11.5,3.08c3.97,0,7.95-1.02,11.5-3.08v-8.49
		C140.66,240.71,136.68,241.73,132.71,241.73z"/>
	<path class="st6" d="M236.82,208.11v-37.45c0-2.93-1.8-5.56-4.52-6.62l-5.54-2.17l-12.9,7.69l5.54,2.17
		c2.73,1.07,4.52,3.7,4.52,6.63v38.76c0-0.82,7.06-15.34,7.06-15.34L236.82,208.11z"/>
	<path class="st9" d="M301.43,98.35c0-1.81-1.96-2.94-3.53-2.04l-130.49,75.35c-4.72,2.72-4.72,9.53,0,12.25l0,0
		c8.35,4.82,18.64,4.82,26.99,0l107.03-61.8V98.35z"/>
	<path class="st1" d="M321.98,115.42l-133.42,79.36l-9.14-4.83l-3.21-1.7l-3.05-1.61c-0.29-0.15-0.58-0.34-0.84-0.52
		c-0.92-0.63-1.64-1.43-2.18-2.3c-0.64-1.03-1.01-2.21-1.13-3.39c-0.12-1.3,0.08-2.64,0.6-3.86c0.61-1.49,1.72-2.81,3.31-3.73
		l124.91-71.99c0.37,0.48,0.74,0.95,1.13,1.4c0.67,0.8,1.4,1.56,2.16,2.3c0.87,0.86,1.81,1.67,2.79,2.44
		c0.87,0.69,1.78,1.35,2.73,1.98c1.2,0.78,2.47,1.52,3.8,2.19c1.09,0.57,2.22,1.09,3.4,1.58
		C316.37,113.78,319.07,114.68,321.98,115.42z"/>
	<g>
		<path class="st2" d="M301.12,104.55L169,180.43c-0.12-1.3,0.08-2.64,0.6-3.86l129.36-74.32
			C299.64,103.04,300.36,103.81,301.12,104.55z"/>
	</g>
	<g>
		<path class="st2" d="M306.64,108.96l-134.33,77.15c-0.92-0.63-1.64-1.43-2.18-2.3l133.77-76.83
			C304.79,107.68,305.69,108.34,306.64,108.96z"/>
	</g>
	<g>
		<path class="st2" d="M313.85,112.74l-134.43,77.22l-3.21-1.7l134.24-77.09C311.54,111.72,312.67,112.25,313.85,112.74z"/>
	</g>
	<path class="st6" d="M322.01,110.24l-141.1,81.47v236.25c0,6.34,6.87,10.31,12.36,7.14l129.66-74.87c1.62-0.93,2.61-2.66,2.61-4.52
		V112.27C325.54,110.46,323.58,109.33,322.01,110.24z"/>
	<path class="st9" d="M194.4,183.91v250.54c-8.34,4.82-18.63,4.82-26.99,0c-2.36-1.36-3.53-3.74-3.53-6.13
		c0,0,0.41-240.37,0.02-250.23c0.08,2.28,1.26,4.54,3.51,5.83c4.19,2.42,8.85,3.62,13.5,3.62
		C185.57,187.53,190.23,186.33,194.4,183.91z"/>
	<path class="st11" d="M215.18,402.24c-1.7,0-3.39-0.45-4.93-1.35c-3.03-1.77-4.84-4.93-4.84-8.43V208.14
		c0-10,5.42-19.26,14.14-24.16l79.92-44.89c3.06-1.72,6.69-1.69,9.72,0.09c3.03,1.77,4.84,4.93,4.84,8.43v184.31
		c0,10-5.42,19.26-14.14,24.16l-0.96-1.71l0.96,1.71l-79.92,44.89C218.46,401.82,216.82,402.24,215.18,402.24z M304.25,141.76
		c-0.98,0-1.97,0.25-2.87,0.76l-79.92,44.89c-7.49,4.2-12.14,12.15-12.14,20.74v184.31c0,2.1,1.08,3.99,2.9,5.05
		c1.81,1.06,3.99,1.08,5.82,0.05l79.92-44.89c7.49-4.2,12.14-12.15,12.14-20.74V147.62c0-2.1-1.08-3.99-2.9-5.05
		C306.29,142.03,305.27,141.76,304.25,141.76z"/>
	<polygon class="st11" points="297.71,187.44 227.81,226.64 227.81,217.63 297.71,178.43 	"/>
	<polygon class="st11" points="297.71,207 227.81,246.2 227.81,237.19 297.71,197.98 	"/>
	<path class="st12" d="M339.23,98.35c0-1.81-1.96-2.94-3.53-2.04l-130.49,75.35c-4.72,2.72-4.72,9.53,0,12.25l0,0
		c8.35,4.82,18.64,4.82,26.99,0l107.03-61.8V98.35z"/>
	<path class="st1" d="M359.78,115.42l-133.42,79.36l-9.14-4.83l-3.21-1.7l-3.05-1.61c-0.29-0.15-0.58-0.34-0.84-0.52
		c-0.92-0.63-1.64-1.43-2.18-2.3c-0.64-1.03-1.01-2.21-1.13-3.39c-0.12-1.3,0.08-2.64,0.6-3.86c0.61-1.49,1.72-2.81,3.31-3.73
		l124.91-71.99c0.37,0.48,0.74,0.95,1.13,1.4c0.67,0.8,1.4,1.56,2.16,2.3c0.87,0.86,1.81,1.67,2.79,2.44
		c0.87,0.69,1.78,1.35,2.73,1.98c1.2,0.78,2.47,1.52,3.8,2.19c1.09,0.57,2.22,1.09,3.4,1.58
		C354.16,113.78,356.86,114.68,359.78,115.42z"/>
	<g>
		<g>
			<path class="st2" d="M338.92,104.55L206.8,180.43c-0.12-1.3,0.08-2.64,0.6-3.86l129.36-74.32
				C337.43,103.04,338.15,103.81,338.92,104.55z"/>
		</g>
		<g>
			<path class="st2" d="M344.44,108.96l-134.33,77.15c-0.92-0.63-1.64-1.43-2.18-2.3l133.77-76.83
				C342.59,107.68,343.49,108.34,344.44,108.96z"/>
		</g>
		<g>
			<path class="st2" d="M351.65,112.74l-134.43,77.22l-3.21-1.7l134.23-77.09C349.33,111.72,350.47,112.25,351.65,112.74z"/>
		</g>
	</g>
	<path class="st10" d="M359.81,110.24l-141.1,81.47v236.25c0,6.34,6.87,10.31,12.36,7.14l129.66-74.87
		c1.61-0.93,2.61-2.66,2.61-4.52V112.27C363.34,110.46,361.38,109.33,359.81,110.24z"/>
	<polygon class="st6" points="363.34,310.39 363.34,338.25 222.72,420.02 222.72,391.59 	"/>
	<polygon class="st6" points="363.34,128.53 363.34,137.99 222.72,219.77 222.72,209.74 	"/>
	<path class="st12" d="M232.2,183.91v250.54c-8.34,4.82-18.63,4.82-26.99,0c-2.36-1.36-3.53-3.74-3.53-6.13
		c0,0,0.41-240.37,0.02-250.23c0.08,2.28,1.26,4.54,3.51,5.83c4.19,2.42,8.85,3.62,13.5,3.62
		C223.37,187.53,228.03,186.33,232.2,183.91z"/>
	<g>
		<path class="st9" d="M218.7,389.57c-4.65,0-9.31-1.2-13.5-3.62c-2.25-1.29-3.44-3.54-3.51-5.83c0.08,1.95,0.13,12.88,0.15,29.16
			c0.38,1.86,1.5,3.59,3.36,4.65c4.19,2.42,8.85,3.62,13.5,3.62c4.66,0,9.32-1.2,13.5-3.62v-27.99
			C228.03,388.38,223.37,389.57,218.7,389.57z"/>
	</g>
	<g>
		<path class="st9" d="M218.7,207.66c-4.65,0-9.31-1.2-13.5-3.62c-2.25-1.29-3.44-3.54-3.51-5.83c0.04,1.08,0.08,4.93,0.1,10.93
			c0.33,1.94,1.47,3.76,3.41,4.87c4.19,2.42,8.85,3.62,13.5,3.62c4.66,0,9.32-1.2,13.5-3.62v-9.97
			C228.03,206.46,223.37,207.66,218.7,207.66z"/>
	</g>
	<polygon class="st6" points="363.34,294.06 363.34,303.52 222.72,385.29 222.72,375.26 	"/>
	<g>
		<path class="st9" d="M218.7,373.19c-4.65,0-9.31-1.2-13.5-3.62c-2.25-1.29-3.44-3.54-3.51-5.83c0.04,1.08,0.08,4.93,0.1,10.93
			c0.33,1.94,1.47,3.76,3.41,4.87c4.19,2.42,8.85,3.62,13.5,3.62c4.66,0,9.32-1.2,13.5-3.62v-9.97
			C228.03,371.99,223.37,373.19,218.7,373.19z"/>
	</g>
	<polygon class="st3" points="328.97,297.86 273.43,330.53 273.43,204.03 328.97,171.36 	"/>
	<polygon class="st7" points="245.03,162.52 265.85,150.55 265.85,131.15 245.03,143.35 	"/>
	<polygon class="st4" points="317.99,128.53 329.89,121.7 329.89,109.74 317.99,116.57 	"/>
	<path class="st6" d="M388.82,170.61L358.7,188l-58.71,33.89l9.74,173.98l-57.84,33.08c-2.34,1.33-5.27-0.36-5.27-3.06V227.9
		c0-3.14,1.68-6.04,4.39-7.6l47.35-27.34l60.32-34.84l4.44-2.57c3.98-2.29,8.41-3.44,12.84-3.44c4.44,0,8.87,1.15,12.84,3.44
		c2.54,1.46,3.97,3.88,4.28,6.44C393.49,165.26,392.08,168.73,388.82,170.61z"/>
	<path class="st9" d="M388.82,170.61L358.7,188v-29.89l4.44-2.57c3.98-2.29,8.41-3.44,12.84-3.44c4.44,0,8.87,1.15,12.84,3.44
		c2.54,1.46,3.97,3.88,4.28,6.44C393.49,165.26,392.08,168.73,388.82,170.61z"/>
	<path class="st1" d="M389.08,166.34c-0.3,1.96-1.66,3.98-4.49,5.78l0.03,0.02l-3.6,2.57l-84.86,60.27l-15.08,205.58
		c-2.14-2.02-4.48-3.8-6.93-5.35c-1.07-0.69-2.17-1.32-3.29-1.91c-1.14-0.61-2.29-1.17-3.46-1.68c-1.09-0.49-2.17-0.94-3.29-1.35
		c-1.37-0.53-2.77-1-4.16-1.42c-1.09-0.33-2.19-0.64-3.29-0.91c-0.92-0.23-1.84-0.44-2.77-0.64l0.03-202.88L364,160.61
		c2.01-1.15,4.13-2.02,6.3-2.6c2.14-0.56,4.33-0.84,6.52-0.84h0.02c0.44,0,0.89,0.02,1.33,0.03c0.91,0.05,1.81,0.15,2.7,0.3
		c0.53,0.08,1.05,0.16,1.56,0.3c0.25,0.05,0.49,0.1,0.74,0.16c1.07,0.43,2.07,1.02,2.93,1.73c0.89,0.74,1.65,1.61,2.17,2.55
		C388.98,163.49,389.31,164.91,389.08,166.34z"/>
	<g>
		<path class="st2" d="M382.43,157.8l-122.49,69.08v201.97c-1.09-0.33-2.19-0.64-3.29-0.91V224.97l120.17-67.8h0.02
			c0.44,0,0.89,0.02,1.33,0.03c0.91,0.05,1.81,0.15,2.7,0.3C381.39,157.59,381.92,157.67,382.43,157.8z"/>
	</g>
	<g>
		<path class="st2" d="M388.27,162.24L267.4,230.45v201.17c-1.09-0.49-2.17-0.94-3.29-1.35V228.53l122-68.83
			C386.99,160.43,387.75,161.31,388.27,162.24z"/>
	</g>
	<g>
		<path class="st2" d="M384.59,172.12l0.03,0.02l-3.6,2.57l-106.87,60.27v200.23c-1.07-0.69-2.17-1.32-3.29-1.91V233.05
			l118.23-66.71C388.78,168.3,387.42,170.32,384.59,172.12z"/>
	</g>
	<path class="st8" d="M283.4,239.5l-2.32,201.05c-2.14-2.02-4.48-3.8-6.93-5.35c-1.07-0.69-2.17-1.32-3.29-1.91
		c-1.14-0.61-2.29-1.17-3.46-1.68c-1.09-0.49-2.17-0.94-3.29-1.35c-1.37-0.53-2.77-1-4.16-1.42c-1.09-0.33-2.19-0.64-3.29-0.91
		c-0.92-0.23-1.84-0.44-2.77-0.64l0.03-202.88C263.74,226.5,273.56,231.53,283.4,239.5z"/>
	<path class="st6" d="M393.16,163.08V372.2c0,2.93-1.45,5.86-4.35,7.54l-8.31,4.81l-102.72,59.3c-2.35,1.35-5.28-0.35-5.28-3.06
		V242.25c0-2.78,1.48-5.35,3.88-6.73l104.12-60.11l8.31-4.81C391.7,168.93,393.15,166.01,393.16,163.08z"/>
	<path class="st9" d="M393.16,163.08V372.2c0,2.93-1.45,5.86-4.35,7.54l-8.31,4.81V175.41l8.31-4.81
		C391.7,168.93,393.15,166.01,393.16,163.08z"/>
	<polygon class="st4" points="279.68,219.74 298.53,209.1 298.53,179.4 279.68,190.51 	"/>
	<polygon class="st3" points="359.72,182.91 371.96,176 371.96,163.71 359.72,170.61 	"/>
	<polygon class="st7" points="332.83,185.77 345.75,178.49 345.75,146.52 332.83,154.36 	"/>
	<path class="st3" d="M406.37,236.32l-23.91,13.81l-46.61,26.91l7.74,138.13l-45.92,26.27c-1.86,1.06-4.18-0.29-4.18-2.43V281.81
		c0-2.5,1.33-4.8,3.49-6.04l37.6-21.71l47.89-27.67l3.53-2.04c3.16-1.82,6.68-2.73,10.19-2.73c3.53,0,7.04,0.91,10.19,2.73
		c2.01,1.16,3.15,3.08,3.4,5.11C410.08,232.08,408.96,234.83,406.37,236.32z"/>
	<path class="st0" d="M406.37,236.32l-23.91,13.81V226.4l3.53-2.04c3.16-1.82,6.68-2.73,10.19-2.73c3.53,0,7.04,0.91,10.19,2.73
		c2.01,1.16,3.15,3.08,3.4,5.11C410.08,232.08,408.96,234.83,406.37,236.32z"/>
	<path class="st1" d="M406.58,232.94c-0.24,1.55-1.32,3.16-3.57,4.59l0.03,0.01l-2.86,2.04l-67.38,47.85l-11.97,163.22
		c-1.7-1.61-3.55-3.02-5.5-4.25c-0.85-0.55-1.72-1.05-2.61-1.52c-0.9-0.48-1.82-0.93-2.74-1.33c-0.86-0.39-1.73-0.75-2.61-1.07
		c-1.08-0.42-2.2-0.8-3.31-1.12c-0.86-0.26-1.74-0.51-2.61-0.72c-0.73-0.18-1.46-0.35-2.2-0.51l0.03-161.07l87.4-50.66
		c1.59-0.91,3.28-1.61,5.01-2.06c1.7-0.44,3.44-0.67,5.17-0.67h0.01c0.35,0,0.71,0.01,1.06,0.03c0.72,0.04,1.44,0.12,2.14,0.24
		c0.42,0.07,0.84,0.13,1.24,0.24c0.2,0.04,0.39,0.08,0.59,0.13c0.85,0.34,1.65,0.81,2.33,1.37c0.71,0.59,1.31,1.28,1.72,2.03
		C406.5,230.68,406.76,231.8,406.58,232.94z"/>
	<path class="st2" d="M401.3,226.16L304.05,281v160.36c-0.86-0.26-1.74-0.51-2.61-0.72V279.49l95.41-53.83h0.01
		c0.35,0,0.71,0.01,1.06,0.03c0.72,0.04,1.44,0.12,2.14,0.24C400.48,225.99,400.9,226.05,401.3,226.16z"/>
	<path class="st2" d="M405.94,229.68l-95.97,54.15v159.72c-0.86-0.39-1.73-0.75-2.61-1.07V282.31l96.86-54.65
		C404.92,228.25,405.52,228.94,405.94,229.68z"/>
	<path class="st2" d="M403.01,237.53l0.03,0.01l-2.86,2.04l-84.85,47.85V446.4c-0.85-0.55-1.72-1.05-2.61-1.52V285.9l93.87-52.96
		C406.35,234.49,405.26,236.1,403.01,237.53z"/>
	<path class="st8" d="M322.67,291.03l-1.84,159.62c-1.7-1.61-3.55-3.02-5.5-4.25c-0.85-0.55-1.72-1.05-2.61-1.52
		c-0.9-0.48-1.82-0.93-2.74-1.33c-0.86-0.39-1.73-0.75-2.61-1.07c-1.08-0.42-2.2-0.8-3.31-1.12c-0.86-0.26-1.74-0.51-2.61-0.72
		c-0.73-0.18-1.46-0.35-2.2-0.51l0.03-161.07C307.06,280.7,314.86,284.7,322.67,291.03z"/>
	<path class="st3" d="M409.82,230.35v166.03c0,2.33-1.15,4.65-3.45,5.99l-6.6,3.82l-81.56,47.08c-1.87,1.07-4.19-0.27-4.19-2.43
		V293.21c0-2.21,1.18-4.25,3.08-5.34l82.67-47.72l6.6-3.82C408.66,234.99,409.81,232.68,409.82,230.35z"/>
	<path class="st0" d="M409.82,230.35v166.03c0,2.33-1.15,4.65-3.45,5.99l-6.6,3.82V240.14l6.6-3.82
		C408.66,234.99,409.81,232.68,409.82,230.35z"/>
	<path class="st5" d="M458.16,166.65c0-1.54-1.67-2.51-3.01-1.74l-111.2,64.2c-4.02,2.32-4.02,8.12,0,10.44v0
		c7.12,4.11,15.88,4.11,23,0l91.2-52.66V166.65z"/>
	<path class="st1" d="M475.67,181.19l-113.69,67.63l-7.79-4.12l-2.73-1.45l-2.6-1.37c-0.25-0.13-0.5-0.29-0.72-0.44
		c-0.78-0.54-1.4-1.22-1.86-1.96c-0.55-0.88-0.86-1.88-0.97-2.89c-0.1-1.11,0.07-2.25,0.51-3.29c0.52-1.27,1.46-2.39,2.82-3.18
		l106.44-61.34c0.31,0.4,0.63,0.81,0.97,1.19c0.57,0.68,1.19,1.33,1.84,1.96c0.74,0.73,1.54,1.42,2.38,2.08
		c0.75,0.59,1.52,1.15,2.33,1.69c1.02,0.67,2.1,1.29,3.24,1.87c0.93,0.48,1.89,0.93,2.9,1.35
		C470.88,179.8,473.18,180.57,475.67,181.19z"/>
	<g>
		<path class="st2" d="M457.89,171.93l-112.58,64.66c-0.1-1.11,0.07-2.25,0.51-3.29l110.23-63.33
			C456.63,170.65,457.24,171.3,457.89,171.93z"/>
	</g>
	<g>
		<path class="st2" d="M462.6,175.69l-114.46,65.74c-0.78-0.54-1.4-1.22-1.86-1.96l113.99-65.47
			C461.02,174.6,461.79,175.16,462.6,175.69z"/>
	</g>
	<g>
		<path class="st2" d="M468.74,178.91l-114.55,65.8l-2.73-1.45l114.38-65.69C466.77,178.05,467.73,178.49,468.74,178.91z"/>
	</g>
	<path class="st4" d="M475.69,176.78L355.46,246.2v201.32c0,5.41,5.85,8.78,10.53,6.08l110.48-63.79c1.38-0.79,2.22-2.26,2.22-3.85
		V178.51C478.7,176.97,477.03,176.01,475.69,176.78z"/>
	<path class="st5" d="M366.95,239.56v213.49c-7.11,4.1-15.88,4.1-23,0c-2.01-1.16-3.01-3.19-3.01-5.23c0,0,0.35-204.83,0.01-213.23
		c0.07,1.95,1.07,3.87,2.99,4.97c3.57,2.06,7.54,3.08,11.5,3.08C359.43,242.64,363.4,241.62,366.95,239.56z"/>
	<path class="st3" d="M374.39,436.85V247.68l96.31-54.67v187.44L374.39,436.85z M378.31,249.96v180.04l88.47-51.8V199.74
		L378.31,249.96z"/>
	<polygon class="st3" points="458.16,264.98 389.15,302.88 389.15,278.05 458.16,240.15 	"/>
	<path class="st7" d="M524,198.44l-27.96,20.69l-54.51,40.3l29.33,171.76l-53.73,39.4c-2.17,1.59-5.27,0.24-5.58-2.45l-22.36-196.72
		c-0.35-3.12,0.99-6.19,3.51-8.05l43.96-32.51l56-41.43l4.13-3.05c3.7-2.72,7.97-4.37,12.37-4.87c4.42-0.5,8.95,0.14,13.15,1.97
		c2.68,1.17,4.38,3.41,4.98,5.91C528.04,192.6,527.02,196.21,524,198.44z"/>
	<polygon class="st3" points="504.73,204.74 505.57,212.08 496.03,219.13 441.53,259.44 445.2,280.97 394.53,318.43 391.15,288.75 	
		"/>
	<polygon class="st3" points="468.24,415.91 410.48,458.75 409.89,453.58 467.4,410.95 	"/>
	<path class="st10" d="M524,198.44l-27.96,20.69l-3.38-29.7l4.13-3.05c3.7-2.72,7.97-4.37,12.37-4.87c4.42-0.5,8.95,0.14,13.15,1.97
		c2.68,1.17,4.38,3.41,4.98,5.91C528.04,192.6,527.02,196.21,524,198.44z"/>
	<path class="st1" d="M523.78,194.18c-0.07,1.98-1.2,4.15-3.81,6.25l0.03,0.01l-3.29,2.96l-77.51,69.47l8.24,205.96
		c-2.35-1.77-4.88-3.27-7.49-4.53c-1.14-0.57-2.31-1.06-3.49-1.53c-1.2-0.48-2.41-0.9-3.62-1.28c-1.13-0.37-2.26-0.69-3.42-0.97
		c-1.42-0.37-2.86-0.69-4.3-0.94c-1.12-0.2-2.25-0.39-3.37-0.53c-0.94-0.12-1.88-0.23-2.82-0.33l-22.88-201.58l102.17-75.84
		c1.86-1.37,3.88-2.48,5.97-3.3c2.06-0.8,4.21-1.32,6.38-1.57l0.02,0c0.44-0.05,0.89-0.08,1.33-0.12c0.9-0.05,1.82-0.06,2.72-0.01
		c0.53,0.02,1.07,0.04,1.59,0.12c0.25,0.02,0.5,0.04,0.75,0.08c1.11,0.3,2.18,0.78,3.11,1.39c0.97,0.64,1.82,1.42,2.45,2.29
		C523.36,191.36,523.84,192.73,523.78,194.18z"/>
	<path class="st2" d="M516.21,186.44l-113.9,82.47l22.81,200.68c-1.12-0.2-2.25-0.39-3.37-0.53l-22.92-201.68l111.74-80.93l0.02,0
		c0.44-0.05,0.89-0.08,1.33-0.12c0.9-0.05,1.82-0.06,2.72-0.01C515.15,186.35,515.68,186.37,516.21,186.44z"/>
	<path class="st2" d="M522.51,190.2l-112.4,81.42l22.72,199.88c-1.13-0.37-2.26-0.69-3.42-0.97l-22.78-200.45l113.44-82.17
		C521.03,188.54,521.88,189.32,522.51,190.2z"/>
	<path class="st2" d="M519.96,200.43l0.03,0.01l-3.29,2.96l-99.38,71.96l22.61,198.95c-1.14-0.57-2.31-1.06-3.49-1.53l-22.62-198.96
		l109.94-79.64C523.7,196.16,522.57,198.32,519.96,200.43z"/>
	<path class="st8" d="M427.03,278.81l20.4,200.03c-2.35-1.77-4.88-3.27-7.49-4.53c-1.14-0.57-2.31-1.06-3.49-1.53
		c-1.2-0.48-2.41-0.9-3.62-1.28c-1.13-0.37-2.26-0.69-3.42-0.97c-1.42-0.37-2.86-0.69-4.3-0.94c-1.12-0.2-2.25-0.39-3.37-0.53
		c-0.94-0.12-1.88-0.23-2.82-0.33l-22.88-201.58C406.03,268.11,416.36,272,427.03,278.81z"/>
	<path class="st7" d="M527.46,190.48l23.62,207.78c0.33,2.91-0.78,5.99-3.47,7.98l-7.72,5.71l-95.37,70.52
		c-2.19,1.61-5.29,0.25-5.6-2.44l-22.42-197.26c-0.31-2.76,0.87-5.48,3.1-7.13l96.67-71.48l7.72-5.71
		C526.67,196.45,527.78,193.39,527.46,190.48z"/>
	<polygon class="st3" points="530.75,219.34 534.12,249.04 422.1,331.88 418.72,302.2 	"/>
	<polygon class="st3" points="549.47,384.05 550.05,389.2 438.05,472.23 437.46,467.08 	"/>
	<path class="st10" d="M527.46,190.48l23.62,207.78c0.33,2.91-0.78,5.99-3.47,7.98l-7.72,5.71l-23.62-207.79l7.72-5.71
		C526.67,196.45,527.78,193.39,527.46,190.48z"/>
	<path class="st0" d="M526.7,222.25l-7.72,5.71l3.41,29.98l7.72-5.71c2.69-2,3.8-5.07,3.47-7.98l-3.41-29.98
		C530.5,217.19,529.39,220.26,526.7,222.25z"/>
	<path class="st0" d="M545.46,387.23l-7.72,5.71l0.61,5.38l7.72-5.71c2.69-2,3.8-5.07,3.47-7.98l-0.61-5.38
		C549.25,382.16,548.14,385.24,545.46,387.23z"/>
	<path class="st10" d="M547.38,263.58l-18.8,20.23l-36.66,39.41l47.96,129.76l-36.18,38.59c-1.46,1.56-4.08,0.95-4.71-1.1
		l-46.17-150.26c-0.73-2.39-0.13-4.98,1.56-6.8l29.56-31.79l37.66-40.51l2.77-2.98c2.49-2.67,5.58-4.57,8.94-5.6
		c3.37-1.04,7-1.19,10.55-0.38c2.27,0.52,3.92,2.02,4.75,3.89C549.68,258.43,549.42,261.4,547.38,263.58z"/>
	<path class="st12" d="M547.38,263.58l-18.8,20.23l-6.97-22.68l2.77-2.98c2.49-2.67,5.58-4.57,8.94-5.6c3.37-1.04,7-1.19,10.55-0.38
		c2.27,0.52,3.92,2.02,4.75,3.89C549.68,258.43,549.42,261.4,547.38,263.58z"/>
	<path class="st1" d="M546.59,260.28c0.23,1.56-0.33,3.41-2.06,5.43l0.03,0l-2.14,2.79l-50.35,65.53l36.49,159.54
		c-2.1-1.04-4.28-1.84-6.51-2.44c-0.97-0.28-1.96-0.49-2.94-0.68c-1-0.2-2.01-0.35-3.01-0.47c-0.94-0.12-1.87-0.21-2.81-0.26
		c-1.16-0.08-2.33-0.12-3.49-0.1c-0.9,0-1.81,0.02-2.71,0.08c-0.75,0.04-1.5,0.09-2.25,0.16l-47.28-153.98l68.66-74.1
		c1.26-1.34,2.66-2.5,4.18-3.44c1.49-0.92,3.09-1.65,4.75-2.16l0.01,0c0.34-0.1,0.68-0.19,1.02-0.29c0.7-0.17,1.41-0.31,2.12-0.4
		c0.42-0.06,0.84-0.12,1.26-0.14c0.2-0.02,0.4-0.04,0.6-0.05c0.91,0.08,1.81,0.29,2.63,0.63c0.85,0.35,1.62,0.84,2.24,1.43
		C545.85,258.15,546.43,259.14,546.59,260.28z"/>
	<g>
		<path class="st2" d="M539.55,255.35l-76.85,80.99l47.1,153.28c-0.9,0-1.81,0.02-2.71,0.08l-47.33-154.05l75.39-79.47l0.01,0
			c0.34-0.1,0.68-0.19,1.02-0.29c0.7-0.17,1.41-0.31,2.12-0.4C538.71,255.43,539.13,255.37,539.55,255.35z"/>
	</g>
	<g>
		<path class="st2" d="M545.02,257.36l-75.83,79.95l46.91,152.67c-0.94-0.12-1.87-0.21-2.81-0.26l-47.04-153.11l76.54-80.69
			C543.63,256.29,544.4,256.77,545.02,257.36z"/>
	</g>
	<g>
		<path class="st2" d="M544.53,265.72l0.03,0l-2.14,2.79l-67.05,70.66l46.69,151.96c-0.97-0.28-1.96-0.49-2.94-0.68l-46.69-151.97
			l74.17-78.2C546.82,261.84,546.26,263.69,544.53,265.72z"/>
	</g>
	<path class="st8" d="M483.44,340.45l45.12,153.13c-2.1-1.04-4.28-1.84-6.51-2.44c-0.97-0.28-1.96-0.49-2.94-0.68
		c-1-0.2-2.01-0.35-3.01-0.47c-0.94-0.12-1.87-0.21-2.81-0.26c-1.16-0.08-2.33-0.12-3.49-0.1c-0.9,0-1.81,0.02-2.71,0.08
		c-0.75,0.04-1.5,0.09-2.25,0.16l-47.28-153.98C465.49,335.17,474.12,336.7,483.44,340.45z"/>
	<path class="st10" d="M548.93,256.86l48.76,158.71c0.68,2.22,0.27,4.79-1.54,6.73l-5.19,5.59l-64.13,68.96
		c-1.47,1.57-4.09,0.97-4.72-1.09l-46.29-150.67c-0.65-2.11-0.12-4.41,1.38-6.01l65.01-69.9l5.19-5.59
		C549.18,261.63,549.6,259.09,548.93,256.86z"/>
	<path class="st12" d="M548.93,256.86l48.76,158.71c0.68,2.22,0.27,4.79-1.54,6.73l-5.19,5.59L542.2,269.17l5.19-5.59
		C549.18,261.63,549.6,259.09,548.93,256.86z"/>
	<path class="st6" d="M516.9,351.65l-11-35.8c-0.86-2.8-3.35-4.79-6.27-5l-5.93-0.44l-10.08,11.14l5.93,0.44
		c2.92,0.22,5.41,2.2,6.27,5l11.38,37.05c-0.24-0.78,2.25-16.74,2.25-16.74L516.9,351.65z"/>
</g>
</svg>
