<?xml version="1.0" encoding="utf-8"?>
<!-- Generator: Adobe Illustrator 27.9.0, SVG Export Plug-In . SVG Version: 6.00 Build 0)  -->
<svg version="1.1" id="Capa_1" xmlns="http://www.w3.org/2000/svg" xmlns:xlink="http://www.w3.org/1999/xlink" x="0px" y="0px"
	 viewBox="0 0 600 600" style="enable-background:new 0 0 600 600;" xml:space="preserve">
<style type="text/css">
	.st0{fill:#4D3682;}
	.st1{fill:#EBE9DF;}
	.st2{fill:#E0DDC9;}
	.st3{fill:#68529D;}
	.st4{fill:#E27B47;}
	.st5{fill:#A0A8D5;}
	.st6{fill:#EFCA58;}
	.st7{fill:#C61C40;}
	.st8{fill:#DEDEDE;}
	.st9{fill:#D1A730;}
	.st10{fill:#FC7955;}
	.st11{fill:#F9986E;}
	.st12{fill:#8A76B3;}
	.st13{fill:#9F91C5;}
</style>
<path class="st0" d="M507.95,446.83c2.14,1.12,2.27,4.14,0.23,5.44L338.24,560.21c-6.14,3.9-14.2-0.31-14.51-7.58v0
	c-0.55-12.87,5.82-25.06,16.69-31.96l139.38-88.53L507.95,446.83z"/>
<path class="st1" d="M500.45,411.95L323.94,520.87l0.07,13.81l0.03,4.85l0.02,4.61c0,0.44,0.04,0.9,0.1,1.32
	c0.18,1.48,0.67,2.82,1.38,4c0.82,1.4,1.99,2.56,3.31,3.44c1.47,0.95,3.17,1.54,4.95,1.68c2.14,0.19,4.39-0.3,6.46-1.62
	l162.51-103.4c-0.34-0.73-0.67-1.46-0.95-2.21c-0.53-1.29-0.99-2.62-1.39-3.98c-0.48-1.57-0.86-3.18-1.16-4.81
	c-0.28-1.46-0.5-2.94-0.65-4.46c-0.19-1.9-0.27-3.86-0.24-5.86c0-1.64,0.09-3.31,0.23-5.01
	C498.92,419.61,499.52,415.85,500.45,411.95z"/>
<g>
	<path class="st2" d="M500.42,443.37L328.85,552.9c1.47,0.95,3.17,1.54,4.95,1.68l168.02-107.23
		C501.28,446.06,500.82,444.74,500.42,443.37z"/>
</g>
<g>
	<path class="st2" d="M498.61,434.1L324.16,545.46c0.18,1.48,0.67,2.82,1.38,4l173.73-110.9
		C498.99,437.1,498.76,435.62,498.61,434.1z"/>
</g>
<g>
	<path class="st2" d="M498.6,423.23L324.01,534.68l0.03,4.85l174.32-111.29C498.36,426.6,498.45,424.94,498.6,423.23z"/>
</g>
<path class="st3" d="M506.6,415.12L322.85,531.83L43.06,385.71c-7.51-3.92-7.96-14.51-0.81-19.05l168.85-107.25
	c2.1-1.34,4.76-1.45,6.97-0.3l288.3,150.57C508.52,410.8,508.65,413.82,506.6,415.12z"/>
<path class="st0" d="M340.43,520.67L43.73,365.71c-10.86,6.9-17.23,19.09-16.69,31.96c0.16,3.64,2.25,6.49,5.08,7.97
	c0,0,284.92,148.18,296.35,154.75c-2.66-1.5-4.6-4.3-4.73-7.76c-0.28-6.46,1.19-12.72,4.06-18.22
	C330.68,528.9,334.98,524.11,340.43,520.67z"/>
<path class="st4" d="M99.18,356.15l102.59-66.88l1.43,2.19l-1.43-2.19c11.19-7.3,25.51-7.99,37.35-1.8l218.27,114
	c4.16,2.17,6.77,6.26,7,10.94c0.23,4.68-1.98,9-5.91,11.57l-102.59,66.88c-11.19,7.3-25.51,7.99-37.35,1.8l-218.27-114
	c-4.16-2.17-6.77-6.26-7-10.94c-0.11-2.38,0.4-4.67,1.45-6.68C95.74,359.09,97.25,357.41,99.18,356.15z M459.16,412.65
	c-0.13-2.81-1.7-5.25-4.19-6.55l-218.27-114c-10.17-5.31-22.46-4.72-32.07,1.55l-102.59,66.88c-2.35,1.53-3.68,4.12-3.54,6.93
	c0.13,2.81,1.7,5.26,4.19,6.55l218.27,114c10.17,5.31,22.46,4.72,32.07-1.55l102.59-66.88c1.16-0.75,2.06-1.76,2.67-2.93
	C458.92,415.45,459.23,414.08,459.16,412.65z"/>
<polygon class="st4" points="400.14,396.15 310.49,454.67 321.16,460.25 410.82,401.72 "/>
<polygon class="st4" points="376.98,384.05 287.33,442.58 298,448.15 387.66,389.63 "/>
<path class="st5" d="M469.23,335.84L430,360.75l-76.45,48.57l-200-119.14L78.6,338.21c-3.02,1.94-2.83,6.46,0.37,8.13l234.47,122.46
	c3.72,1.94,8.19,1.75,11.72-0.5l61.66-39.17l78.57-49.89l5.79-3.67c5.17-3.3,9.28-7.83,12.01-13.08c2.75-5.26,4.12-11.22,3.87-17.33
	c-0.17-3.91-2.15-7.1-4.98-9.05C478.46,333.61,473.47,333.14,469.23,335.84z"/>
<polygon class="st6" points="452.12,356.82 443.37,352.25 430,360.75 353.55,409.32 328.48,394.39 257.41,439.54 292.79,458.01 "/>
<polygon class="st6" points="171.35,300.79 90.17,352.19 96.33,355.41 177.12,304.22 "/>
<path class="st7" d="M469.23,335.84L430,360.75l35.4,18.49l5.79-3.67c5.17-3.3,9.28-7.83,12.01-13.08
	c2.75-5.26,4.12-11.22,3.87-17.33c-0.17-3.91-2.15-7.1-4.98-9.05C478.46,333.61,473.47,333.14,469.23,335.84z"/>
<path class="st1" d="M474.44,338.16c-2.5-0.86-5.75-0.49-9.62,1.75l0-0.05l-5.27,2.68l-123.87,63.22L82.9,296.47
	c1.07,3.79,1.73,7.65,2.05,11.51c0.16,1.69,0.22,3.39,0.23,5.08c0.02,1.72-0.03,3.43-0.15,5.13c-0.09,1.59-0.23,3.15-0.44,4.73
	c-0.22,1.94-0.52,3.9-0.9,5.81c-0.28,1.49-0.59,2.99-0.96,4.46c-0.3,1.23-0.61,2.46-0.95,3.67l240.28,125.44l143.65-90.89
	c2.61-1.66,4.95-3.64,6.98-5.86c1.99-2.19,3.67-4.61,5.02-7.2l0.01-0.02c0.27-0.53,0.53-1.06,0.79-1.6c0.5-1.1,0.94-2.23,1.32-3.38
	c0.23-0.68,0.46-1.35,0.62-2.03c0.09-0.32,0.19-0.65,0.26-0.98c0.15-1.53,0.07-3.09-0.23-4.54c-0.33-1.51-0.89-2.95-1.68-4.15
	C477.75,340.04,476.28,338.78,474.44,338.16z"/>
<path class="st2" d="M480.45,351.32L322.88,453.66L83.69,328.74c-0.28,1.49-0.59,2.99-0.96,4.46L323.1,458.74l154.61-100.38
	l0.01-0.02c0.27-0.53,0.53-1.06,0.79-1.6c0.5-1.1,0.94-2.23,1.32-3.38C480.06,352.68,480.29,352.01,480.45,351.32z"/>
<path class="st2" d="M478.8,341.65L323.26,442.62L85.03,318.2c-0.09,1.59-0.23,3.15-0.44,4.73L323.5,447.71l156.97-101.9
	C480.15,344.29,479.58,342.86,478.8,341.65z"/>
<path class="st2" d="M464.82,339.91l0-0.05l-5.27,2.68l-137.48,89.28L84.95,307.99c0.16,1.69,0.22,3.39,0.23,5.08l237.14,123.85
	l152.12-98.75C471.94,337.3,468.7,337.67,464.82,339.91z"/>
<path class="st8" d="M322.43,418.07L82.9,296.47c1.07,3.79,1.73,7.65,2.05,11.51c0.16,1.69,0.22,3.39,0.23,5.08
	c0.02,1.72-0.03,3.43-0.15,5.13c-0.09,1.59-0.23,3.15-0.44,4.73c-0.22,1.94-0.52,3.9-0.9,5.81c-0.28,1.49-0.59,2.99-0.96,4.46
	c-0.3,1.23-0.61,2.46-0.95,3.67l240.28,125.44C325.67,449.39,325.79,434.65,322.43,418.07z"/>
<path class="st5" d="M480.83,335.35L233.18,206.01c-3.47-1.81-7.83-1.91-11.61,0.48l-10.83,6.87L76.97,298.33
	c-3.05,1.95-2.86,6.47,0.36,8.15l235.11,122.79c3.29,1.72,7.25,1.55,10.37-0.44l135.58-86.13l10.83-6.87
	C473,333.47,477.35,333.55,480.83,335.35z"/>
<polygon class="st6" points="446.42,317.38 411.02,298.89 253.9,398.7 289.28,417.18 "/>
<polygon class="st6" points="250.12,214.85 243.98,211.65 86.62,311.34 92.76,314.55 "/>
<path class="st7" d="M480.83,335.35L233.18,206.01c-3.47-1.81-7.83-1.91-11.61,0.48l-10.83,6.87L458.4,342.71l10.83-6.87
	C473,333.47,477.35,333.55,480.83,335.35z"/>
<path class="st9" d="M440.85,321.02l-10.83,6.87l-35.74-18.66l10.83-6.87c3.78-2.39,8.14-2.3,11.61-0.48l35.74,18.66
	C449,318.72,444.63,318.62,440.85,321.02z"/>
<path class="st9" d="M244.21,218.32l-10.83,6.87l-6.41-3.35l10.83-6.87c3.78-2.39,8.15-2.3,11.62-0.48l6.41,3.35
	C252.36,216.02,247.99,215.93,244.21,218.32z"/>
<path class="st10" d="M589.31,322.68c2.14,1.12,2.27,4.14,0.23,5.44L419.6,436.05c-6.14,3.9-14.2-0.31-14.51-7.58l0,0
	c-0.55-12.87,5.82-25.06,16.69-31.96l139.38-88.53L589.31,322.68z"/>
<path class="st1" d="M581.81,287.79L405.3,396.71l0.07,13.81l0.03,4.85l0.02,4.61c0,0.44,0.04,0.9,0.1,1.32
	c0.18,1.48,0.67,2.83,1.38,4c0.82,1.4,1.99,2.56,3.31,3.44c1.47,0.95,3.17,1.54,4.95,1.68c2.14,0.19,4.39-0.3,6.46-1.62
	l162.51-103.4c-0.34-0.73-0.67-1.46-0.95-2.21c-0.53-1.29-0.99-2.62-1.39-3.98c-0.48-1.57-0.86-3.18-1.16-4.81
	c-0.28-1.46-0.5-2.94-0.65-4.46c-0.19-1.9-0.27-3.86-0.24-5.86c0-1.64,0.09-3.31,0.23-5.01
	C580.28,295.45,580.88,291.7,581.81,287.79z"/>
<g>
	<g>
		<path class="st2" d="M581.79,319.22L410.21,428.74c1.47,0.95,3.17,1.54,4.95,1.68L583.17,323.2
			C582.65,321.91,582.18,320.58,581.79,319.22z"/>
	</g>
	<g>
		<path class="st2" d="M579.97,309.95L405.52,421.3c0.18,1.48,0.67,2.83,1.38,4l173.73-110.9
			C580.35,312.94,580.13,311.46,579.97,309.95z"/>
	</g>
	<g>
		<path class="st2" d="M579.96,299.08L405.37,410.52l0.03,4.85l174.32-111.29C579.73,302.45,579.81,300.78,579.96,299.08z"/>
	</g>
</g>
<path class="st11" d="M587.97,290.96L404.21,407.67L124.43,261.55c-7.51-3.92-7.96-14.51-0.81-19.05l168.85-107.25
	c2.1-1.34,4.76-1.45,6.97-0.3l288.3,150.57C589.88,286.64,590.01,289.66,587.97,290.96z"/>
<polygon class="st3" points="353.12,162.99 320.12,145.76 136.32,261.71 169.99,279.29 "/>
<polygon class="st3" points="568.48,275.47 557.28,269.62 373.47,385.56 385.35,391.77 "/>
<path class="st10" d="M421.79,396.52l-296.7-154.96c-10.86,6.9-17.23,19.09-16.69,31.96c0.16,3.64,2.25,6.49,5.08,7.97
	c0,0,284.92,148.18,296.35,154.75c-2.66-1.5-4.6-4.3-4.73-7.76c-0.28-6.46,1.19-12.72,4.06-18.22
	C412.04,404.74,416.34,399.96,421.79,396.52z"/>
<g>
	<path class="st0" d="M169.89,285.3c-2.87,5.5-4.34,11.76-4.06,18.22c0.13,3.47,2.07,6.26,4.73,7.76
		c-2.26-1.3-15.17-8.11-34.44-18.21c-1.97-1.6-3.32-3.99-3.43-6.86c-0.28-6.46,1.19-12.72,4.06-18.22
		c2.88-5.52,7.18-10.3,12.63-13.74l33.14,17.31C177.07,274.99,172.77,279.78,169.89,285.3z"/>
</g>
<g>
	<path class="st0" d="M385.32,397.81c-2.87,5.5-4.34,11.76-4.06,18.22c0.13,3.47,2.07,6.26,4.73,7.76
		c-1.25-0.72-5.79-3.14-12.88-6.88c-2.09-1.59-3.55-4.07-3.66-7.05c-0.28-6.46,1.19-12.72,4.06-18.22
		c2.88-5.52,7.18-10.3,12.63-13.74l11.8,6.17C392.5,387.51,388.2,392.29,385.32,397.81z"/>
</g>
<polygon class="st3" points="385.46,165.09 374.25,159.24 190.44,275.19 202.32,281.39 "/>
<g>
	<path class="st0" d="M189.3,295.43c-2.87,5.5-4.34,11.76-4.06,18.22c0.13,3.47,2.07,6.26,4.73,7.76
		c-1.25-0.72-5.79-3.14-12.88-6.88c-2.09-1.59-3.54-4.07-3.66-7.05c-0.28-6.46,1.19-12.72,4.06-18.22
		c2.88-5.52,7.18-10.3,12.63-13.74l11.8,6.17C196.48,285.13,192.18,289.91,189.3,295.43z"/>
</g>
<polygon class="st6" points="346.7,211.44 273.66,257 423.47,335.24 496.51,289.68 "/>
<polygon class="st5" points="455.07,394.56 482.11,377.29 505.09,389.29 477.77,406.41 "/>
<polygon class="st12" points="540.44,329.17 555.89,319.31 570.05,326.71 554.61,336.57 "/>
<path class="st12" d="M551.84,245.71c1.83,0.95,1.94,3.53,0.2,4.63l-144.81,91.97c-5.23,3.32-12.1-0.26-12.36-6.46l0,0
	c-0.46-10.97,4.96-21.35,14.23-27.24l118.77-75.44L551.84,245.71z"/>
<path class="st1" d="M545.44,215.99l-150.4,92.81l0.06,11.77l0.03,4.13l0.02,3.93c0,0.37,0.03,0.77,0.08,1.13
	c0.15,1.26,0.57,2.41,1.17,3.41c0.7,1.19,1.7,2.19,2.82,2.93c1.25,0.81,2.7,1.31,4.22,1.43c1.82,0.17,3.74-0.25,5.51-1.38
	l138.47-88.11c-0.29-0.62-0.57-1.24-0.81-1.88c-0.45-1.1-0.84-2.23-1.18-3.39c-0.41-1.33-0.73-2.71-0.99-4.1
	c-0.24-1.25-0.42-2.51-0.56-3.8c-0.16-1.62-0.23-3.29-0.21-4.99c0-1.4,0.07-2.82,0.2-4.27
	C544.14,222.52,544.65,219.32,545.44,215.99z"/>
<g>
	<path class="st2" d="M545.42,242.76l-146.2,93.33c1.25,0.81,2.7,1.31,4.22,1.43l143.17-91.37
		C546.16,245.06,545.76,243.93,545.42,242.76z"/>
</g>
<g>
	<path class="st2" d="M543.88,234.87l-148.65,94.89c0.15,1.26,0.57,2.41,1.17,3.41l148.04-94.5
		C544.2,237.42,544.01,236.16,543.88,234.87z"/>
</g>
<g>
	<path class="st2" d="M543.87,225.6L395.1,320.57l0.03,4.13l148.54-94.83C543.67,228.47,543.74,227.05,543.87,225.6z"/>
</g>
<path class="st13" d="M550.69,218.69l-156.58,99.45L155.7,193.62c-6.4-3.34-6.78-12.36-0.69-16.23L298.9,86
	c1.79-1.14,4.06-1.23,5.94-0.25l245.66,128.3C552.32,215.01,552.43,217.58,550.69,218.69z"/>
<path class="st12" d="M409.09,308.63L156.26,176.59c-9.26,5.88-14.68,16.27-14.23,27.24c0.13,3.1,1.92,5.53,4.33,6.79
	c0,0,242.78,126.27,252.53,131.87c-2.27-1.28-3.92-3.66-4.03-6.62c-0.24-5.5,1.01-10.84,3.46-15.53
	C400.78,315.64,404.45,311.57,409.09,308.63z"/>
<path class="st6" d="M306.4,98.63l221.98,115.93L404.07,294.8l-224.02-117L306.4,98.63z M517.98,215.04L306.64,104.66l-116.07,72.73
	l213.22,111.36L517.98,215.04z"/>
<polygon class="st6" points="435.39,184.9 347.83,243.18 377.23,258.54 464.79,200.26 "/>
<path class="st11" d="M526.21,157.52l-31.15,19.78l-60.69,38.56l-158.79-94.59l-59.51,38.14c-2.4,1.54-2.25,5.13,0.29,6.46
	l186.16,97.22c2.96,1.54,6.5,1.39,9.31-0.4l48.96-31.1l62.38-39.61l4.6-2.92c4.11-2.62,7.36-6.22,9.54-10.38
	c2.18-4.18,3.27-8.91,3.07-13.76c-0.13-3.1-1.7-5.64-3.95-7.18C533.53,155.75,529.57,155.38,526.21,157.52z"/>
<path class="st10" d="M526.21,157.52l-31.15,19.78l28.1,14.68l4.6-2.92c4.11-2.62,7.36-6.22,9.54-10.38
	c2.18-4.18,3.27-8.91,3.07-13.76c-0.13-3.1-1.7-5.64-3.95-7.18C533.53,155.75,529.57,155.38,526.21,157.52z"/>
<path class="st1" d="M530.35,159.37c-1.99-0.68-4.56-0.39-7.64,1.39l0-0.04l-4.18,2.13l-98.35,50.19l-200.7-86.77
	c0.85,3.01,1.38,6.08,1.63,9.14c0.12,1.35,0.17,2.69,0.18,4.03c0.02,1.37-0.02,2.73-0.12,4.07c-0.07,1.26-0.18,2.5-0.35,3.76
	c-0.18,1.54-0.41,3.09-0.71,4.61c-0.22,1.18-0.47,2.37-0.77,3.54c-0.24,0.98-0.49,1.95-0.75,2.91l190.77,99.59l114.05-72.17
	c2.07-1.32,3.93-2.89,5.54-4.65c1.58-1.74,2.91-3.66,3.99-5.72l0.01-0.02c0.22-0.42,0.42-0.84,0.62-1.27
	c0.4-0.88,0.75-1.78,1.05-2.68c0.18-0.54,0.36-1.07,0.49-1.62c0.07-0.26,0.15-0.51,0.21-0.78c0.12-1.22,0.06-2.45-0.19-3.6
	c-0.26-1.2-0.71-2.34-1.33-3.3C532.98,160.86,531.81,159.85,530.35,159.37z"/>
<g>
	<path class="st2" d="M535.11,169.81l-125.1,81.25l-189.9-99.18c-0.22,1.18-0.47,2.37-0.77,3.54l190.85,99.67l122.75-79.7l0.01-0.02
		c0.22-0.42,0.42-0.84,0.62-1.27c0.4-0.88,0.75-1.78,1.05-2.68C534.8,170.89,534.99,170.36,535.11,169.81z"/>
</g>
<g>
	<path class="st2" d="M533.8,162.14L410.31,242.3l-189.14-98.78c-0.07,1.26-0.18,2.5-0.35,3.76l189.69,99.07l124.63-80.9
		C534.88,164.23,534.43,163.09,533.8,162.14z"/>
</g>
<g>
	<path class="st2" d="M522.71,160.75l0-0.04l-4.18,2.13l-109.15,70.89l-188.26-98.32c0.12,1.35,0.17,2.69,0.18,4.03l188.28,98.33
		l120.78-78.4C528.36,158.68,525.78,158.97,522.71,160.75z"/>
</g>
<path class="st8" d="M409.66,222.81l-190.18-96.55c0.85,3.01,1.38,6.08,1.63,9.14c0.12,1.35,0.17,2.69,0.18,4.03
	c0.02,1.37-0.02,2.73-0.12,4.07c-0.07,1.26-0.18,2.5-0.35,3.76c-0.18,1.54-0.41,3.09-0.71,4.61c-0.22,1.18-0.47,2.37-0.77,3.54
	c-0.24,0.98-0.49,1.95-0.75,2.91l190.77,99.59C412.23,247.68,412.32,235.97,409.66,222.81z"/>
<path class="st11" d="M535.41,157.13L338.8,54.44c-2.75-1.44-6.22-1.52-9.22,0.38l-8.6,5.46l-106.2,67.46
	c-2.42,1.55-2.27,5.14,0.28,6.47l186.67,97.49c2.62,1.37,5.76,1.23,8.24-0.35l107.65-68.38l8.6-5.46
	C529.2,155.64,532.65,155.71,535.41,157.13z"/>
<path class="st10" d="M535.41,157.13L338.8,54.44c-2.75-1.44-6.22-1.52-9.22,0.38l-8.6,5.46l196.63,102.7l8.6-5.46
	C529.2,155.64,532.65,155.71,535.41,157.13z"/>
<path class="st3" d="M403.1,176.13l44.35,23.16c3.47,1.81,5.47,5.56,5.05,9.46l-0.86,7.9l-17.09,10.53l0.86-7.9
	c0.43-3.89-1.58-7.64-5.05-9.46l-45.9-23.97c0.97,0.51,22.53,1.12,22.53,1.12L403.1,176.13z"/>
</svg>
