<?xml version="1.0" encoding="utf-8"?>
<!-- Generator: Adobe Illustrator 27.9.0, SVG Export Plug-In . SVG Version: 6.00 Build 0)  -->
<svg version="1.1" id="Capa_1" xmlns="http://www.w3.org/2000/svg" xmlns:xlink="http://www.w3.org/1999/xlink" x="0px" y="0px"
	 viewBox="0 0 600 600" style="enable-background:new 0 0 600 600;" xml:space="preserve">
<style type="text/css">
	.st0{opacity:0.5;fill:#FCCBB6;}
	.st1{fill:#BABEE1;}
	.st2{fill:#F9986E;}
	.st3{fill:#FFFFFF;}
	.st4{fill:#FC7955;}
	.st5{fill:#8A76B3;}
	.st6{fill:#68529D;}
	.st7{opacity:0.5;fill:#8A76B3;}
	.st8{fill:#FFA18A;}
	.st9{fill:#F9B485;}
	.st10{fill:#A0A8D5;}
	.st11{fill:#091317;}
	.st12{fill:#12252E;}
	.st13{fill:#FFD471;}
	.st14{opacity:0.5;fill:#FFD471;}
	.st15{fill:#BF7968;}
	.st16{fill:#4D3682;}
	.st17{fill:#E35D47;}
	.st18{fill:#31373A;}
	.st19{fill:#3C4245;}
	.st20{fill:#A55852;}
	.st21{fill:#DB5442;}
</style>
<g>
	<path class="st0" d="M26.71,498.35h563.07c0,0,14.56-87.32-10.97-135.56c-30.96-58.49-64.8-35.26-78.41-58.8
		c-18.04-31.19-13.02-155.42-127.33-147.3c-66.85,4.75-92.69,103.22-114.24,103.22c-27.41,0-65.46-42.39-134.41-16.51
		C5.56,288.01,26.71,498.35,26.71,498.35z"/>
	<ellipse class="st1" cx="308.6" cy="501.21" rx="289.4" ry="18.79"/>
	<path class="st2" d="M503.14,459.49c9.8-7.36,18.14-16.71,23.63-28.69c5.7-12.43,8.47-26.37,11.15-40.13
		c0.42-2.16-1.39-4.51-3.33-3.42c-8.72,4.8-18.62,0.39-27.7-2.18c-7.47-2.1-14.98-4-22.55-5.26c-15.33-2.58-31.02-2.62-45.53,2.82
		c-7.81,2.93-14.91,7.53-21.11,13.35c-2.8,2.14-5.52,4.43-8.04,7.07c-13.33,13.94-22.51,35.51-20.4,57.19
		c1.06,10.82,8.69,13.39,16.89,16.53c10.68,4.09,21.88,6.23,32.96,6.26C462.2,483.07,484.42,473.55,503.14,459.49z"/>
	<path class="st3" d="M444.89,480.72c-4.7-6.3-11.69-9.49-19.44-9.76c-4.38-0.16-8.41-0.44-12.52-2.08
		c-3.95-1.58-7.56-3.87-11.11-6.17c6.21-5.5,12.56-10.85,19.42-15.53c0.18-0.12,0.36-0.23,0.54-0.36
		c20.27,4.43,33.8,22.64,53.65,28.21c1.44,0.41,2.2-1.81,0.75-2.22c-19.21-5.39-32.47-22.62-51.72-27.74
		c8.34-5.23,17.33-9.14,26.62-12.44c3.13-1.11,6.26-2.19,9.4-3.26c5.18,2,9.46,5.48,14.12,8.4c4.07,2.54,8.38,4.3,13.09,5.25
		c9.42,1.9,19.14,1.08,28.55,3.04c1.46,0.31,2.23-1.91,0.75-2.22c-9.23-1.92-18.72-1.25-27.98-2.94c-5.43-1-10.2-3.13-14.8-6.18
		c-3.45-2.28-6.77-4.67-10.47-6.47c10.49-3.58,20.97-7.16,31.14-11.52c12.51,2.77,26.14,5.04,37.27-2.97
		c1.23-0.89-0.31-2.66-1.52-1.78c-9.51,6.84-21.28,5.43-32.12,3.15c3.83-1.73,7.61-3.58,11.33-5.61
		c10.14-5.54,19.63-12.18,27.91-20.27c1.07-1.05-0.45-2.83-1.53-1.78c-11.96,11.68-26.35,20.12-41.54,26.83
		c-0.57-0.11-1.03,0.17-1.29,0.57c-1.6,0.7-3.21,1.37-4.84,2.03c0.7-3.5,1.84-6.85,3.27-10.07c3.21-7.24,7.9-13.87,12.47-20.3
		c0.87-1.23-1.07-2.54-1.94-1.31c-7.1,9.98-14.26,20.39-16.34,32.7c-1.28,0.51-2.55,1-3.84,1.49c-7.2,2.73-14.57,5.09-21.91,7.54
		c-0.05,0.01-0.09,0.03-0.14,0.04c-3.94,1.31-7.85,2.65-11.73,4.09c-0.49-9.22,4.36-17.46,9.19-24.96
		c5.27-8.19,9.87-16.27,12.31-25.79c0.37-1.45-1.85-2.21-2.22-0.75c-1.36,5.3-3.28,10.42-5.88,15.24
		c-2.54,4.69-5.65,9.04-8.43,13.59c-4.39,7.16-7.88,14.97-7.26,23.53c-8.16,3.12-16.1,6.72-23.5,11.49
		c-4.64,2.99-9.03,6.3-13.3,9.78c-3.38-10.43,2.19-20.99,7.06-30.03c5.16-9.55,8.89-19.07,9.2-30.05c0.04-1.5-2.29-1.66-2.34-0.15
		c-0.17,5.96-1.22,11.83-3.31,17.43c-2.29,6.15-5.79,11.72-8.72,17.57c-4.16,8.28-7.06,17.76-3.81,26.81
		c-4.7,3.92-9.26,8.03-13.8,12.13c-1.12,1.01,0.41,2.8,1.53,1.78c1.62-1.47,3.25-2.93,4.88-4.39c6.48,4.2,13.24,8.32,21.13,8.84
		c4.24,0.28,8.31,0.06,12.35,1.63c3.89,1.5,7.15,4.13,9.63,7.45C444.02,483.46,445.79,481.93,444.89,480.72z"/>
	<path class="st2" d="M139.88,413.33c-10.53,3.42-21.13,6.27-31.95,8.29c-1.07,0.2-1.49,1.67-0.82,2.53
		c7.2,9.26,14.38,18.54,21.59,27.79c5.95,7.66,16.21,17.25,29.79,23.85c16.36,7.94,36.48,7.66,52.46-3.73
		c13.97-9.95,7.12-27.06-0.08-39.21c-8.88-14.98-26.07-20.76-41.66-22.98C159.07,408.43,149.65,410.16,139.88,413.33z"/>
	<path class="st3" d="M107.89,423.26c7,2.91,14.03,5.85,21.38,7.78c0.61,0.16,1.22,0.3,1.82,0.44c-2.13,0.33-4.26,0.65-6.37,1.07
		c-2.67,0.53-5.23,1.41-7.52,2.89c-0.76,0.49-0.13,1.76,0.64,1.26c2.28-1.46,4.77-2.31,7.42-2.81c3.06-0.59,6.16-1.01,9.23-1.5
		c0.14-0.02,0.24-0.07,0.32-0.13c5.35,0.96,10.77,1.47,16.12,2.47c5.76,1.08,11.37,2.67,16.89,4.58c-4.68,4.76-12.37,5.56-18.58,6.9
		c-3.77,0.81-7.53,1.62-11.3,2.43c-2.89,0.63-5.89,1.3-7.72,3.83c-0.54,0.74,0.66,1.51,1.19,0.77c2.16-3,6.95-3.25,10.28-3.96
		c3.87-0.84,7.74-1.67,11.61-2.51c5.72-1.23,11.86-2.51,15.95-6.96c8.03,2.85,15.85,6.32,23.61,9.79c2.55,1.14,5.11,2.28,7.64,3.48
		c-15.98,10.34-34.8,15.38-53.84,13.82c-0.91-0.07-0.97,1.34-0.06,1.42c19.59,1.61,39.04-3.69,55.39-14.52
		c5.15,2.5,10.15,5.28,14.71,8.8c0.72,0.56,1.49-0.63,0.77-1.19c-1.68-1.3-3.43-2.49-5.21-3.62c-0.01-0.04-0.01-0.08-0.03-0.13
		c-3.05-8.7-7.19-16.96-12.39-24.57c-5.19-7.6-11.57-16.18-20.26-19.9c-0.84-0.36-1.26,0.99-0.42,1.35
		c4.64,1.98,8.27,5.47,11.58,9.19c2.96,3.32,5.7,6.84,8.19,10.52c4.72,6.96,8.54,14.49,11.43,22.38c-2.52-1.48-5.11-2.83-7.75-4.11
		c-0.13-0.25-0.39-0.41-0.67-0.33c-1.4-0.67-2.82-1.33-4.24-1.97c-2.91-1.32-5.83-2.63-8.76-3.93c-2.96-6.53-6.63-12.42-11.3-17.86
		c-5.18-6.04-10.52-11.94-15.79-17.91c-0.6-0.68-1.66,0.26-1.06,0.94c5.09,5.77,10.23,11.49,15.27,17.31
		c4.43,5.12,8,10.59,10.9,16.65c-3.46-1.51-6.94-2.98-10.44-4.37c-2.2-0.88-4.42-1.71-6.65-2.51c-0.17-0.28-0.57-0.45-0.92-0.33
		c-4.27-1.5-8.61-2.81-13.01-3.85c-0.01-0.02-0.02-0.03-0.04-0.05c-3.37-3.16-4.81-7.62-7.28-11.42c-2.67-4.09-6.49-6.47-10.75-8.63
		c-0.8-0.41-1.58,0.77-0.77,1.19c2.15,1.09,4.32,2.18,6.23,3.67c1.92,1.5,3.45,3.37,4.69,5.47c1.83,3.09,3.2,6.48,5.5,9.24
		c-6.88-1.4-13.9-1.87-20.75-3.39c-8.45-1.86-16.47-5.2-24.43-8.52C107.48,421.56,107.06,422.91,107.89,423.26z"/>
	<path class="st4" d="M81.74,438.93c-2.24,0-4.06-1.82-4.06-4.06c0-2.24,1.82-4.06,4.06-4.06c2.24,0,4.06,1.82,4.06,4.06
		C85.8,437.11,83.98,438.93,81.74,438.93z M81.74,431.74c-1.73,0-3.13,1.4-3.13,3.13c0,1.73,1.41,3.13,3.13,3.13
		c1.73,0,3.14-1.4,3.14-3.13C84.88,433.14,83.47,431.74,81.74,431.74z"/>
	<path class="st4" d="M60.29,247.92c-2.78,0-5.04-2.26-5.04-5.04c0-2.78,2.26-5.04,5.04-5.04c2.77,0,5.03,2.26,5.03,5.04
		C65.32,245.66,63.06,247.92,60.29,247.92z M60.29,238.99c-2.15,0-3.89,1.75-3.89,3.89c0,2.15,1.75,3.89,3.89,3.89
		c2.14,0,3.89-1.74,3.89-3.89C64.17,240.74,62.43,238.99,60.29,238.99z"/>
	<path class="st4" d="M71.55,370.9c-3.48,0-6.31-2.83-6.31-6.31c0-3.48,2.83-6.32,6.31-6.32c3.48,0,6.32,2.83,6.32,6.32
		C77.87,368.06,75.04,370.9,71.55,370.9z M71.55,359.7c-2.69,0-4.88,2.19-4.88,4.88c0,2.69,2.19,4.88,4.88,4.88
		c2.69,0,4.88-2.19,4.88-4.88C76.43,361.89,74.24,359.7,71.55,359.7z"/>
	<path class="st4" d="M558.77,294.11c-3.48,0-6.31-2.83-6.31-6.31s2.83-6.31,6.31-6.31c3.48,0,6.31,2.83,6.31,6.31
		S562.25,294.11,558.77,294.11z M558.77,282.91c-2.69,0-4.87,2.19-4.87,4.88c0,2.69,2.19,4.88,4.87,4.88c2.69,0,4.88-2.19,4.88-4.88
		C563.65,285.1,561.46,282.91,558.77,282.91z"/>
	<path class="st4" d="M12.78,409.42c-2.07,0-3.75-1.69-3.75-3.75c0-2.07,1.68-3.75,3.75-3.75c2.07,0,3.75,1.68,3.75,3.75
		C16.53,407.73,14.85,409.42,12.78,409.42z M12.78,402.77c-1.6,0-2.9,1.3-2.9,2.9c0,1.6,1.3,2.9,2.9,2.9c1.6,0,2.9-1.3,2.9-2.9
		C15.68,404.06,14.38,402.77,12.78,402.77z"/>
	<path class="st4" d="M28.81,313.17c-1.96,0-3.56-1.6-3.56-3.56c0-1.96,1.6-3.56,3.56-3.56c1.97,0,3.56,1.6,3.56,3.56
		C32.38,311.57,30.78,313.17,28.81,313.17z M28.81,306.86c-1.52,0-2.75,1.24-2.75,2.75c0,1.52,1.23,2.75,2.75,2.75
		c1.52,0,2.75-1.23,2.75-2.75C31.56,308.09,30.33,306.86,28.81,306.86z"/>
	<path class="st4" d="M126.41,221.94c-1.97,0-3.56-1.6-3.56-3.56c0-1.97,1.6-3.56,3.56-3.56c1.96,0,3.56,1.6,3.56,3.56
		C129.97,220.34,128.37,221.94,126.41,221.94z M126.41,215.62c-1.52,0-2.75,1.24-2.75,2.75c0,1.52,1.23,2.75,2.75,2.75
		c1.52,0,2.75-1.23,2.75-2.75C129.16,216.86,127.92,215.62,126.41,215.62z"/>
	<path class="st4" d="M361.76,212.68c-1.96,0-3.56-1.59-3.56-3.56c0-1.97,1.6-3.56,3.56-3.56c1.96,0,3.56,1.6,3.56,3.56
		C365.32,211.09,363.72,212.68,361.76,212.68z M361.76,206.37c-1.52,0-2.75,1.23-2.75,2.75c0,1.52,1.23,2.75,2.75,2.75
		c1.52,0,2.75-1.23,2.75-2.75C364.51,207.6,363.28,206.37,361.76,206.37z"/>
	<path class="st4" d="M504.24,237.04c-2.89,0-5.25-2.35-5.25-5.25c0-2.89,2.36-5.24,5.25-5.24c2.89,0,5.25,2.35,5.25,5.24
		C509.48,234.68,507.13,237.04,504.24,237.04z M504.24,227.74c-2.23,0-4.05,1.82-4.05,4.05c0,2.24,1.82,4.05,4.05,4.05
		c2.23,0,4.05-1.82,4.05-4.05C508.29,229.56,506.47,227.74,504.24,227.74z"/>
	<path class="st4" d="M565.08,411.98c-2.95,0-5.36-2.41-5.36-5.36c0-2.96,2.41-5.36,5.36-5.36c2.95,0,5.36,2.4,5.36,5.36
		C570.44,409.58,568.04,411.98,565.08,411.98z M565.08,402.48c-2.28,0-4.14,1.86-4.14,4.14c0,2.28,1.86,4.14,4.14,4.14
		c2.28,0,4.14-1.86,4.14-4.14C569.22,404.34,567.37,402.48,565.08,402.48z"/>
	<path class="st4" d="M536.16,365.11c-2.21,0-4.01-1.8-4.01-4.01c0-2.21,1.8-4.01,4.01-4.01s4.01,1.8,4.01,4.01
		C540.17,363.31,538.37,365.11,536.16,365.11z M536.16,358.01c-1.71,0-3.1,1.38-3.1,3.09c0,1.71,1.39,3.1,3.1,3.1s3.1-1.39,3.1-3.1
		C539.26,359.39,537.87,358.01,536.16,358.01z"/>
	<path class="st2" d="M69.74,498.74c0,0,21.3-38.99,7.16-43.95c-9.34-3.28-12.38,33.19-12.38,33.19s-0.83-40.43-13.22-35.26
		c-9.36,3.9,3.14,33.09,3.14,33.09s-13.57-11.01-15.29-4.1c-2.72,10.99,12.9,17.23,12.9,17.23L69.74,498.74z"/>
	<path class="st3" d="M65.36,498.79l10.31-32.31c0.06-0.18-0.04-0.37-0.22-0.43c-0.18-0.06-0.37,0.04-0.43,0.22L64.65,498.8
		L65.36,498.79z"/>
	<path class="st3" d="M62.67,498.82l-7.39-35.22c-0.04-0.19-0.22-0.3-0.4-0.27c-0.18,0.04-0.3,0.22-0.26,0.4l7.36,35.09
		L62.67,498.82z"/>
	<path class="st3" d="M58.88,498.86l-14.04-12.08c-0.14-0.13-0.36-0.11-0.48,0.03c-0.13,0.14-0.11,0.36,0.03,0.48l13.46,11.58
		L58.88,498.86z"/>
	<path class="st2" d="M153.35,313.06c6.28,2.08,13.03,2.99,19.85,2.7c5.24-0.23,10.05-0.23,12.69-6.16
		c5.3-11.87,4.19-25.83-0.72-36.24c-0.93-1.97-2.03-3.78-3.21-5.53c-2.41-4.47-5.56-8.41-9.42-11.55
		c-7.18-5.83-16.07-8.77-25.24-10.22c-4.53-0.71-9.14-1.07-13.77-1.29c-5.63-0.27-12.07,0.36-16.09-4.01
		c-0.9-0.98-2.36,0.01-2.53,1.31c-1.09,8.3-2.17,16.71-1.29,24.83c0.84,7.82,3.78,14.69,7.94,20.72
		C129.49,299.12,140.27,308.71,153.35,313.06z"/>
	<path class="st3" d="M150.51,310.66c3.86-2.68,8.42-3.16,12.86-1.84c2.51,0.74,4.84,1.34,7.48,1.19c2.53-0.14,5.01-0.76,7.46-1.39
		c-2.47-4.29-5.06-8.52-8.05-12.47c-0.08-0.1-0.16-0.2-0.24-0.3c-12.32-1.34-23.42,6.41-35.71,5.8c-0.9-0.04-0.91-1.44,0-1.4
		c11.89,0.59,22.67-6.65,34.53-5.91c-3.73-4.54-8.08-8.46-12.72-12.08c-1.56-1.22-3.13-2.43-4.7-3.63
		c-3.31,0.15-6.39,1.31-9.58,2.08c-2.79,0.67-5.56,0.85-8.41,0.49c-5.69-0.71-11.04-3.01-16.74-3.68c-0.88-0.1-0.9-1.5,0-1.4
		c5.59,0.66,10.84,2.84,16.4,3.63c3.26,0.47,6.37,0.16,9.54-0.69c2.38-0.64,4.72-1.36,7.15-1.68c-5.26-4.01-10.52-8.02-15.45-12.42
		c-7.61-0.8-15.75-2.1-20.54-8.74c-0.53-0.73,0.68-1.44,1.2-0.72c4.09,5.67,11.02,7.1,17.59,7.87c-1.84-1.7-3.64-3.47-5.35-5.32
		c-4.69-5.06-8.8-10.61-11.96-16.76c-0.41-0.8,0.79-1.52,1.2-0.72c4.56,8.88,11.11,16.38,18.43,23.05c0.35,0.05,0.55,0.29,0.62,0.57
		c0.77,0.7,1.56,1.38,2.35,2.07c0.27-2.11,0.26-4.22,0.06-6.32c-0.45-4.7-1.85-9.35-3.21-13.85c-0.27-0.86,1.08-1.24,1.34-0.37
		c2.13,6.99,4.21,14.25,3.06,21.61c0.62,0.53,1.25,1.05,1.89,1.57c3.56,2.91,7.29,5.64,10.98,8.42c0.03,0.01,0.05,0.03,0.07,0.05
		c1.98,1.49,3.95,2.99,5.87,4.53c2.02-5.12,0.84-10.71-0.48-15.87c-1.43-5.63-2.51-11.08-2.08-16.93c0.06-0.89,1.47-0.91,1.4,0
		c-0.23,3.26-0.12,6.52,0.44,9.74c0.55,3.14,1.48,6.19,2.2,9.29c1.12,4.89,1.62,9.97-0.35,14.7c4.03,3.31,7.84,6.85,11.13,10.96
		c2.06,2.57,3.92,5.28,5.68,8.06c3.89-5.26,2.74-12.3,1.69-18.34c-1.11-6.38-1.42-12.48,0.48-18.76c0.26-0.86,1.61-0.51,1.35,0.36
		c-1.03,3.41-1.55,6.93-1.43,10.49c0.13,3.91,1.06,7.73,1.61,11.6c0.79,5.48,0.63,11.39-2.92,15.9c1.92,3.11,3.72,6.3,5.52,9.48
		c0.44,0.78-0.76,1.51-1.2,0.72c-0.64-1.14-1.28-2.27-1.93-3.41c-4.46,1.15-9.07,2.2-13.64,1c-2.45-0.64-4.71-1.54-7.3-1.41
		c-2.48,0.12-4.83,0.98-6.86,2.39C150.49,312.37,149.77,311.18,150.51,310.66z"/>
	<path class="st5" d="M519.66,308.58c-7.03,5.21-15.94,7.71-24.32,5.16c6.05-3.97,10.94-9.24,13.41-16.08
		c5.1-14.07-5.23-29.83-20.91-26.04c-17.72,4.28-20.93,26.73-10.78,39.68c0.27,0.34,0.55,0.62,0.83,0.95
		c-4.15,1.34-8.46,2.15-12.83,2.57c-10.8-66.34-77.02-117.4-157.12-117.4c-26.31,0-51.07,5.58-72.91,15.34
		c-3.94-4.03-8.59-7.35-14.51-9.44c-16.01-5.65-33.43-4.27-49.08,1.7c-2.05,0.78-3.92,2.98-3.04,5.35
		c2.8,7.56,5.49,15.14,7.95,22.82c1.64,5.12,4.75,11.94,5.4,18.08c-7.1,8.01-39.57,53.84-55.16,66.37
		c-9.13,7.34-16.68,11.85-16.68,11.85c0.64,10.75,11.19,57.23,21.63,63.4c0,0,15.41-1.22,29.35-7.61
		c7.31,15.46,17.83,29.52,30.83,41.55c-1.92,9.46-14.34,44.22-12.48,50.45c3.28,11.02,24.88,15.97,34.34,17.96
		c15.24,3.21,32.09,4.15,44.75-6.41c6.89-5.75,11.09-13.54,14.52-21.8c11.3,2.19,23.03,3.39,35.09,3.39
		c9.55,0,18.87-0.76,27.96-2.15c-3.35,7.65-5.72,15.47,0.06,21.71c12.31,13.29,40.52,9.79,55.85,6.67
		c19.71-4.02,26.15-10.38,33.9-28.81c8.17-19.46,13.24-39.71,15.98-60.47c15.77-21.2,24.95-46.39,24.95-73.43
		c0-3.54-0.21-7.02-0.52-10.49c6.34-0.7,13.1-2.21,19.41-4.68c11.7,7.01,27.2,5.74,38.52-2.65
		C528.49,312.79,524.16,305.24,519.66,308.58z M486.43,308.54c-2.22-2.09-4.12-4.34-5.41-7.13c-1.68-3.62-1.93-7.63-0.6-11.73
		c2.09-8.03,6.69-12.59,13.86-11.51c6.02,0.91,8.54,6.11,7.56,12.09C499.16,306.71,487.16,308.14,486.43,308.54z"/>
	<path class="st6" d="M284.7,231.37c24.62-7.5,51.51-5.24,74.44,6.52c4.95,2.54,9.35-4.93,4.37-7.48
		c-24.96-12.81-54.24-15.58-81.12-7.4C277.08,224.63,279.35,233,284.7,231.37L284.7,231.37z"/>
	<path class="st6" d="M192.62,431.08c10.86,9.86,22.1,18.42,35.21,25.08c13.26,6.73,26.24,12.22,41.16,13.88
		c3.55,0.39,3.52-5.17,0-5.56c-14.31-1.59-26.88-7.23-39.56-13.73c-12.24-6.28-22.72-14.38-32.87-23.59
		C193.91,424.76,189.96,428.67,192.62,431.08L192.62,431.08z"/>
	<path class="st6" d="M339.57,470.54c19.01-2.5,38.66-8.63,55.55-17.75c8.53-4.6,17.28-9.7,24.91-15.7
		c8.08-6.34,13.98-15.47,20.28-23.47c2.19-2.78-1.72-6.74-3.93-3.93c-5.87,7.45-11.38,15.98-18.65,22.15
		c-7.05,5.98-15.73,10.77-23.78,15.25c-16.37,9.1-35.8,15.44-54.38,17.89C336.08,465.44,336.03,471.01,339.57,470.54L339.57,470.54z
		"/>
	<path class="st7" d="M212.5,269.83c-10.71,0-10.73,16.38,0,16.38C223.2,286.21,223.22,269.83,212.5,269.83z"/>
	<path class="st6" d="M120.71,354.09c-1.33-4.95-2.54-9.95-4.44-14.72c-1.3-3.27-3.2-7.38-6.32-9.48
		c0.8,10.79,10.23,52.28,20.02,61.7C128.2,378.82,124.08,366.64,120.71,354.09z"/>
	<path class="st2" d="M545.64,498.94c0,0-16.48-24.43-5.98-33.78c6.44-5.74,9.59,12.63,9.59,12.63s3.65-35.05,15.52-27.66
		c5.81,3.62-6.39,35.95-6.39,35.95s8.68-16.81,15.53-12.19c11.06,7.45-15.29,24.81-15.29,24.81L545.64,498.94z"/>
	<path class="st3" d="M551.92,498.82l8.52-39.7c0.05-0.22-0.09-0.43-0.31-0.48c-0.22-0.04-0.44,0.09-0.48,0.31l-8.56,39.89
		L551.92,498.82z"/>
	<path class="st3" d="M556.45,498.74l15.69-19.07c0.14-0.17,0.12-0.42-0.05-0.57c-0.17-0.14-0.43-0.12-0.57,0.06l-16.13,19.6
		L556.45,498.74z"/>
	<path class="st3" d="M549.02,498.88l-6.45-29.09c-0.05-0.22-0.26-0.36-0.48-0.31c-0.22,0.05-0.36,0.26-0.31,0.48l6.41,28.93
		L549.02,498.88z"/>
	<path class="st8" d="M304.02,149.92c0.55,0.29,1.08,0.61,1.62,0.94c0.5,0.31,1.38,1.1,2.02,0.61c0.58-0.45,0.06-1.16-0.27-1.57
		c-0.7-0.84-1.48-1.82-2.45-2.36c-1.02-0.58-2.22-0.58-3.32-0.9c-1.38-0.39-2.47-1.31-3.09-2.61c-1.8,1.19-4.01,2.72-5.36,3.68
		c0.46,0.97,1.25,1.77,1.57,2.81c0.31,1.02,0.31,2.1,0.64,3.12c0.57,1.77,1.7,3.31,3,4.63c0.42,0.43,0.99,1.06,1.68,0.87
		c0.19-0.06,0.36-0.34,0.49-0.37c0.21-0.05,0.54,0.22,0.78,0.29c0.47,0.14,1.12,0.22,1.52-0.15c0.39-0.36,0.26-0.83,0.02-1.22
		c0.66,0.43,1.68,0.95,2.33,0.69c0.56-0.23,0.4-0.78,0.16-1.2c0.62,0.33,1.36,0.62,2.02,0.25c0.56-0.31,0.44-0.86,0.16-1.34
		c-0.42-0.75-1.22-1.2-1.84-1.77c-0.95-0.87-1.37-2.15-1.75-3.35c-0.09-0.3-0.21-0.61-0.27-0.92
		C303.6,149.64,303.66,149.72,304.02,149.92z"/>
	<path class="st9" d="M289.81,127.64c-2.01-3.28-2.14-6.62-2.41-10.3h-12.95c0,0,0.25,5.67,0.38,5.59c0.42,3.47,1.33,6.85,3.43,9.74
		c1.97,2.72,4.4,5.15,6.61,7.67c2.58,2.93,5.08,5.95,7.9,8.65c1.75-2.21,4.04-3.56,6.83-4.03c-1.23-3.07-2.65-6.06-4.29-8.93
		C293.62,133.13,291.56,130.5,289.81,127.64z"/>
	<path class="st10" d="M244.59,164.05c0.66,1.38,1.35,2.78,1.68,4.28c0.41,1.89,0.11,3.79-0.33,5.65c-1.38,5.78-1.76,11.52-1.2,17.5
		h11.69c0.01-3.19,2.41-14.05,3.27-16.22c0.81-2.02,1.78-3.99,2.36-6.1c1.23-4.4,0.1-9.14-0.66-13.54
		c-0.84-4.82-1.82-9.62-2.57-14.46c-0.78-5.02-1.26-10.08-1.12-15.16h-21.8c-2.85,9.99,0.56,20.58,4.76,29.8
		C241.93,158.57,243.28,161.3,244.59,164.05z"/>
	<path class="st11" d="M270.05,212.31c-0.28-1.46-1.29-2.44-2.44-3.22c-2.21-1.49-9.11-3.46-9.85-4.12
		c-1.42-1.26-1.68-3.33-1.61-5.14c0.13-3.84,0.62-7.7,0.95-11.53c0,0-4.86,1.18-13.17-0.16c0,0,0.56,6.87,0.85,10.31
		c0.14,1.68,0.28,3.36,0.15,5.05c-0.11,1.48-0.43,2.93-0.73,4.37c-0.3,1.44-0.59,2.9-0.63,4.37c-0.01,0.26-0.01,0.8-0.01,0.8
		c0.91,0.93,3.09,0.85,4.11,0.81c2.59-0.11,5.07-0.5,7.68-0.34c3.36,0.22,6.68,0.76,10.04,0.89c1.15,0.04,2.25,0.03,3.29-0.13
		C270.02,213.94,270.13,212.7,270.05,212.31z"/>
	<path class="st1" d="M235.88,164.52c0.66,1.38,1.34,2.78,1.67,4.28c0.41,1.89,0.11,3.79-0.33,5.65c-1.38,5.78-1.76,11.52-1.2,17.5
		h11.69c0.01-3.19,2.41-14.05,3.28-16.21c0.81-2.03,1.78-4,2.36-6.1c1.23-4.41,0.1-9.14-0.67-13.54c-0.84-4.82-1.82-9.62-2.57-14.46
		c-0.78-5.02-1.25-10.08-1.12-15.16h-21.8c-2.85,10,0.56,20.59,4.76,29.8C233.23,159.04,234.57,161.77,235.88,164.52z"/>
	<g>
		<g>
			<path class="st8" d="M291.58,92.36c1.02-0.93,1.66-1.61,1.66-1.61s1.58,1.59,3.53,0.68c0.03-0.01,12.13-7.51,14.8-4.61
				c3.17,3.44,1.56,7.9-1.53,11.34c-1.31,1.46-1.25,2.66-1.34,3.97c-0.03,0.52-0.8,0.75-1.1,0.26l-0.44-0.52
				c-0.1-0.12-0.27-0.13-0.39-0.04c-1.04,0.8-2.09,1.45-3.13,1.89c-2.45,1.02-4.42,2.89-7.02-0.73c-0.3-0.43-0.58-0.86-0.83-1.29
				l-6.26,6.29c-2.68-0.05-3.08-6.91-3.62-8.46c-0.09-0.26-0.99-3.91-0.74-4.02C287.53,94.43,289.99,93.82,291.58,92.36z"/>
			<path class="st12" d="M292.52,88.06c1.63-2.51,5.03-13.7,15.69-11.73c6.34,1.17,15.2,11.11,9.19,17.07
				c-3.3,3.28-7.13-3.16-14.69,0.59c0.05-0.04-0.31-1.43-0.69-1.49c1.57-1.08-2.42,1.22-5.33,1.32c-1.5,0.05-4.55-0.01-5.68-2.55
				C289.98,88.99,291.91,89.01,292.52,88.06z"/>
			<path class="st8" d="M300.11,91.53c-0.67,0.86-0.84,1.86,0,2.53c0.76,0.6,1.88,0.59,2.64-0.19c0.77-0.78,0.81-1.95,0.13-2.64
				C301.65,89.98,300.76,90.7,300.11,91.53z"/>
		</g>
	</g>
	<path class="st12" d="M261.35,212.78c-0.27-1.46-1.3-2.44-2.45-3.22c-2.21-1.49-9.11-3.46-9.85-4.11
		c-1.41-1.27-1.68-3.33-1.61-5.14c0.14-3.84,0.63-7.7,0.95-11.53c0,0-4.86,1.18-13.18-0.16c0,0,0.56,6.87,0.85,10.31
		c0.14,1.68,0.28,3.36,0.16,5.05c-0.11,1.48-0.43,2.93-0.73,4.37c-0.3,1.44-0.59,2.9-0.63,4.37c-0.01,0.26,0,0.8,0,0.8
		c0.92,0.94,3.09,0.86,4.12,0.82c2.58-0.12,5.07-0.51,7.68-0.34c3.35,0.22,6.67,0.76,10.03,0.89c1.15,0.05,2.25,0.03,3.29-0.13
		C261.31,214.42,261.42,213.17,261.35,212.78z"/>
	<path class="st13" d="M334.5,172.83c-5.33,11.19-18.73,15.94-29.92,10.61c-11.19-5.33-15.94-18.73-10.61-29.92
		c5.33-11.19,18.73-15.94,29.92-10.61C335.08,148.24,339.83,161.64,334.5,172.83z"/>
	<path class="st14" d="M327.81,169.53c-3.56,7.47-12.51,10.64-19.98,7.08c-7.48-3.56-10.65-12.51-7.09-19.98
		c3.56-7.48,12.51-10.65,19.98-7.09C328.21,153.11,331.38,162.06,327.81,169.53z"/>
	<path class="st13" d="M318.52,169.59c1.32-2.77-0.01-4.83-1.31-6.31l-1.79-2.06c-1.09-1.22-1.76-2.11-1.24-3.19
		c0.62-1.32,2.1-1.19,3.27-0.64c1.21,0.58,2.05,1.51,2.57,2.86l0.21,0.55l2.64-1.23l-0.16-0.46c-0.52-1.55-1.56-2.9-2.91-3.83
		l0.65-1.36l-2.18-1.04l-0.64,1.35c-2.73-0.8-5.4,0.17-6.51,2.49c-0.96,2.02-0.53,4.02,1.33,6.13l1.77,2.06
		c1.2,1.39,1.8,2.17,1.22,3.39c-0.61,1.28-2.01,1.55-3.75,0.73c-1.42-0.68-2.55-2.01-3.1-3.67l-0.19-0.57l-2.85,1.23l0.16,0.48
		c0.67,2.02,2,3.68,3.79,4.78l-0.63,1.32l2.18,1.04l0.65-1.37C314.63,173.11,317.32,172.11,318.52,169.59z"/>
	<path class="st8" d="M299.44,153.46c0.58,0.22,1.15,0.46,1.72,0.72c0.53,0.24,1.51,0.91,2.08,0.35c0.52-0.52-0.08-1.16-0.47-1.52
		c-0.8-0.75-1.7-1.61-2.73-2.03c-1.09-0.44-2.28-0.29-3.41-0.46c-1.42-0.21-2.62-0.98-3.4-2.19c-1.63,1.41-3.63,3.22-4.83,4.34
		c0.58,0.91,1.47,1.59,1.92,2.59c0.44,0.97,0.57,2.04,1.03,3.01c0.79,1.68,2.12,3.07,3.57,4.2c0.48,0.37,1.13,0.93,1.78,0.65
		c0.18-0.08,0.31-0.38,0.44-0.42c0.2-0.08,0.56,0.14,0.81,0.19c0.49,0.08,1.14,0.07,1.49-0.34c0.34-0.41,0.15-0.86-0.14-1.22
		c0.72,0.34,1.78,0.73,2.4,0.38c0.52-0.3,0.29-0.83,0-1.21c0.66,0.24,1.43,0.44,2.04-0.02c0.51-0.38,0.32-0.9-0.02-1.35
		c-0.52-0.69-1.36-1.03-2.05-1.51c-1.06-0.74-1.64-1.96-2.17-3.1c-0.13-0.28-0.28-0.58-0.38-0.87
		C298.99,153.23,299.05,153.31,299.44,153.46z"/>
	<path class="st2" d="M290.66,140.4c-1.66-2.91-3.73-5.55-5.48-8.4c-2.1-3.43-2.15-6.91-2.44-10.79c-0.02-0.24-0.06-0.48-0.08-0.72
		c1.41-0.65,2.86-1.29,4.08-2.23c1.21-0.94,2.03-2.25,2.48-3.7c0.89-2.87,0.46-4.55,0.5-6.79c0,0-1.37-3.76-1.5-4.65
		c-0.44-2.92,0.81-9.05-1.74-8.8c-14.68-4.05-30.88-1.2-43.02,8.11c-5.63,4.32-10.32,9.85-13.65,16.12
		c-0.74,1.39-3.84,7.93-3.79,9.49c0.01,0.56,14.67,8.02,19.05,9.3c2.19,0.64,12.37,1.79,14.91,3.4c1.47-5.07,4.55-9.54,8.87-12.59
		c0.44-0.31,0.9-0.59,1.36-0.86c0.42,3.48,1.33,6.85,3.43,9.74c1.96,2.72,4.4,5.15,6.61,7.66c2.58,2.93,5.08,5.94,7.9,8.65
		c1.75-2.21,4.04-3.57,6.82-4.03C293.72,146.25,292.3,143.27,290.66,140.4z"/>
	<path class="st4" d="M285.14,94.25c1.04,2.5,0.61,5.38,1.07,8.02c0.41,2.38,1.27,4.66,2.8,6.55c0.07,0.09,0.2-0.04,0.13-0.13
		c-1.61-1.99-2.45-4.43-2.83-6.93c-0.37-2.5,0-5.18-1-7.55C285.27,94.09,285.09,94.14,285.14,94.25L285.14,94.25z"/>
	<path class="st4" d="M282.78,120.33c0.79-5.74,1.54-11.78-0.92-17.24c-0.05-0.11-0.21-0.01-0.16,0.09
		c2.44,5.41,1.68,11.42,0.9,17.1C282.59,120.4,282.77,120.45,282.78,120.33L282.78,120.33z"/>
	<path class="st4" d="M270.2,127.14c-0.53-2.9-1.06-5.82-1.59-8.72c-0.57-3.09-1.18-6.17-0.93-9.33c0.22-2.72,0.94-5.53,2.63-7.73
		c1.71-2.22,4.5-3.62,7.32-3.08c0.12,0.02,0.17-0.15,0.05-0.18c-2.42-0.46-4.86,0.45-6.61,2.13c-1.97,1.88-2.96,4.58-3.38,7.22
		c-0.52,3.22-0.1,6.37,0.48,9.55c0.62,3.39,1.24,6.79,1.86,10.18C270.05,127.31,270.22,127.26,270.2,127.14L270.2,127.14z"/>
	<g>
		
			<rect x="438.35" y="380.4" transform="matrix(0.9865 -0.164 0.164 0.9865 -66.9977 78.0319)" class="st12" width="1.59" height="128.86"/>
	</g>
	<g>
		
			<rect x="399.56" y="380.4" transform="matrix(0.9865 -0.164 0.164 0.9865 -67.5232 71.6714)" class="st12" width="1.59" height="128.86"/>
	</g>
	<g>
		<rect x="394.29" y="407.49" class="st12" width="39.14" height="1.59"/>
	</g>
	<g>
		<rect x="397.06" y="424.46" class="st12" width="39.14" height="1.59"/>
	</g>
	<g>
		<rect x="399.84" y="441.43" class="st12" width="39.14" height="1.59"/>
	</g>
	<g>
		<rect x="402.61" y="458.41" class="st12" width="39.14" height="1.59"/>
	</g>
	<g>
		<rect x="405.38" y="475.38" class="st12" width="39.14" height="1.59"/>
	</g>
	<g>
		<rect x="408.15" y="492.35" class="st12" width="39.14" height="1.59"/>
	</g>
	<g>
		
			<rect x="313.65" y="444.03" transform="matrix(0.1648 -0.9863 0.9863 0.1648 -122.9687 744.4407)" class="st4" width="128.86" height="1.59"/>
	</g>
	<g>
		
			<rect x="352.44" y="444.03" transform="matrix(0.1646 -0.9864 0.9864 0.1646 -90.5176 782.7783)" class="st4" width="128.86" height="1.59"/>
	</g>
	<g>
		<rect x="383.79" y="407.49" class="st4" width="39.14" height="1.59"/>
	</g>
	<g>
		<rect x="381.02" y="424.46" class="st4" width="39.14" height="1.59"/>
	</g>
	<g>
		<rect x="378.25" y="441.43" class="st4" width="39.14" height="1.59"/>
	</g>
	<g>
		<rect x="375.48" y="458.41" class="st4" width="39.14" height="1.59"/>
	</g>
	<g>
		<rect x="372.71" y="475.38" class="st4" width="39.14" height="1.59"/>
	</g>
	<g>
		<rect x="369.94" y="492.35" class="st4" width="39.14" height="1.59"/>
	</g>
	<rect x="385.48" y="379.29" class="st4" width="47.73" height="4.77"/>
	<path class="st13" d="M406.78,246.88c5.12,16.17-3.84,33.43-20,38.55c-16.17,5.12-33.43-3.84-38.55-20.01
		c-5.12-16.17,3.84-33.42,20.01-38.55C384.4,221.76,401.66,230.72,406.78,246.88z"/>
	<path class="st14" d="M397.02,249.83c3.42,10.79-2.57,22.32-13.36,25.74c-10.8,3.42-22.32-2.56-25.74-13.36
		c-3.42-10.79,2.56-22.32,13.36-25.74C382.07,233.05,393.59,239.03,397.02,249.83z"/>
	<path class="st13" d="M387.78,258.57c-1.27-4-4.51-4.82-7.2-5.08l-3.72-0.38c-2.22-0.21-3.72-0.47-4.21-2.02
		c-0.6-1.9,0.99-3.15,2.68-3.69c1.74-0.55,3.46-0.4,5.24,0.45l0.72,0.35l1.49-3.7l-0.59-0.32c-1.97-1.06-4.27-1.44-6.49-1.11
		l-0.62-1.97l-3.15,1l0.62,1.95c-3.47,1.75-5.24,5.21-4.17,8.57c0.92,2.91,3.23,4.51,7.05,4.88l3.7,0.41
		c2.49,0.26,3.82,0.49,4.38,2.26c0.59,1.85-0.56,3.43-3.06,4.22c-2.05,0.65-4.43,0.37-6.53-0.77l-0.72-0.39l-1.7,3.9l0.61,0.33
		c2.55,1.39,5.44,1.82,8.26,1.24l0.6,1.9l3.15-1l-0.62-1.99C387.18,265.72,388.93,262.21,387.78,258.57z"/>
	<path class="st6" d="M406.3,294.18c0-0.01,20.61,4.74,20.61,4.74c2.44,8.98-2.77,14.76-2.74,30.91c0.02,9.58-0.31,19.12-0.69,28.52
		h-5.95h-4.49h-5.58c-0.56-3.85-0.69-8.57-2.05-17.65c-1.17-7.78-2.43-15.86-2.95-21.24c-0.91-9.48-1.33-22.1-2.14-27.43
		L406.3,294.18z"/>
	<g>
		<path class="st15" d="M397.27,280.79c-3.52,0.34-8.06-1.64-11.32-2.08c-1.67-0.23-0.81,1.3,1.71,3c1.74,1.18-11.6,0.41-7.43,3.83
			c2.8,8.95,9.54,1.12,18.46,1.91C398.32,285.82,397.63,282.42,397.27,280.79z"/>
	</g>
	<path class="st15" d="M424.32,220.65c1.05-0.52,2.06-0.88,2.81-2.45c1.76-3.71,3.86-4.33,7.79-2.91c3.31,1.2,2.35,11.45,2.35,11.48
		c-0.04,1.03,0.49,1.71,0.98,2.13l1.42,0.52c0,0-0.6,0.86-1.01,2.02c-0.65,1.8-0.28,3.9-0.33,6.21c0,0.24-3.7,0.77-3.94,0.78
		c-1.47,0.09-6.2,0.48-7.18-1.71l1.97-5.24c-0.39-0.11-0.79-0.24-1.19-0.41c-2.6-1.1-3.19-3.34-3.22-5.67
		c-0.02-1.03,0.16-2.13,0.46-3.28c0.04-0.13-0.04-0.27-0.17-0.31l-0.58-0.18C423.98,221.56,423.9,220.86,424.32,220.65z"/>
	<path class="st12" d="M435.18,207.87c-1.32-0.38-1.43-2.15-4.85-1.02c-2.17,0.71-4.26,4.35-2.32,7.97c0.86,1.61,4.6,1.28,4.96,6.66
		c0.16,2.34,2.09-0.66,3.66-0.02c1.08,0.44,0.43,3.64-1.28,4.14c0,0-1.78,6.74,2.49,6.74c1.5,0,4.75-2.58,6.85-6.53
		C449.72,216.35,445.35,210.8,435.18,207.87z"/>
	<path class="st4" d="M442.71,247.67c-0.25-4-1.66-7.88-4.04-11.08c0.02-1.07-0.09-2.01-0.39-3.05c-2.35,0.19-9.67,0.46-10.03,0.62
		c-0.63,0.27-1.23,0.82-1.75,1.36c-6.32,3.54-12.77,10.35-15.34,17.13c-0.85,2.24-4.23,11.23-5.78,20.35
		c-0.08,0.45-0.12,1.58-0.12,1.58c-3.11,2.1-7.27,4.9-10.25,6.21c1.72,1.95,1.86,5.26,1.61,7.38c1.33,0.11,1.88-0.05,2.77-0.21
		c-0.47,1.56-1.19,4.67-1.19,4.67c2.46,0.78,18.19,8.38,20.54,9.05c2.4,0.68,9.59,4,9.59,4c1.81-5.12,2.34-11.43,3.21-16.79
		c1.23-7.65,5.88-23.23,8.12-27.39C441.76,257.63,442.99,252.12,442.71,247.67z"/>
	<g>
		<path class="st16" d="M413.02,358.14c-1.28-7.73-2.56-15.45-3.83-23.18c-0.32-1.96-0.62-3.93-0.78-5.91
			c-0.16-1.88-0.15-3.76-0.12-5.65c0.05-3.83-0.17-7.63-0.47-11.45c-0.34-4.33-0.67-8.65-1.01-12.99c-0.01-0.12-0.2-0.12-0.19,0
			c0.3,3.91,0.61,7.82,0.92,11.73c0.3,3.82,0.62,7.63,0.58,11.47c-0.02,1.93-0.08,3.85,0.02,5.77c0.1,1.86,0.34,3.71,0.63,5.56
			c0.59,3.83,1.25,7.65,1.88,11.47c0.73,4.4,1.45,8.81,2.18,13.22C412.86,358.31,413.04,358.26,413.02,358.14L413.02,358.14z"/>
	</g>
	<path class="st11" d="M394.73,378.17c0.24-1.29,1.15-2.16,2.16-2.85c1.96-1.32,8.07-3.07,8.73-3.64c1.25-1.12,1.48-2.95,1.43-4.56
		c-0.12-3.4-0.56-6.82-0.85-10.21c0,0,4.28,1.34,11.65,0.16c0,0-0.47,5.79-0.72,8.83c-0.12,1.49-0.26,2.98-0.14,4.47
		c0.1,1.31,0.38,2.59,0.64,3.88c0.27,1.27,0.52,2.56,0.56,3.87c0,0.23,0,0.72,0,0.72c-0.81,0.83-2.74,0.76-3.64,0.72
		c-2.29-0.1-4.49-0.45-6.8-0.3c-2.97,0.2-5.91,0.68-8.89,0.79c-1.02,0.04-1.99,0.03-2.91-0.12
		C394.76,379.62,394.66,378.52,394.73,378.17z"/>
	<path class="st12" d="M400.34,378.47c0.25-1.33,1.18-2.23,2.23-2.94c2.02-1.35,8.32-3.15,8.99-3.75c1.29-1.16,1.53-3.04,1.48-4.69
		c-0.12-3.5-0.58-7.02-0.87-10.52c0,0,4.44,1.08,12.02-0.14c0,0-0.52,6.27-0.77,9.41c-0.13,1.53-0.26,3.07-0.14,4.6
		c0.1,1.35,0.39,2.67,0.66,4c0.27,1.32,0.53,2.64,0.58,3.99c0,0.24,0,0.73,0,0.73c-0.84,0.85-2.82,0.78-3.75,0.74
		c-2.36-0.1-4.63-0.47-7.01-0.31c-3.06,0.2-6.09,0.7-9.16,0.81c-1.05,0.04-2.05,0.03-3-0.12
		C400.38,379.96,400.27,378.82,400.34,378.47z"/>
	<g>
		<path class="st17" d="M399.8,287.69c4.47-0.9,9.03-1.75,13.3-3.41c3.54-1.38,6.97-3.6,8.72-7.09c0.93-1.85,1.11-3.93,1.76-5.87
			c0.75-2.24,2.02-4.28,3.09-6.38c2.05-4.03,3.88-8.21,5.31-12.51c1.33-4.02,1.99-9.13-1.52-12.28c-0.09-0.08-0.23,0.05-0.14,0.14
			c3.34,3.01,2.83,7.85,1.59,11.72c-1.33,4.16-3.1,8.22-5.05,12.12c-0.98,1.97-2.13,3.87-3,5.9c-0.78,1.84-1.03,3.81-1.65,5.7
			c-1.26,3.81-4.59,6.39-8.15,7.95c-4.51,1.98-9.51,2.86-14.31,3.83C399.63,287.53,399.68,287.72,399.8,287.69L399.8,287.69z"/>
	</g>
	<g>
		<path class="st17" d="M405.56,274.19c1.39-1.32,2.77-2.69,3.5-4.51c0.76-1.93,1.11-4.03,1.76-6c1.3-4,3.06-7.86,5.22-11.48
			c1.25-2.11,2.64-4.13,4.16-6.06c0.08-0.1-0.06-0.23-0.13-0.14c-5.08,6.47-8.55,13.85-10.62,21.79c-0.33,1.26-0.73,2.47-1.49,3.53
			c-0.72,1.01-1.62,1.88-2.52,2.73C405.34,274.14,405.47,274.28,405.56,274.19L405.56,274.19z"/>
	</g>
	<path class="st2" d="M318.29,506.11c0,0-27.71-52.1-5.2-51.55c9.25,0.23,17.25,41.65,17.25,41.65s-1.82-37.8,16.7-31.86
		c10.01,3.21-5.14,31.86-5.14,31.86s13.72-18.5,21.44-13.25c12.58,8.56-10.5,23.29-10.5,23.29L318.29,506.11z"/>
	<path class="st2" d="M306.14,506.06c0,0-4.88-27.58-15.61-27.11c-7.68,0.34-0.75,19.01,5.76,27.09
		C296.28,506.04,305.84,506.06,306.14,506.06z"/>
	<path class="st3" d="M325.02,506.14l-11.54-40.82c-0.08-0.28-0.36-0.44-0.64-0.36c-0.27,0.08-0.43,0.36-0.35,0.64l11.46,40.54
		L325.02,506.14z"/>
	<path class="st3" d="M334.57,506.18l8-33.04c0.07-0.27-0.11-0.55-0.38-0.62c-0.28-0.06-0.56,0.1-0.62,0.38l-8.06,33.28
		L334.57,506.18z"/>
	<path class="st3" d="M301.08,506.04l-7.38-18.42c-0.11-0.27-0.41-0.39-0.67-0.29c-0.26,0.1-0.39,0.41-0.29,0.67l7.23,18.04
		L301.08,506.04z"/>
	<path class="st3" d="M343.07,506.22l14.53-16.39c0.19-0.21,0.17-0.54-0.05-0.73c-0.21-0.19-0.53-0.17-0.73,0.04l-15.14,17.07
		L343.07,506.22z"/>
	<path class="st8" d="M236.79,376.82c-0.32-0.33-1.41-1.36-1.81-0.64c-0.08,0.15-0.08,0.32-0.05,0.48c-0.3-0.36-0.69-0.68-1.14-0.78
		c-0.53-0.12-0.86,0.27-0.78,0.77c-0.09-0.08-0.18-0.15-0.28-0.21c-0.21-0.12-0.48-0.27-0.72-0.28c-0.53-0.03-0.62,0.56-0.52,0.97
		c-0.17-0.1-0.34-0.18-0.54-0.15c-0.19,0.03-0.34,0.17-0.38,0.36c-0.13,0.52,0.32,1.03,0.61,1.41c0.08,0.1,0.15,0.21,0.21,0.32
		c-0.38,0.13-0.78,0.21-1.18,0.25c-0.79,0.07-1.56,0.01-2.35-0.16c-0.65-0.14-1.26-0.27-1.93-0.17c-1.39,0.2-2.56,1.12-3.68,1.89
		c-2.73,1.9-5.55,3.66-8.44,5.29l2.64,4.33c2.14-1.67,4.27-3.39,6.59-4.8c1.13-0.69,2.31-1.3,3.58-1.68
		c1.27-0.39,2.54-0.46,3.86-0.42c1.21,0.04,2.46,0.11,3.63-0.26c1.03-0.33,1.89-1.01,2.63-1.78c0.58-0.6,1.49-1.42,1.45-2.33
		C238.12,378.36,237.37,377.42,236.79,376.82z"/>
	<path class="st8" d="M193.12,487.76h8.82c-0.06-1.01-0.11-2.02-0.1-3.04c0.02-3.48,0.41-6.97,0.86-10.42
		c0.43-3.33,1.11-6.58,2.3-9.72c0.63-1.67,1.33-3.33,1.71-5.09c0.29-1.35,0.36-2.73,0.25-4.1H194.4c0.15,2.47,0.3,4.93-0.51,7.31
		c-0.44,1.29-0.92,2.55-1.24,3.87c-0.31,1.29-0.52,2.59-0.64,3.91c-0.55,5.53,0.27,11.1,1,16.57
		C193.04,487.29,193.08,487.52,193.12,487.76z"/>
	<path class="st4" d="M202.05,487.76c0.1-0.87,0.19-1.74,0.28-2.61c0,0-2.67,0.29-9.96-0.11c0,0,0.11,1.22,0.25,2.72H202.05z"/>
	<path class="st18" d="M212.42,505.42c-0.21-1.13-1-1.89-1.89-2.48c-1.71-1.15-7.03-2.67-7.6-3.18c-1.09-0.98-1.3-2.56-1.24-3.97
		c0.1-2.97,0.48-5.94,0.73-8.9c0,0-3.75,0.91-10.17-0.13c0,0,0.43,5.31,0.65,7.96c0.1,1.29,0.22,2.6,0.12,3.9
		c-0.09,1.14-0.33,2.26-0.56,3.38c-0.23,1.11-0.45,2.24-0.49,3.38c-0.01,0.2,0,0.62,0,0.62c0.71,0.72,2.38,0.66,3.18,0.62
		c1.99-0.08,3.92-0.39,5.93-0.26c2.59,0.17,5.15,0.59,7.75,0.69c0.89,0.03,1.74,0.02,2.54-0.1
		C212.39,506.68,212.48,505.73,212.42,505.42z"/>
	<path class="st8" d="M178.03,487.76h8.82c-0.06-1.01-0.11-2.02-0.1-3.04c0.02-3.48,0.41-6.97,0.86-10.42
		c0.44-3.33,1.11-6.58,2.3-9.72c0.63-1.67,1.33-3.33,1.71-5.09c0.29-1.35,0.36-2.73,0.25-4.1h-12.54c0.15,2.47,0.3,4.93-0.51,7.31
		c-0.44,1.29-0.92,2.55-1.24,3.87c-0.31,1.29-0.51,2.59-0.64,3.91c-0.55,5.53,0.27,11.1,1,16.57
		C177.96,487.29,178,487.52,178.03,487.76z"/>
	<path class="st4" d="M186.97,487.76c0.1-0.87,0.19-1.74,0.28-2.61c0,0-2.67,0.29-9.96-0.11c0,0,0.11,1.22,0.25,2.72H186.97z"/>
	<path class="st19" d="M197.34,505.42c-0.21-1.13-1-1.89-1.89-2.48c-1.71-1.15-7.04-2.67-7.6-3.18c-1.09-0.98-1.29-2.56-1.24-3.97
		c0.1-2.97,0.48-5.94,0.73-8.9c0,0-3.75,0.91-10.17-0.13c0,0,0.43,5.31,0.65,7.96c0.11,1.29,0.22,2.6,0.12,3.9
		c-0.09,1.14-0.33,2.26-0.56,3.38c-0.23,1.11-0.45,2.24-0.49,3.38c-0.01,0.2,0,0.62,0,0.62c0.71,0.72,2.39,0.66,3.17,0.62
		c2-0.08,3.92-0.39,5.93-0.26c2.59,0.17,5.15,0.59,7.74,0.69c0.89,0.03,1.74,0.02,2.54-0.1
		C197.31,506.68,197.39,505.73,197.34,505.42z"/>
	<path class="st8" d="M188.16,371.84c2.97-0.22,9.42-8.2,8.99-8.17c-2.78-0.76-3.76-0.6-5.61-0.94c-0.98-0.18-1.74-0.95-1.83-1.95
		l-0.16-1.78c2.16-0.3,3.99-2.26,5.23-4.66c1.02-1.97,1.86-4.42,1.79-6.92c0,0-0.01-0.29-0.02-0.43
		c-0.36-6.21-3.41-10.91-9.17-10.75c-5.01,0.14-8.99,5.39-9.37,11.61c-0.17,2.91,1.75,7.24,2.37,7.82l0.49,5.79
		c0.08,0.98-0.55,1.63-1.42,2.23c-1.13,0.78-3.82,1.7-5.39,2.17C174.06,365.87,181.78,372.31,188.16,371.84z"/>
	<path class="st4" d="M216.45,384.59c-2.1,0.04-2.95,0.89-4,0.22c-1.08-0.69-1.81-1.82-2.49-2.88c-1.46-2.29-2.42-4.83-3.82-7.15
		c-0.66-1.1-1.42-2.15-2.07-3.27c-0.67-1.15-1.28-2.35-1.98-3.49c-0.22-0.53-0.48-1.05-0.84-1.54c-1.85-2.58-5.98-3.62-8.65-3.59
		c0.3,2.17-1.22,5.08-4.77,5.5c-4.26,0.5-8.6-0.31-10.93-3.51c0,0-5.18,1.35-6.29,3.41c-1.37,2.55-0.85,5.62,0.11,8.22
		c0.56,1.49,2.93,7.47,3.3,9.05c0.56,2.4,1.03,4.91,2.19,7.11c-0.37,7.71-2.16,15.27-3.06,22.93c-1.01,8.49-1.93,32.43-1.52,40.16
		c0,0,10.93,1.61,16.17,2.22c5.41,0.63,10.69,0.11,16.05-0.66c3.16-0.46,6.31-0.92,9.47-1.37c-0.91-8.23-3.05-16.23-5.08-24.23
		c-2.08-8.16-3.82-16.36-4.73-24.74c-0.16-1.51-0.51-6.4-0.61-7.34c-0.14-2.31-0.22-4.62-0.26-6.93c0-0.17,0.4-3.6,0.82-4.47
		c1.99,2.51,4.43,4.8,7.71,5.28c1.65,0.25,3.43-0.04,4.85-0.97c1.73-1.14,2.88-3.19,4.1-4.78
		C217.95,387.5,216.45,384.59,216.45,384.59z"/>
	<path class="st20" d="M196.99,340.04c-0.44-1.67-1.54-3.19-3.17-3.79c-1.28-1.99-3.78-2.71-6.02-2.9c-2.53-0.22-5.8-0.6-8.33,1.1
		c-1.09,0.73-2.17,1.63-3.78,4.63c-1.18,2.22-2.13,5.93-1.54,8.26c0.31,1.28,0.87,2.52,1.72,3.53c0.04,0.05,0.08,0.08,0.12,0.12
		c-1.28,0.18-2.46,1.22-3.16,2.2c-0.87,1.26-1.44,3.17-0.83,4.65c0.33,0.79,1.03,1.39,1.77,1.78c0.82,0.43,1.63,0.47,2.53,0.34
		c0.92-0.14,3.66-1.3,4.26-2.05l-0.19-2.24c0.38-1.08-0.06-3.41-0.13-3.8c0.3-1.36,1.06-2.59,1.84-3.74c0.56-0.83,1.16-1.61,2-2.16
		c0.76-0.49,1.61-0.83,2.42-1.22c2.45-1.18,4.98-2.86,5.77-5.52c0.83,0.89,1.61,1.82,2.18,2.93c0.82,1.61,1.63,4.24,2.09,5.98
		c0,0,0.34-0.61,0.37-0.91C197.17,344.88,197.62,342.38,196.99,340.04z"/>
	<path class="st21" d="M176.46,392.73c0.91,1.76,2.59,3.07,4.56,3.43c2.23,0.42,4.74-0.25,6.82-1.04c3.63-1.37,6.31-4.45,8.86-7.28
		c1.61-1.78,3.09-3.69,4.28-5.78c0.06-0.1,0.2-0.01,0.15,0.08c-2.04,3.59-4.93,6.55-7.82,9.46c-1.6,1.6-3.3,2.87-5.43,3.68
		c-2.05,0.78-4.51,1.42-6.71,1.07c-2.08-0.33-3.89-1.69-4.86-3.55C176.26,392.71,176.41,392.63,176.46,392.73L176.46,392.73z"/>
	<path class="st21" d="M176.54,367.65c2.31,2.34,3.81,5.32,4.66,8.48c0.48,1.78,0.67,3.63,1.34,5.37c0.67,1.75,1.66,3.37,2.25,5.15
		c0.04,0.1-0.13,0.15-0.16,0.05c-0.57-1.71-1.49-3.26-2.16-4.92c-0.67-1.66-0.89-3.42-1.32-5.15c-0.82-3.3-2.34-6.43-4.74-8.86
		C176.34,367.69,176.46,367.57,176.54,367.65L176.54,367.65z"/>
	<path class="st21" d="M182.1,389.37c1.39-2.61,4.31-3.5,6.77-4.76c2.78-1.43,5.22-3.42,7.4-5.66c0.08-0.08,0.2,0.04,0.12,0.12
		c-2.01,2.07-4.25,3.93-6.78,5.33c-2.58,1.44-5.87,2.25-7.36,5.05C182.2,389.55,182.05,389.47,182.1,389.37L182.1,389.37z"/>
	<path class="st21" d="M203.27,388.11c0.94-1.91,0.06-4.01-0.86-5.74c-0.05-0.1,0.09-0.18,0.15-0.08c0.96,1.79,1.83,3.93,0.86,5.91
		C203.36,388.29,203.22,388.2,203.27,388.11L203.27,388.11z"/>
	<path class="st21" d="M195.51,363.85c1.15,1.29,2.18,2.7,2.71,4.36c0.6,1.87,0.77,3.89,1.06,5.83c0.02,0.11-0.15,0.15-0.16,0.04
		c-0.28-1.82-0.46-3.7-0.96-5.47c-0.51-1.78-1.55-3.27-2.77-4.64C195.31,363.89,195.43,363.77,195.51,363.85L195.51,363.85z"/>
	<path class="st21" d="M212.67,385.09c-0.01-0.01-0.01-0.02-0.02-0.03c0.03,0.02,0.05,0.03,0.07,0.04
		c-0.13-0.02-0.37,0.28-0.45,0.36c-0.12,0.12-0.23,0.24-0.34,0.37c-0.24,0.28-0.44,0.59-0.61,0.92c-0.34,0.65-0.54,1.36-0.59,2.09
		c-0.01,0.11-0.18,0.11-0.17,0c0.06-0.85,0.31-1.67,0.74-2.4c0.14-0.24,1.23-1.82,1.51-1.44
		C212.89,385.09,212.74,385.18,212.67,385.09L212.67,385.09z"/>
	<path class="st21" d="M204.39,456.76c-1.5-11.19-2.92-22.39-4.26-33.6c-0.38-3.18-0.75-6.36-1.12-9.54c-0.01-0.11,0.16-0.11,0.17,0
		c1.29,11.22,2.66,22.42,4.12,33.62c0.41,3.17,0.83,6.34,1.26,9.51C204.58,456.87,204.41,456.87,204.39,456.76L204.39,456.76z"/>
	<path class="st21" d="M195.37,457.88c0.14-6.31,0.04-12.62-0.3-18.93c0-0.11,0.17-0.11,0.17,0c0.34,6.3,0.44,12.61,0.3,18.93
		C195.53,457.99,195.37,457.99,195.37,457.88L195.37,457.88z"/>
	<path class="st21" d="M181.18,456.35c-0.03-11.16-0.06-22.33-0.09-33.49c-0.01-3.15-0.02-6.31-0.03-9.47c0-0.11,0.17-0.11,0.17,0
		c0.03,11.16,0.06,22.32,0.09,33.49c0.01,3.15,0.02,6.31,0.03,9.47C181.35,456.46,181.19,456.46,181.18,456.35L181.18,456.35z"/>
	<path class="st13" d="M244.85,356.47c2.27,11.19-4.96,22.1-16.15,24.36c-11.19,2.27-22.1-4.97-24.37-16.15
		c-2.26-11.19,4.97-22.1,16.15-24.36C231.68,338.06,242.59,345.29,244.85,356.47z"/>
	<path class="st14" d="M238.1,357.74c1.51,7.47-3.32,14.75-10.79,16.27c-7.47,1.51-14.76-3.32-16.27-10.79
		c-1.51-7.47,3.32-14.76,10.79-16.27C229.31,345.44,236.59,350.27,238.1,357.74z"/>
	<path class="st13" d="M231.3,362.93c-0.56-2.77-2.68-3.55-4.46-3.92l-2.46-0.52c-1.48-0.3-2.46-0.58-2.68-1.66
		c-0.27-1.32,0.88-2.04,2.05-2.28c1.21-0.25,2.35-0.02,3.47,0.68l0.46,0.28l1.26-2.37l-0.37-0.25c-1.24-0.86-2.75-1.27-4.26-1.21
		l-0.27-1.36l-2.18,0.44l0.27,1.35c-2.45,0.92-3.88,3.11-3.41,5.44c0.41,2.02,1.84,3.25,4.36,3.77l2.45,0.54
		c1.65,0.35,2.52,0.6,2.77,1.82c0.26,1.28-0.62,2.26-2.35,2.61c-1.42,0.29-2.99-0.07-4.32-0.98l-0.45-0.31l-1.42,2.48l0.38,0.27
		c1.61,1.12,3.51,1.61,5.44,1.42l0.27,1.32l2.18-0.44l-0.28-1.37C230.38,367.67,231.81,365.45,231.3,362.93z"/>
	<path class="st8" d="M210.84,367.49c-0.08-0.14-0.2-0.23-0.33-0.28c0.01-0.09,0-0.19-0.06-0.29c-0.12-0.19-0.32-0.33-0.53-0.4
		c-0.02-0.01-0.05,0-0.07-0.01c0.05-0.18,0.03-0.37-0.15-0.48c-0.13-0.08-0.3-0.09-0.44-0.11c-0.01,0-0.02,0-0.02,0
		c0.08-0.53-0.61-0.62-1-0.63c-1.95-0.09-3.99,0.54-5.4,1.93c-0.63,0.62-1.14,1.39-1.43,2.23c-0.36,1.03-0.21,2.15-0.57,3.18
		c-0.6,1.72-4.02,5.66-4.5,6.29c0,0,3.16,1.12,4.77,3.1c0.57-1,1.14-2,1.71-3c0.57-1,1.09-1.92,2.07-2.58
		c1.31-0.88,2.63-1.79,3.08-3.4c0.24-0.84,0.15-1.8,0.58-2.58c0.42-0.74,1.23-1.01,1.82-1.58
		C210.71,368.56,211.11,367.98,210.84,367.49z"/>
</g>
</svg>
