<?xml version="1.0" encoding="utf-8"?>
<!-- Generator: Adobe Illustrator 27.9.0, SVG Export Plug-In . SVG Version: 6.00 Build 0)  -->
<svg version="1.1" xmlns="http://www.w3.org/2000/svg" xmlns:xlink="http://www.w3.org/1999/xlink" x="0px" y="0px"
	 viewBox="0 0 1500 1000" style="enable-background:new 0 0 1500 1000;" xml:space="preserve">
<style type="text/css">
	.st0{opacity:0.4;fill:#A8C4E5;}
	.st1{fill:#D7E8F7;}
	.st2{fill:#FFFFFF;}
	.st3{fill:#8A76B3;}
	.st4{fill:#DCF1FF;}
	.st5{fill:#EBD265;}
	.st6{fill:#68529D;}
	.st7{fill:#BABEE1;}
	.st8{fill:#F9986E;}
	.st9{fill:#FCCBB6;}
	.st10{fill:#FC7955;}
	.st11{fill:#FFD22D;}
	.st12{fill:#FFC2B0;}
	.st13{fill:#88BDEB;}
	.st14{fill:#283D75;}
	.st15{opacity:0.46;fill:#FFFFFF;}
	.st16{fill:#513554;}
	.st17{fill:#FCFEFF;}
	.st18{fill:#DBEFFF;}
	.st19{fill:#715154;}
	.st20{fill:#DCEFFF;}
	.st21{fill:#21275E;}
	.st22{fill:#D0E7F4;}
	.st23{fill:#EA8A6C;}
	.st24{fill:#A8C4E5;}
	.st25{fill:#E1EAF4;}
	.st26{fill:#D84177;}
	.st27{fill:#4367C7;}
	.st28{fill:#FFE47C;}
	.st29{opacity:0.51;fill:#FFFFFF;}
	.st30{fill:#DEA749;}
	.st31{fill:#324D94;}
	.st32{fill:#E4684F;}
	.st33{fill:#DB5442;}
	.st34{fill:#8585FF;}
	.st35{fill:#36475C;}
	.st36{opacity:0.43;fill:#FFFFFF;}
	.st37{fill:#4264BF;}
	.st38{fill:#715255;}
	.st39{fill:#E9E9FF;}
	.st40{fill:#A1A1E5;}
	.st41{fill:#565682;}
	.st42{fill:#6B6B9B;}
	.st43{fill:#45446C;}
	.st44{fill:#514677;}
	.st45{fill:#423A66;}
	.st46{fill:#BC4073;}
</style>
<g id="background">
</g>
<g id="image">
	<g>
		<path class="st0" d="M1135.13,816.69L953.03,918.32c-4.09,2.28-5.73,6.95-3.64,10.37c2.09,3.42,7.15,4.35,11.24,2.06
			l189.08-105.53L1135.13,816.69z"/>
		<path class="st0" d="M1051.6,784.2l-14.94-8.34l-167.71,93.6c-4.09,2.28-5.73,6.95-3.64,10.37c2.09,3.42,7.15,4.35,11.24,2.06
			L1051.6,784.2z"/>
		<path class="st0" d="M786.46,585.69l171.24-98.87c2.98-1.72,6.65-1.72,9.63,0L1374.67,722c6.42,3.7,6.42,12.97,0,16.67
			L1178.04,852.2L786.46,585.69z"/>
		<path class="st1" d="M556.64,31.07l42.77-24.12l33.81,48.67c0,0-32,39.22-33.73,40.56C597.77,97.54,556.64,31.07,556.64,31.07z"/>
		<path class="st1" d="M1223.98,806.69l6.37-405.67c0.26-18.14-9.88-38.91-22.63-46.4L616.44,7.56
			c-12.75-7.49-23.3,1.15-23.56,19.29l-5.76,408.4c-0.26,18.14,9.88,38.91,22.63,46.4L1153.83,801l-14.58,34.01l32.92,18.9
			l40.35-22.26C1219.39,827.05,1223.85,815.75,1223.98,806.69z"/>
		<path class="st2" d="M1157.26,852.52L565.98,505.46c-12.75-7.49-22.89-28.26-22.63-46.4l5.76-408.4
			c0.26-18.14,10.8-26.78,23.56-19.29l591.28,347.06c12.75,7.49,26.1,29.45,25.85,47.59l-8.97,407.21
			C1180.56,851.37,1170.01,860.01,1157.26,852.52z"/>
		<polygon class="st0" points="1152.27,532.52 546.07,176.7 549.23,46.21 1155.88,396.12 		"/>
		<polygon class="st3" points="1130.35,517.43 488.85,140.9 494.54,33.28 1133.68,408.43 		"/>
		<path class="st4" d="M547.18,113.1c-0.34,11.21-8.41,15.73-18.02,10.09c-9.61-5.64-17.12-19.3-16.78-30.52
			c0.34-11.21,8.41-15.73,18.02-10.09C540.01,88.22,547.53,101.89,547.18,113.1z"/>
		<path class="st5" d="M595.43,144.28c-0.34,11.21-8.41,15.73-18.02,10.09c-9.61-5.64-17.12-19.3-16.78-30.52
			c0.34-11.21,8.41-15.73,18.02-10.09C588.26,119.4,595.78,133.07,595.43,144.28z"/>
		<path class="st6" d="M643.69,175.12c-0.34,11.21-8.41,15.73-18.02,10.09c-9.61-5.64-17.12-19.3-16.78-30.52
			c0.34-11.21,8.41-15.73,18.02-10.09C636.52,150.24,644.04,163.9,643.69,175.12z"/>
		<path class="st2" d="M1057.65,402.23c4.06,17.09-6.44,27.27-23.42,22.69c-16.98-4.58-34.09-22.21-38.16-39.31
			c-4.06-17.09,6.44-27.27,23.42-22.69C1036.47,367.5,1053.58,385.14,1057.65,402.23z M1049.87,400.13
			c-3.04-12.78-15.83-25.95-28.52-29.38c-12.69-3.42-20.54,4.19-17.5,16.96c3.04,12.78,15.83,25.95,28.52,29.38
			C1045.05,420.52,1052.9,412.91,1049.87,400.13z"/>
		<path class="st2" d="M1069.69,452.68L1069.69,452.68c-2.47,1.79-5.9,1.27-7.62-1.14l-17.7-24.91c-1.72-2.42-1.1-5.85,1.38-7.64
			l0,0c2.47-1.79,5.9-1.27,7.62,1.14l17.7,24.91C1072.78,447.45,1072.16,450.89,1069.69,452.68z"/>
		<path class="st7" d="M716.12,533.24l-115.05-65.24c-5.86-3.32-10.39-12.05-10.11-19.49l7.25-196.17
			c0.27-7.44,5.25-10.78,11.11-7.46l115.05,65.24c5.86,3.32,10.39,12.05,10.11,19.49l-7.25,196.17
			C726.96,533.22,721.98,536.56,716.12,533.24z"/>
		<path class="st3" d="M709.66,353.73l-89.4-50.7c-4.26-2.41-7.55-8.75-7.35-14.16l0,0c0.2-5.41,3.81-7.83,8.07-5.42l89.4,50.7
			c4.26,2.41,7.55,8.75,7.35,14.16l0,0C717.53,353.72,713.92,356.14,709.66,353.73z"/>
		<polygon class="st2" points="716.12,392.09 614.24,334.32 614.82,318.83 716.69,376.6 		"/>
		<polygon class="st2" points="714.8,427.59 612.93,369.82 613.5,354.33 715.38,412.1 		"/>
		<polygon class="st2" points="713.49,463.09 611.62,405.32 612.19,389.83 714.07,447.6 		"/>
		<polygon class="st2" points="659.84,466.93 610.38,438.88 610.95,423.39 660.42,451.44 		"/>
		<path class="st7" d="M1082.48,777.48L774,591.11c-5.82-3.52-10.22-12.91-9.82-20.98l10.49-212.69c0.4-8.07,5.44-11.76,11.26-8.24
			l308.49,186.37c5.82,3.52,10.22,12.91,9.82,20.98l-10.49,212.69C1093.35,777.31,1088.3,781,1082.48,777.48z"/>
		<path class="st8" d="M1074.77,580.52L800.12,414.59c-4.23-2.56-7.43-9.38-7.14-15.24v0c0.29-5.86,3.95-8.54,8.18-5.99
			l274.65,165.93c4.23,2.56,7.43,9.38,7.14,15.24l0,0C1082.67,580.4,1079,583.08,1074.77,580.52z"/>
		<path class="st3" d="M1070.98,616.18l-107.09-64.7c-3.35-2.02-5.88-7.42-5.65-12.06l0,0c0.23-4.64,3.13-6.76,6.47-4.74
			l107.09,64.7c3.35,2.02,5.88,7.42,5.65,12.06l0,0C1077.23,616.08,1074.33,618.2,1070.98,616.18z"/>
		<path class="st3" d="M908.07,517.76l-107.09-64.7c-3.35-2.02-5.88-7.42-5.65-12.06l0,0c0.23-4.64,3.13-6.76,6.47-4.74l107.09,64.7
			c3.35,2.02,5.88,7.42,5.65,12.06l0,0C914.32,517.66,911.42,519.78,908.07,517.76z"/>
		<polygon class="st2" points="1075.14,658.33 955.93,586.31 956.76,569.51 1075.97,641.54 		"/>
		<polygon class="st2" points="912.24,559.91 793.02,487.89 793.85,471.09 913.06,543.11 		"/>
		<polygon class="st2" points="1073.25,696.82 954.03,624.8 954.86,608 1074.07,680.02 		"/>
		<polygon class="st2" points="910.34,598.4 791.12,526.37 791.95,509.58 911.17,581.6 		"/>
		<polygon class="st2" points="838.48,592.46 789.33,562.76 790.16,545.97 839.31,575.66 		"/>
		<polygon class="st2" points="1001.39,690.88 952.24,661.18 953.07,644.39 1002.22,674.08 		"/>
		<path class="st9" d="M898.26,581.5l-152.42-88.05c-4.33-2.5-10,0.98-10.15,6.23l-3,109.29c-0.12,4.45,2.06,8.48,5.73,10.61
			l16.28,9.41l-0.05,0.05l127.51,73.66l-0.03-0.1l9.54,5.51c3.91,2.26,9.03-0.88,9.16-5.62l3.04-110.6
			C903.99,587.52,901.86,583.58,898.26,581.5z"/>
		<path class="st2" d="M866.41,721.26l-153.25-88.53c-3.68-2.12-5.85-6.15-5.73-10.61l3-109.29c0.14-5.25,5.82-8.73,10.15-6.23
			L873,594.66c3.6,2.08,5.73,6.02,5.61,10.38l-3.04,110.6C875.44,720.38,870.32,723.52,866.41,721.26z"/>
		<path class="st10" d="M729.39,642.19l22.24-24.3c5.25-5.74,14.16-4.53,16.97,2.29l18.69,45.32l24.27-33.94
			c5.09-7.11,15.5-6.04,18.11,1.87l27.23,82.41L729.39,642.19z"/>
		<path class="st11" d="M769.41,570.14c-0.21,7.71-4.91,11.34-10.5,8.11c-5.59-3.23-9.95-12.09-9.73-19.8
			c0.21-7.71,4.91-11.34,10.5-8.11C765.26,553.57,769.62,562.43,769.41,570.14z"/>
		
			<ellipse transform="matrix(5.423706e-03 -1 1 5.423706e-03 -468.3679 865.4954)" class="st0" cx="200.92" cy="668.21" rx="26.32" ry="45.59"/>
		<path class="st6" d="M189.07,647.44l-19.52,3.98l-2.63,6.78c-0.63,4.86-0.6,7.44,2.63,10c2.71,2.15,8.23,0.49,11.12-0.85
			l12.54-7.54c9.3-5.12,8.59-8.92,7.59-12.05l0,0C199.31,644.25,195.01,645.06,189.07,647.44z"/>
		<path class="st6" d="M230.53,671.48l-18.88-6.39l-5.68,4.53c-2.99,3.88-4.26,6.13-2.76,9.97c1.26,3.23,6.87,4.57,10.04,4.86
			l14.63-0.21c10.61,0.25,11.91-3.38,12.62-6.59l0,0C240.99,673.88,236.86,672.41,230.53,671.48z"/>
		<path class="st12" d="M163.89,429.53c-10.65,16.14-15.35,36.73-19.56,55.37c-0.91,4.02-1.26,6.41-0.19,10.34
			c3.55,13.09,7.58,25.33,9.12,38.98c0.77,6.88,11.66,6.96,10.88,0c-1.42-12.68-3.86-25.18-7.9-37.3c-0.76-2.28-1.59-4.54-2.46-6.78
			c0.8,2.06-0.27,3.57,0.15,1.74c0.26-1.15,0.5-2.3,0.75-3.45c4.02-17.95,8.36-37.88,18.6-53.41
			C177.15,429.16,167.73,423.7,163.89,429.53L163.89,429.53z"/>
		<path class="st13" d="M160.81,433.81c-7.2,12.55-12.42,33.76-17.16,50.93c-1.8,4.74-0.66,9.03,2.33,8.84l10.02,1.39
			c2.47-0.16,7.17-5.5,8.33-9.47l12.71-43.67c2.07-7.11,0.54-13.22-3.53-14.13l-0.93-0.14
			C171.88,424.94,166.24,424.91,160.81,433.81z"/>
		<path class="st14" d="M194.48,513.35l-50.28,29.03c-2.46,1.42-5.54-0.36-5.54-3.2v-35.01c0-1.32,0.7-2.54,1.85-3.2l50.28-29.03
			c2.46-1.42,5.54,0.36,5.54,3.2v35.01C196.33,511.47,195.62,512.69,194.48,513.35z"/>
		<path class="st2" d="M175.53,503.46c0,4.06-2.87,9-6.4,11.05c-3.54,2.04-6.4,0.41-6.4-3.65c0-4.06,2.87-9,6.4-11.05
			C172.66,497.76,175.53,499.4,175.53,503.46z"/>
		<path class="st12" d="M167.27,535.91l-3.66,1.65c-2.81,1.27-6.15,0.01-7.42-2.8l0,0c-1.27-2.81-0.01-6.15,2.8-7.42l3.66-1.65
			c2.81-1.27,6.15-0.01,7.42,2.8l0,0C171.34,531.29,170.08,534.64,167.27,535.91z"/>
		<path class="st15" d="M209.66,394.3l0.08,2.06c0,0,0.27,6.2-5.83,2.99c-6.1-3.21-5.91-10.94-5.91-10.94
			S202.63,387.87,209.66,394.3z"/>
		<path class="st16" d="M203.86,399.53c7.96,4.14,7.68-3.1,7.68-3.1l0.06,0.03l-0.24-2.46c-8.88-7.63-14.52-7.26-14.52-7.26
			S195.91,395.39,203.86,399.53z M198.3,388.7c0,0,4.53-0.24,11.32,5.68l0.06,1.78c0,0,0.21,5.37-5.71,2.29
			C198.05,395.38,198.3,388.7,198.3,388.7z"/>
		<polygon class="st16" points="214.51,397.82 209.78,395.66 209.53,392.98 214.26,395.14 		"/>
		<path class="st16" d="M197.23,388.8l-0.84-0.38c-0.46-0.21-0.87-0.85-0.93-1.42l0,0c-0.06-0.58,0.27-0.88,0.73-0.67l0.84,0.38
			c0.46,0.21,0.87,0.85,0.93,1.42l0,0C198.01,388.71,197.69,389.01,197.23,388.8z"/>
		<path class="st16" d="M227.82,402.76l-0.84-0.38c-0.46-0.21-0.87-0.85-0.93-1.42l0,0c-0.06-0.58,0.27-0.88,0.73-0.67l0.84,0.38
			c0.46,0.21,0.87,0.85,0.93,1.42l0,0C228.61,402.67,228.28,402.96,227.82,402.76z"/>
		<path class="st6" d="M227.15,400.57c0,0-6.23-5.78-14.39-5.93l0.24,2.46l0.06,0.03c0,0,1.14,7.63,9,10.7
			C229.91,410.91,227.15,400.57,227.15,400.57z M221.72,406.55c-5.84-2.29-6.69-7.95-6.69-7.95l-0.3-1.89
			c6.23,0.03,11.22,4.61,11.22,4.61S227.56,408.84,221.72,406.55z"/>
		<path class="st6" d="M216.12,399.96L216.12,399.96c-0.2-0.24-0.26-0.53-0.14-0.67l1.41-1.56c0.12-0.13,0.38-0.05,0.58,0.18l0,0
			c0.2,0.24,0.26,0.53,0.14,0.67l-1.41,1.56C216.57,400.28,216.31,400.19,216.12,399.96z"/>
		<path class="st17" d="M199.2,391.91L199.2,391.91c-0.2-0.24-0.26-0.53-0.14-0.67l1.41-1.56c0.12-0.13,0.38-0.05,0.58,0.18l0,0
			c0.2,0.24,0.26,0.53,0.14,0.67l-1.41,1.56C199.66,392.23,199.4,392.14,199.2,391.91z"/>
		<path class="st6" d="M197.41,552.11c7.24,21.23,7.9,44.06,7.22,66.28c-0.51,16.56-3.12,33.26-2.71,49.82
			c0.27,10.86,17.18,10.91,16.91,0c-0.43-17.02,2.28-34.18,2.75-51.2c0.63-23.16-0.33-47.29-7.87-69.4
			C210.23,537.37,193.89,541.76,197.41,552.11L197.41,552.11z"/>
		<path class="st6" d="M163.39,533.05c3.79,13.78,5.51,28,6.89,42.2c0.81,8.39,1.81,16.39,0.93,24.76
			c-1.78,16.83-4.91,33.99-4.8,50.95c0.07,10.88,16.99,10.9,16.91,0c-0.12-17.21,3.1-34.61,4.87-51.7
			c0.89-8.61-0.31-17.02-1.16-25.63c-1.5-15.13-3.29-30.39-7.33-45.08C176.82,518.07,160.5,522.52,163.39,533.05L163.39,533.05z"/>
		<path class="st6" d="M177.25,555.41L177.25,555.41c1.56,1.75-5.15-6.76-3.14-5.55c4.18,2.53,27.66,18.48,32.55,18.56
			c5.9,0.1,2.46-5.61,6.85-9.55c4.17-3.74,5.15-9.82,5.56-15.4c0.11-1.54,0.19-3.16-0.43-4.58c-0.67-1.53-2.04-2.62-3.38-3.63
			c-10.43-7.89-30.95-27.43-45.52-21.19C152.91,521.29,169.78,547.03,177.25,555.41z"/>
		<path class="st18" d="M165.01,430.45c-3.09,3.98-2.72,6.44-2.57,11.88c0.14,5.31,3.75,9.91,8.87,11.35l52.28,14.66
			c0,0,3-20.11-7.31-26.17c-5.56-3.26-14.17-8.48-20.94-12.6C185.39,423.52,172.15,421.26,165.01,430.45z"/>
		<path class="st12" d="M188.85,429.77l4.42-19.71l12.02,8.09l-3.62,17.94C201.32,439.01,187.98,436.47,188.85,429.77z"/>
		<path class="st12" d="M196.15,381.33c0,0-12.05-8.39-12.17,12.01c-0.08,14.19,8.54,26.49,20.18,32.02
			c7.25,3.45,16.11-0.97,16.51-8.03c1.73-10.31,1.75-19.94-1.63-28.23c0.48-8.52-5.38-5.49-15.51-6.04L196.15,381.33z"/>
		<path class="st19" d="M189.26,420.92c0,0-13.94-5.18-12.61-24.79c1.43-21.22,20.95-19.39,31.8-20.43
			c4.8-0.46,8.14-1.15,13.06,3.23c4.47,3.99,0.29,12.96-6.13,13.53c-2.54,0.23-1.38,7.08-1.89,9.43c-0.91,4.18-3.52,6.23-4.48,10.28
			c-0.91,3.84-6.57,9.85-10.24,10.27C192.21,423.21,189.26,420.92,189.26,420.92z"/>
		<path class="st18" d="M162.26,524.96c-3.33-1.29-2.53-58.49,0.46-90.08l58.85,28c-0.3,26.89-3.69,48.12-0.47,80.89L162.26,524.96z
			"/>
		<path class="st18" d="M201.46,549.61c-14.54-5.3-28.39-11.11-36.53-21.09c-4-2.31-3.49-6.38,1.12-9.04v0
			c4.61-2.66,11.66-2.96,15.66-0.65l36.53,21.09c4,2.31,3.49,6.38-1.12,9.04h0C212.5,551.63,205.45,551.92,201.46,549.61z"/>
		<path class="st18" d="M221.56,462.87l-9.7-4.61c-0.4,26.22-3.61,47.27-0.45,79.46l-0.16-0.05c0.07,1.82-1.23,3.76-3.82,5.25v0
			c-4.61,2.66-11.66,2.96-15.66,0.65c-6.98-2.55-13.79-5.21-19.9-8.4c8.03,6.15,18.6,10.44,29.57,14.44
			c4,2.31,11.04,2.02,15.66-0.65l0,0c2.59-1.5,3.88-3.43,3.82-5.25l0.16,0.05C217.87,510.99,221.27,489.77,221.56,462.87z"/>
		<path class="st6" d="M227.5,403.4l-17.98,1.72c-0.64,0.06-1.21-0.41-1.27-1.05l0,0c-0.06-0.64,0.41-1.21,1.05-1.27l17.98-1.72
			c0.64-0.06,1.21,0.41,1.27,1.05l0,0C228.62,402.77,228.14,403.34,227.5,403.4z"/>
		<path class="st20" d="M209.47,438.11c-13.5-2.03-22.62,6.46-25.84-12.99l0,0c1.97-1.22,4.51-0.63,5.83,1.28
			c2.32,3.35,7.25,5.46,12.69,4.8c1.63-0.2,3.23,0.55,4.12,1.93L209.47,438.11z"/>
		<path class="st12" d="M211.7,455.7c0.92,11.25,2.71,21.55,7.41,31.86c3.38,7.42,6.85,18.03,14.17,22.71
			c16.53,10.56,34.14-16.48,41.95-26.77c4.23-5.58-5.21-11.01-9.4-5.49c-4.42,5.83-20.75,31.36-29.17,20.35
			c-8.99-11.76-12.92-28.3-14.09-42.66C222.01,448.77,211.13,448.71,211.7,455.7L211.7,455.7z"/>
		<path class="st2" d="M206.23,455.57c3.29,27.83,12.06,45.53,24.22,54.53c6.39,3.54,12.37-6.55,9.93-12.64
			c-12.1-10.76-16.35-27.55-17.5-46.71c-1.58-3.89-6.08-5.99-10.4-4.86l0,0C207.96,447.07,205.21,451.33,206.23,455.57z"/>
		<path class="st12" d="M259.43,486.56l5.06,4.06c1.97,1.58,4.87,1.26,6.45-0.71l8.09-10.08c1.58-1.97,1.26-4.88-0.71-6.46
			l-5.06-4.06c-1.97-1.58-4.87-1.26-6.45,0.71l-8.09,10.08C257.14,482.08,257.46,484.98,259.43,486.56z"/>
		<path class="st19" d="M202.1,413.94c-0.67,0.49-2.16,14.68,9.77,12.39c11.93-2.3,9.53-14.23,9.53-14.23s-9.47,2.46-12.1-9.29
			C206.67,391.05,202.1,413.94,202.1,413.94z"/>
		<path class="st12" d="M212.27,408.07c0.29,3.36-1.43,6.24-3.83,6.45c-0.26,0.02-0.52,0.01-0.78-0.03
			c-2.08-0.33-3.84-2.69-4.1-5.67c-0.29-3.36,1.43-6.24,3.83-6.45S211.98,404.72,212.27,408.07z"/>
		<path class="st14" d="M1060.71,524.81l-0.7-0.4c-2.46-1.4-5.3,0.59-6.33,4.43l-12.9,48.24l-76.87-43.83l12.9-48.24
			c1.03-3.84-0.14-8.12-2.6-9.52l-0.7-0.4c-2.46-1.4-5.3,0.59-6.33,4.43l-13.95,52.17l0,0l-1.36,5.08l0,0l-16.7,62.47l0,0l-1,3.74
			l-17.06,63.81l0,0l-0.07,0.25l-18.66,69.76l-0.7,2.61l0,0l-16.71,62.47l0,0l-1.36,5.08l0,0l-17.48,65.37
			c-1.03,3.84,0.14,8.12,2.6,9.52l0.7,0.4c2.46,1.4,5.3-0.59,6.33-4.43l16.43-61.43l76.87,43.83l-16.43,61.43
			c-1.03,3.84,0.14,8.12,2.6,9.52l0.7,0.4c2.46,1.4,5.3-0.59,6.33-4.43l105.04-392.8C1064.33,530.49,1063.16,526.21,1060.71,524.81z
			 M1037.32,590.02l-14.6,54.6l-76.87-43.83l14.6-54.6L1037.32,590.02z M1004.66,712.17l-76.87-43.83l14.6-54.6l76.87,43.83
			L1004.66,712.17z M986.59,779.72l-76.87-43.83l14.6-54.6l76.87,43.83L986.59,779.72z M891.66,803.43l14.6-54.6l76.87,43.83
			l-14.6,54.6L891.66,803.43z"/>
		
			<ellipse transform="matrix(0.0865 -0.9963 0.9963 0.0865 -236.8607 831.7963)" class="st0" cx="335.13" cy="545.05" rx="23.97" ry="40.4"/>
		<path class="st6" d="M298.61,254.24c1.23-2.74-0.14-5.93-2.97-6.93c-3.48-1.23-7.81-1.34-9.7,4.42
			c-2.15,6.56-7.19,19.05-10.6,27.36c-1.17,2.86,2.45,5.28,4.62,3.08c1.9-1.93,3.54-4.45,4.14-7.65c0,0-1.9,5.34-3.89,9.81
			c-1.03,2.31,1.24,4.73,3.59,3.8c4.07-1.61,8.56-4.84,8.66-11.28C292.57,268.93,296.22,259.55,298.61,254.24z"/>
		<path class="st21" d="M303.38,255.31c-1.77,2.72-4.59,4.03-6.28,2.93c-1.69-1.1-1.63-4.21,0.14-6.93
			c1.77-2.72,4.59-4.03,6.28-2.93C305.22,249.49,305.16,252.59,303.38,255.31z"/>
		<path class="st12" d="M336.77,349.26c-1.03,0.53-2.08,1.07-3.25,1.24c-2.71,0.38-5.63-1.26-8.33-2.84
			c-0.25-0.14-0.5-0.3-0.69-0.54c-0.38-0.51-0.31-1.19-0.15-1.73c0.98-3.31,2.55-3.23,4.83-5.13c1.03-0.86,1.94-1.88,2.96-2.75
			c1.59-1.37,3.41-2.39,5.23-3.4h0c2.2-1.23,10.23-5.43,11.86,0.58c0.71,2.6,0.47,4.31-0.8,6c-1.54,2.04-2.38,3.01-4.41,4.42
			C341.71,346.68,339.24,347.98,336.77,349.26z"/>
		<path class="st12" d="M325.37,343.45c0.87-2.2,1.09-3.49,2.32-5.39c0.96-1.48,2.34-2.62,3.98-3.27c3.17-1.26,8.45-3.06,10.2-1.84
			c2.26,1.57-0.05,4.2-1.46,5.82c-2.81,3.22-7.54,5.48-11.37,6.91c-0.66,0.24-1.19,0.09-1.56-0.26c-0.17,0.34,1.25-0.58,1.11-0.22
			C327.72,347.39,324.51,345.62,325.37,343.45z"/>
		<polygon class="st22" points="326.16,342.36 322.43,346.28 329.67,354.78 333.95,350.43 		"/>
		<path class="st6" d="M352.13,532.54l-16.93-12.9l-9.87-1.68c-3.26,12.85-1.78,11.29,1.96,14.58l14.73,9.17
			c7.76,3.71,10.22,4.18,14.74,2.2l0,0C359.49,541,356.91,537.22,352.13,532.54z"/>
		<path class="st6" d="M333.18,544.81l-16.93-12.9l-9.87-1.68c-3.26,12.85-1.78,11.29,1.96,14.58l14.73,9.17
			c7.76,3.71,10.22,4.18,14.74,2.2l0,0C340.54,553.28,337.96,549.5,333.18,544.81z"/>
		<g>
			<g>
				<path class="st2" d="M303.69,306.32c1.39-1.61,3.32-2.55,5.19-3.49c2.04-1.02,4.14-1.91,6.31-2.63
					c4.29-1.44,8.74-2.2,13.27-2.06c1.77,0.06,1.77-2.69,0-2.75c-4.9-0.16-9.8,0.7-14.42,2.3c-2.24,0.77-4.42,1.71-6.54,2.77
					c-2.07,1.04-4.21,2.14-5.75,3.92C300.6,305.71,302.54,307.66,303.69,306.32L303.69,306.32z"/>
			</g>
		</g>
		<path class="st8" d="M336.67,304.09c1.61,21.94,4.4,43.49,9.31,64.95c2.34,10.25,18.12,5.98,15.77-4.28
			c-4.59-20.05-7.24-40.1-8.74-60.6C352.25,293.73,335.9,293.58,336.67,304.09L336.67,304.09z"/>
		<path class="st12" d="M333.2,386.58c0.63,44.56-1.71,88.21-9.15,132.12c-1.74,10.29,14,14.71,15.76,4.34
			c7.7-45.38,10.39-90.41,9.74-136.47C349.39,376.08,333.05,376.05,333.2,386.58L333.2,386.58z"/>
		<path class="st12" d="M311.83,399.29c-2.55,44.44-6.5,88.91-6.58,133.45c-0.02,10.52,16.32,10.53,16.34,0
			c0.08-44.54,4.03-89.01,6.58-133.45C328.78,388.79,312.43,388.82,311.83,399.29L311.83,399.29z"/>
		<path class="st8" d="M295.91,404.35c1.66,22.96,16.34,25.28,31.17,16.72c14.82-8.56,23.07-28.04,23.07-45.15
			c0,0-8.24-25.39-23.07-16.83C312.25,367.65,293.98,377.69,295.91,404.35z"/>
		<path class="st8" d="M346.43,309.48c0,0,9.82,15.43,8.69,24.73c-0.71,5.92-4.98,12.58-5.61,14.48
			c-5.11,15.52-2.29,20.21-2.84,24.51c0,0-3.4,14.76-39.83,0.81l-15.3-44.95L346.43,309.48z"/>
		<path class="st8" d="M294.25,338.91c-1.34-0.82-1.67-3.02-1.67-3.02c-0.93-8.01-5.33-11.65,3.39-25.37
			c1.4-2.2,20.47-12.09,34.8-14.68c6.95-1.26,13.82,2.61,16.62,9.09c1.64,3.79,3.23,11.28,3.23,11.28
			c0.68,14.71-5.84-4.61-6.87,3.52c0.03-0.2,0.09-0.4,0.11-0.59c0,0-1.78,13.72-3.12,24.35c-0.83,6.63-1.42,11.42-1.48,12.1
			c0,0.03-0.01,0.08,0,0.08l-24.86,19.6l-13.08-23.62l0,0L294.25,338.91z"/>
		<path class="st12" d="M329.87,295.63c0,0,12.43,12.83,1.65,21.93c-10.78,9.1-29.13-11.23-29.13-11.23
			C312.03,300.3,321.29,296.2,329.87,295.63z"/>
		<path class="st8" d="M350.14,375.92l8.81,60.53c0.05,0.82-0.21,1.62-0.75,2.34c-3.38,4.49-20.48,16.25-57.85,9.64
			c-4.31-0.76-5.02-0.97-5-3.8l2.17-48.18l22-0.22L350.14,375.92z"/>
		<path class="st12" d="M324.25,303.04l5.93-22.88l-14.34,4.54l-4.82,18.68C309.99,306.43,319.96,314.72,324.25,303.04z"/>
		<g>
			<g>
				<path class="st2" d="M331.02,297.4c-0.01,2.23,0.86,4.64,1.33,6.8c0.58,2.67,1.4,5.52,1.41,8.27c0,0.08-0.02,0.6-0.01,0.42
					c0.01-0.18-0.15,0.18,0.08-0.19c-0.14,0.23-0.25,0.46-0.4,0.68c-0.68,0.97-1.72,1.71-2.73,2.29c-1.98,1.14-4.26,1.7-6.54,1.68
					c-4.15-0.04-7.29-2.32-10.67-4.42c-1.39-0.86-2.78-1.73-4.19-2.58c-2.12-1.28-3.42-3.44-5.27-5.03
					c-1.33-1.15-3.28,0.78-1.94,1.94c1.88,1.63,3.23,3.8,5.34,5.18c1.27,0.82,2.59,1.58,3.87,2.37c3.6,2.23,7,4.73,11.34,5.2
					c4.69,0.5,10.85-1.25,13.37-5.58c0.6-1.03,0.53-2.11,0.4-3.25c-0.18-1.6-0.48-3.19-0.8-4.78c-0.38-1.91-0.8-3.8-1.21-5.7
					c-0.17-0.77-0.33-1.53-0.48-2.3c-0.05-0.26-0.1-0.52-0.14-0.78c-0.02-0.13-0.01,0.13-0.01-0.23
					C333.77,295.63,331.02,295.63,331.02,297.4L331.02,297.4z"/>
			</g>
		</g>
		<path class="st12" d="M325.55,297.6l12.09-3.69c4.42-1.35,6.92-6.06,5.58-10.48l-9.01-29.51c-1.35-4.42-6.06-6.92-10.48-5.58
			l-12.09,3.69c-4.42,1.35-6.92,6.06-5.58,10.48l9.01,29.51C316.42,296.44,321.13,298.95,325.55,297.6z"/>
		<path class="st23" d="M326.73,296.79c-1.9,0.42-6.76-0.06-8.84-1.02c0,0,4.04,4.31,8.49,4.76L326.73,296.79z"/>
		<path class="st6" d="M320.56,256.67c0,0-3.73,18.14-8.87,23.63l1.69,3.29c1.7,3.31,1.8,7.22,0.28,10.62l-0.63,1.4
			c0,0-33.76-18.68-12.37-42.15c14.47-15.88,37.78-7.66,37.77,9.29L320.56,256.67z"/>
		<path class="st12" d="M311.65,289.39c2.43,0.93,4.41-0.36,4.42-2.87c0.01-2.51-1.95-5.29-4.38-6.22
			c-2.43-0.93-4.41,0.36-4.42,2.87C307.26,285.68,309.22,288.46,311.65,289.39z"/>
		<path class="st12" d="M370.72,382.61l-5.49,3.5c-2.68,1.71-5.86,1.58-7.05-0.29l-0.84-1.31c-1.2-1.87,0.02-4.8,2.71-6.52l5.49-3.5
			c2.68-1.71,5.86-1.58,7.05,0.29l0.84,1.31C374.62,377.96,373.41,380.89,370.72,382.61z"/>
		<g>
			<path class="st24" d="M324.64,376.8l0.01-1.34l1.72,0.67l0.37-0.85l43.04-24.85c0.52-0.3,1.43-0.26,2.03,0.08l18.53,10.7v-0.3
				l3.43,1.38v1.42h-0.02c-0.04,0.14-0.15,0.27-0.33,0.37l-44.79,25.86c-0.52,0.3-1.43,0.26-2.03-0.08l-21.46-12.39
				C324.81,377.27,324.64,377.03,324.64,376.8L324.64,376.8z"/>
			<path class="st25" d="M348.66,388.52l44.79-25.86c0.52-0.3,0.45-0.83-0.15-1.17l-21.46-12.39c-0.6-0.35-1.51-0.38-2.03-0.08
				l-44.79,25.86c-0.52,0.3-0.45,0.83,0.15,1.17l21.46,12.39C347.22,388.79,348.14,388.82,348.66,388.52z"/>
			<path class="st24" d="M345.6,371.87l10.84-6.26c0.13-0.07,0.11-0.2-0.04-0.28l-5.19-3c-0.14-0.08-0.37-0.09-0.49-0.02
				l-10.84,6.26c-0.13,0.07-0.11,0.2,0.04,0.28l5.19,3C345.25,371.93,345.47,371.94,345.6,371.87z"/>
			<path class="st2" d="M349.8,359.42c0.18-1.18,1.11-2.58,2.06-3.12l44.47-25.27c0.4-0.23,0.73-0.27,0.98-0.16l0,0l0.01,0.01
				c0.09,0.04,0.17,0.1,0.23,0.18l1.47,1.55l-1.34-0.12l-4.23,27.33c-0.18,1.18-1.11,2.58-2.06,3.12l-42.05,23.9l-1.36,1.53
				l-0.17,0.38c-0.85,0.18-2.89-1.26-2.89-1.26L349.8,359.42z"/>
			<path class="st6" d="M348.51,389.85l44.47-25.27c0.96-0.54,1.88-1.94,2.06-3.12l4.27-27.63c0.18-1.18-0.45-1.69-1.4-1.15
				l-44.47,25.27c-0.96,0.54-1.88,1.94-2.06,3.12l-4.27,27.63C346.92,389.88,347.55,390.39,348.51,389.85z"/>
			<path class="st2" d="M372.14,363.1c-0.23,1.47,1.1,1.8,2.97,0.73c1.87-1.06,3.57-3.11,3.8-4.58c0.23-1.47-1.1-1.8-2.97-0.73
				C374.06,359.58,372.36,361.63,372.14,363.1z"/>
		</g>
		<path class="st12" d="M290.41,316.72c-4.57,10.54-10.54,21.4-11.76,33c-0.89,8.48-1.67,22.29,4.51,29
			c5.88,6.39,15.68,5.28,23.32,3.68c4.73-0.99,9.32-2.49,13.93-3.92c2.02-0.63,4.05-1.23,6.09-1.81c0.85-0.24,3.04-0.33,2.05-0.58
			c7.65,1.94,10.91-9.87,3.26-11.82c-5.65-1.44-12.13,1.63-17.43,3.26c-5.26,1.62-15.28,6.04-20.69,3.61
			c-4.5-2.03-3.39-15.46-2.92-20.09c1.01-9.81,6.36-19.25,10.22-28.15C304.1,315.74,293.54,309.49,290.41,316.72L290.41,316.72z"/>
		<path class="st8" d="M287.85,315.37c-8.96,17.72-9.93,36.83-9.94,55.81c0,8.55,16.34,8.93,16.34,0.35
			c0-17.91,0.82-35.56,9.28-52.29C307.52,311.35,291.81,307.55,287.85,315.37L287.85,315.37z"/>
		<path class="st12" d="M346.13,375.27l1.28-4.78c0.56-2.1-0.69-4.27-2.79-4.84l-12.48-3.35c-2.1-0.56-4.27,0.69-4.83,2.79
			l-1.28,4.78c-0.56,2.1,0.69,4.27,2.79,4.84l12.48,3.35C343.4,378.62,345.57,377.37,346.13,375.27z"/>
		<path class="st6" d="M556.31,437.75l-93.29-53.86c-5.2-3-9.27-10.94-9.11-17.73l4.8-194.96c0.17-6.79,4.52-9.87,9.71-6.87
			l93.29,53.86c5.2,3,9.27,10.94,9.11,17.73l-4.8,194.96C565.86,437.68,561.51,440.75,556.31,437.75z"/>
		<path class="st26" d="M498.15,232.28l-20.06-11.58c-4.07-2.35-7.26-8.57-7.13-13.89l0,0c0.13-5.32,3.54-7.73,7.61-5.38
			l20.06,11.58c4.07,2.35,7.26,8.57,7.13,13.89l0,0C505.62,232.22,502.22,234.63,498.15,232.28z"/>
		<path class="st2" d="M524.96,281.68l-30.25-17.46c-3.22-1.86-5.75-6.78-5.64-10.99v0c0.1-4.21,2.8-6.11,6.02-4.26l30.25,17.46
			c3.22,1.86,5.75,6.78,5.64,10.99l0,0C530.87,281.63,528.18,283.54,524.96,281.68z"/>
		<path class="st7" d="M549.44,331.25l-55.59-32.1c-3.22-1.86-5.75-6.78-5.64-10.99l0,0c0.1-4.21,2.8-6.11,6.02-4.26l55.59,32.1
			c3.22,1.86,5.75,6.78,5.64,10.99v0C555.36,331.2,552.66,333.11,549.44,331.25z"/>
		<path class="st2" d="M523.24,351.54l-30.25-17.46c-3.22-1.86-5.75-6.78-5.64-10.99l0,0c0.1-4.21,2.8-6.11,6.02-4.26l30.25,17.46
			c3.22,1.86,5.75,6.78,5.64,10.99l0,0C529.15,351.5,526.46,353.4,523.24,351.54z"/>
		<path class="st26" d="M496.33,369.51l-20.71-11.96c-3.22-1.86-5.75-6.78-5.64-10.99l0,0c0.1-4.21,2.8-6.11,6.02-4.26l20.71,11.96
			c3.22,1.86,5.75,6.78,5.64,10.99l0,0C502.24,369.46,499.55,371.37,496.33,369.51z"/>
		<path class="st6" d="M201.37,348.83c-3.28,1.9-8.62,1.89-11.92-0.02c-3.3-1.91-3.32-4.99-0.04-6.88c3.28-1.9,8.62-1.89,11.92,0.02
			C204.64,343.85,204.66,346.93,201.37,348.83z"/>
		<polygon class="st27" points="207.36,340.21 183.35,340.59 183.35,315.07 207.36,315.07 		"/>
		<path class="st27" d="M203.86,345.36c-4.69,2.73-12.29,2.75-16.98,0.04c-4.69-2.71-4.7-7.12-0.01-9.85
			c4.69-2.73,12.29-2.75,16.98-0.04C208.53,338.22,208.54,342.63,203.86,345.36z"/>
		<path class="st6" d="M207.4,322.02c-0.17-0.11-0.34-0.21-0.52-0.32c-6.4-3.69-16.74-3.71-23.1-0.04
			c-0.13,0.08-0.26,0.15-0.39,0.23v12.83c0.15,0.09,0.3,0.19,0.46,0.28c6.4,3.69,16.74,3.71,23.1,0.04c0.15-0.09,0.3-0.18,0.45-0.27
			V322.02z"/>
		<path class="st27" d="M206.91,332.56c-6.36,3.67-16.7,3.65-23.1-0.04c-6.4-3.69-6.43-9.67-0.07-13.34
			c6.36-3.67,16.7-3.65,23.1,0.04C213.23,322.92,213.27,328.89,206.91,332.56z"/>
		<rect x="178.99" y="320.14" class="st27" width="32.66" height="6.02"/>
		<path class="st2" d="M206.91,326.83c-6.36,3.67-16.7,3.65-23.1-0.04c-6.4-3.69-6.43-9.67-0.07-13.34
			c6.36-3.67,16.7-3.65,23.1,0.04C213.23,317.18,213.27,323.16,206.91,326.83z"/>
		<path class="st28" d="M224.69,285.43c0-14.9-13.15-26.99-29.36-26.99c-16.22,0-29.36,12.08-29.36,26.99
			c0,8.16,3.94,15.47,10.17,20.42c3.41,3.75,4.97,8.36,5.68,11.69c0.69,3.23,3.01,5.84,6.14,6.92c5.06,1.74,9.94,1.95,14.6,0.2
			c2.95-1.11,5.12-3.68,5.75-6.78c0.64-3.12,2.13-7.61,5.64-11.47c0.1-0.11,0.19-0.22,0.27-0.32
			C220.61,301.14,224.69,293.72,224.69,285.43z"/>
		<path class="st29" d="M189.26,278.96c0,5.31-3.65,10.72-8.14,12.1c-4.5,1.37-8.14-1.81-8.14-7.12c0-5.31,3.65-10.72,8.14-12.1
			C185.61,270.47,189.26,273.66,189.26,278.96z"/>
		<path class="st0" d="M454.4,601.47l188.34,108.74c3.75,2.17,10.31,1.89,14.64-0.61l43.24-24.96c4.33-2.5,4.8-6.29,1.05-8.45
			L513.32,567.45c-3.75-2.17-10.31-1.89-14.64,0.61l-43.24,24.96C451.11,595.52,450.64,599.31,454.4,601.47z"/>
		<path class="st3" d="M454.4,587.58l188.34,108.74c3.75,2.17,10.31,1.89,14.64-0.61l43.24-24.96c4.33-2.5,4.8-6.29,1.05-8.45
			L513.32,553.56c-3.75-2.17-10.31-1.89-14.64,0.61l-43.24,24.96C451.11,581.63,450.64,585.42,454.4,587.58z"/>
		<polygon class="st5" points="505.17,523.77 468.6,502.59 505.07,481.52 541.67,502.65 		"/>
		<polygon class="st30" points="505.2,601.45 468.6,580.32 468.6,502.59 505.2,523.71 		"/>
		<polygon class="st31" points="505.06,601.45 542.43,580.32 542.43,502.59 505.06,523.71 		"/>
		<polygon class="st8" points="554.05,504.85 517.04,483.83 553.82,462.73 590.42,483.86 		"/>
		<polygon class="st32" points="517.34,483.79 517.34,530.05 517.34,607.79 553.94,628.91 553.94,504.92 		"/>
		<polygon class="st31" points="554.06,504.92 554.03,628.91 590.78,607.79 590.78,483.79 		"/>
		<polygon class="st10" points="600.57,580.27 564.22,559.11 600.58,538.11 637.17,559.24 		"/>
		<polygon class="st33" points="600.67,658.03 564.41,636.91 564.41,559.17 600.67,580.3 		"/>
		<polygon class="st31" points="600.67,658.03 636.94,636.91 636.94,559.17 600.67,580.3 		"/>
		<polygon class="st2" points="649.67,638.83 613.08,617.7 649.44,596.71 686.03,617.84 		"/>
		<polygon class="st31" points="649.03,688.24 686.39,665.84 686.39,617.79 649.03,638.92 		"/>
		<polygon class="st18" points="649.72,688.15 649.72,638.83 613.13,617.7 613.13,667.03 		"/>
		<path class="st12" d="M1083.74,717.96c-1.68,8.95-14.11,60.24,9.01,57.03c6.62-0.92,12-6.83,16.07-11.68
			c5.54-6.6,10.31-13.86,14.49-21.38c3.54-6.36-6.22-12.07-9.76-5.7c-3.2,5.77-6.73,11.42-10.75,16.65
			c-1.96,2.54-4.07,5.01-6.38,7.23c-1.7,1.63-3.28,2.8-4.57,3.53c-1.52,0.86,0.21-0.07,0.12,0.47c-0.02,0.09,0.11,0.87-0.13-0.32
			c-0.22-1.04,0.11,0.39-0.26-0.68c-0.44-1.28-0.63-2.63-0.78-3.96c-1.37-12.54,1.55-25.94,3.84-38.18
			C1095.97,713.86,1085.08,710.81,1083.74,717.96L1083.74,717.96z"/>
		<path class="st34" d="M1068.07,692.78c0.97,4.39-0.07,8.36-2.34,8.86c-2.26,0.5-4.89-2.66-5.86-7.05
			c-0.97-4.39,0.07-8.36,2.34-8.86C1064.47,685.23,1067.1,688.38,1068.07,692.78z"/>
		<path class="st35" d="M1085.21,728.43l4.41,1.56c2.17,0.77,4.54-0.37,5.31-2.53l11.18-31.61c0.77-2.17-0.37-4.54-2.53-5.31
			l-4.41-1.56c-2.17-0.77-4.54,0.37-5.31,2.54l-11.18,31.61C1081.91,725.29,1083.04,727.67,1085.21,728.43z"/>
		<path class="st12" d="M1080.12,721.85l4.88,1.48c2.69,0.82,5.56-0.72,6.38-3.41l4.51-14.85c0.82-2.69-0.72-5.56-3.41-6.38
			l-4.88-1.49c-2.69-0.82-5.56,0.71-6.38,3.4l-4.51,14.85C1075.89,718.16,1077.43,721.03,1080.12,721.85z"/>
		<path class="st12" d="M1096.9,715.66l3.72,1.13c0.99,0.3,2.06-0.26,2.36-1.26l1.21-3.99c0.3-0.99-0.26-2.06-1.26-2.36l-3.72-1.13
			c-0.99-0.3-2.06,0.26-2.36,1.26l-1.21,3.99C1095.34,714.3,1095.91,715.36,1096.9,715.66z"/>
		<path class="st10" d="M1101.64,685.69c0.31-0.12,9.49-1.69,9.84-1.69c1.12-0.42,2.51-0.07,3.87,1.15c2.65,2.36,4.22,7.1,3.5,10.58
			c-0.45,2.19-1.7,3.35-3.22,3.34c-0.31,0.12-9.49,1.69-9.84,1.69c-1.12,0.42-2.51,0.07-3.87-1.15c-2.65-2.36-4.22-7.1-3.5-10.58
			C1098.87,686.84,1100.12,685.68,1101.64,685.69z"/>
		<path class="st10" d="M1089.14,684.88c0.45-0.18,13.97-2.88,14.48-2.89c1.64-0.66,3.7-0.2,5.77,1.54
			c4.02,3.39,6.52,10.33,5.6,15.51c-0.58,3.25-2.38,5.03-4.63,5.06c-0.45,0.18-13.97,2.88-14.48,2.89c-1.64,0.66-3.7,0.2-5.77-1.54
			c-4.02-3.39-6.52-10.33-5.6-15.51C1085.09,686.69,1086.89,684.91,1089.14,684.88z"/>
		<path class="st4" d="M1089.41,684.52l-33.95-7.71l10.17,50.8l33.8-22.08C1101.02,695.71,1097.35,684.77,1089.41,684.52z"/>
		<path class="st22" d="M1059.57,697.3l6.03,27.36c0,0,34.04-20.59,34.1-21.33c0.32-3.87-0.16-7.78-1.36-11.02L1059.57,697.3z"/>
		<path class="st10" d="M1048.47,685.23c-3.97,11.22-0.92,27.65,6.81,36.7c7.73,9.05,17.22,7.29,21.19-3.93s0.92-27.65-6.81-36.7
			C1061.93,672.25,1052.44,674.01,1048.47,685.23z"/>
		<path class="st33" d="M1044.48,686.14c-3.97,11.22-0.92,27.65,6.81,36.7c7.73,9.05,17.22,7.29,21.19-3.93
			c3.97-11.22,0.92-27.65-6.81-36.7C1057.93,673.16,1048.45,674.92,1044.48,686.14z"/>
		<path class="st2" d="M1047.16,686.68c-3.68,10.4-0.85,25.64,6.32,34.03c7.17,8.39,15.97,6.76,19.65-3.65
			c3.68-10.41,0.85-25.64-6.32-34.03C1059.64,674.64,1050.84,676.28,1047.16,686.68z"/>
		<path class="st4" d="M1073.48,696.34c-1.63-6.51-5.04-11.38-6.66-13.28c-7.17-8.39-15.97-6.76-19.65,3.65
			c-1.05,2.98-1.97,6.42-1.42,14.27C1053.16,690.25,1064.23,691.19,1073.48,696.34z"/>
		<path class="st22" d="M1073.76,709.18c1.6-4.53,1.09-11.26-2.36-15.03c-1.66-1.81-4.08-2.61-4.08-2.45v0l-0.95,0.01
			c-0.07,0.01-0.58,0.02-0.65,0.03l-6.22,0.04c-0.23,0.01-0.68-0.71-0.91-0.71h-0.2v1.31c-1.49,0.36-2.72,1.78-3.47,3.9
			c-1.6,4.53,0.44,11.34,3.89,15.11c1.63,1.78,4.04,2.62,5.52,2.5v0.02l-0.48,0.01c0.18-0.01,0.1-0.04,0.27-0.07l5.41-0.54
			c0.46,0.01,0.78,0.08,1.2,0.08h-0.44v-0.29C1071.79,712.63,1073.07,711.14,1073.76,709.18z"/>
		<path class="st3" d="M1070.29,688.23c-0.07,0.01-10.12,1.54-10.12,1.54c-0.22,0.02-0.43-0.2-0.64-0.2h-1.13v0.85
			c-1.49,0.39-2.1,1.57-2.85,3.69c-1.6,4.53,0.36,11.11,3.49,14.77c1.47,1.72,3.82,2.45,5.31,2.29v-0.01l-0.44-0.01
			c0.16-0.02,0.1-0.05,0.26-0.09c0,0,10.24-2.03,10.64-2.18C1075.02,704.44,1074.69,696.87,1070.29,688.23z"/>
		<polygon class="st2" points="1091.64,685.98 1070.96,681.37 1075.35,687.98 1093.24,689.26 		"/>
		<polygon class="st36" points="1109.42,685.77 1097.2,688.12 1095.03,685.62 1107.42,683.43 		"/>
		<path class="st6" d="M1112.69,956l17.18-13.09l10.02-1.71c3.31,13.04,1.81,11.46-1.99,14.8l-14.95,9.31
			c-7.87,3.77-10.37,4.24-14.95,2.23l0,0C1105.21,964.59,1107.84,960.76,1112.69,956z"/>
		<path class="st6" d="M1176.02,976.77l13.1-17.17l9.21-4.3c6.64,11.7,4.78,10.57,2,14.8l-11.95,12.93
			c-6.59,5.71-8.88,6.83-13.83,6.11l0,0C1171.09,987.03,1172.6,982.64,1176.02,976.77z"/>
		<path class="st8" d="M1122.71,710.57l-16.22,27.8c-2.78,8.98,17.21,15.84,20.15,8.7l13.26-28.04c1.86-4.57-0.05-9.81-4.41-12.11
			l0,0C1130.93,704.52,1125.3,706.13,1122.71,710.57z"/>
		<path class="st37" d="M1178.63,822.49c2.55,4.03,3.66,8.82,3.11,13.56c-2.51,21.74-0.63,39.71,4.9,61.6
			c4.71,18.66,12.28,37.27,15.22,56.31c1.74,11.26-15.74,14.13-17.48,2.85c-1.19-7.72-3.72-15.29-5.9-22.77
			c-3.4-11.7-6.79-23.4-9.74-35.23c-6.29-25.21-11.81-52.4-7.85-78.42c1.71-11.22,19.34-9.41,17.61,1.9L1178.63,822.49z"/>
		<path class="st37" d="M1144.11,820.51c-3.9,14.27-5.73,28.95-7.16,43.64c-0.84,8.62-2,17.01-1.13,25.64
			c1.75,17.38,4.89,35.03,4.8,52.53c-0.06,11.39-17.77,11.42-17.71,0c0.09-17.83-3.16-35.78-4.9-53.49
			c-0.91-9.29,0.6-18.62,1.55-27.88c1.55-15.16,3.44-30.41,7.47-45.14C1130.04,804.82,1147.13,809.48,1144.11,820.51L1144.11,820.51
			z"/>
		<path class="st37" d="M1139.99,843.92L1139.99,843.92c1.64,1.83-5.39-7.08-3.29-5.81c4.38,2.65,28.96,19.35,34.08,19.43
			c6.18,0.1,2.58-5.87,7.18-10c4.36-3.92,5.39-10.28,5.82-16.13c0.12-1.62,0.2-3.3-0.45-4.79c-0.7-1.61-2.14-2.74-3.54-3.8
			c-10.92-8.27-32.4-28.73-47.66-22.18C1114.5,808.2,1132.16,835.15,1139.99,843.92z"/>
		<path class="st8" d="M1128.57,713.08c-3.23,4.17-2.85,6.75-2.7,12.44c0.15,5.56,3.92,10.38,9.28,11.88l54.74,15.35
			c0,0,15.73-15.12,4.94-21.46c-5.82-3.42-27.43-14.82-34.52-19.14C1149.91,705.82,1136.03,703.45,1128.57,713.08z"/>
		<path class="st8" d="M1124.28,812.03c1.62,2.11,3.69-56.96,0.48-94.33l61.62,29.32c-0.31,28.16,0.36,63.07-1.68,85.85
			C1176.71,848.22,1149.55,828.38,1124.28,812.03z"/>
		<path class="st12" d="M1152.55,718.71l-6.27-23.13l15.89,4.4l5.1,18.89C1168.37,721.94,1157.16,730.5,1152.55,718.71z"/>
		<path class="st23" d="M1151.08,714.11c0,0,6.51-3.33,6.54-3.4c0,0-2.23,4.74-5.46,6.59L1151.08,714.11z"/>
		<path class="st12" d="M1151.67,714.48l-12.6-2.26c-4.6-0.82-7.69-5.26-6.87-9.87l5.51-30.76c0.82-4.6,5.26-7.69,9.87-6.87
			l12.6,2.26c4.6,0.82,7.69,5.26,6.87,9.87l-5.51,30.75C1160.71,712.21,1156.28,715.3,1151.67,714.48z"/>
		<path class="st38" d="M1153.71,683.22c-5.08,1.19-11.07,1.17-15.77-1.9c-5.1-3.33-7.35-11.97-2.13-15.09
			c2.82-1.69,9.29-2.37,14.74-3.34c15.47-2.73,29.34,7.86,26.41,24.24c0,0-2.79,18.25-13.31,22.28c-1.86,0.71-3.87-0.67-3.96-2.66
			l0,0c0,0,6.09-5.64-0.83-12.14c-1.59-1.5-1.46-4.14-0.74-6.77C1158.87,685.13,1156.44,682.58,1153.71,683.22z"/>
		<path class="st12" d="M1164.66,704.55c-2.33,1.22-4.48,0.17-4.79-2.35c-0.31-2.52,1.32-5.56,3.66-6.78
			c2.33-1.22,4.48-0.17,4.79,2.35C1168.62,700.29,1166.99,703.33,1164.66,704.55z"/>
		<path class="st12" d="M1186.69,749.91c3.45,10.58,11.33,19.25,15.26,29.71c7.45,19.8,3.65,40.25-5.14,58.98
			c-3.12,6.65,6.78,12.49,9.92,5.8c9.4-20.02,14.34-42.12,7.68-63.78c-2.19-7.14-5.48-13.9-9.22-20.34
			c-2.51-4.32-5.88-8.68-7.43-13.42C1195.48,739.85,1184.38,742.85,1186.69,749.91L1186.69,749.91z"/>
		<path class="st8" d="M1181.9,743.26l8.59,31.02c4.5,8.26,23.35-1.27,20.29-8.36l-10.83-29.07c-1.98-4.52-7.06-6.81-11.75-5.29l0,0
			C1183.31,733.14,1180.53,738.3,1181.9,743.26z"/>
		<path class="st27" d="M778.24,780.88c-4.09,2.36-10.74,2.35-14.86-0.03c-4.12-2.38-4.14-6.22-0.05-8.58
			c4.09-2.36,10.74-2.35,14.86,0.03C782.31,774.68,782.33,778.52,778.24,780.88z"/>
		<rect x="760.28" y="759.72" class="st27" width="21.01" height="16.86"/>
		<path class="st27" d="M775.11,759.63v16.86h0c0.02,1.56-1,3.12-3.05,4.3c-1.23,0.71-2.7,1.2-4.25,1.48
			c3.61,0.65,7.69,0.16,10.53-1.48c2.05-1.19,3.07-2.74,3.05-4.3h0v-16.86H775.11z"/>
		<path class="st39" d="M778.24,764.02c-4.09,2.36-10.74,2.35-14.86-0.03c-4.12-2.38-4.14-6.22-0.05-8.58
			c4.09-2.36,10.74-2.35,14.86,0.03C782.31,757.82,782.33,761.66,778.24,764.02z"/>
		<path class="st40" d="M777,763.17c-3.38,1.95-8.88,1.94-12.28-0.02c-3.4-1.96-3.42-5.14-0.04-7.09c3.38-1.95,8.88-1.94,12.28,0.02
			C780.37,758.05,780.38,761.22,777,763.17z"/>
		<path class="st41" d="M776.96,759.14c-3.4-1.96-8.9-1.97-12.28-0.02c-1,0.58-1.7,1.27-2.11,2c0.41,0.74,1.12,1.44,2.14,2.04
			c3.4,1.96,8.9,1.97,12.28,0.02c1-0.58,1.7-1.27,2.11-2C778.7,760.43,777.99,759.73,776.96,759.14z"/>
		<path class="st42" d="M764.68,763.17c-1-0.58-1.7-1.27-2.11-2c0.23-0.43,0.57-0.84,1-1.22c2.94-0.49,6.23-0.07,8.54,1.26
			c1,0.58,1.7,1.27,2.11,2c0.19,0.33,0.32,0.64,0.37,0.95c-0.51,0.12-0.97,0.22-1.37,0.28
			C770.28,764.92,766.99,764.51,764.68,763.17z"/>
		<g>
			<g>
				<path class="st43" d="M777.55,767.08c0.82,0.44,1.66,0.83,2.46,1.32c0.47,0.28,1.07,0.62,1.14,1.19
					c0.22,1.63,0.13,3.38,0.12,5.02c0,0.8-0.02,1.61-0.04,2.41c-0.01,0.29-0.06,0.55-0.09,0.82c-0.03,0.28-0.29-0.06,0.05,0.1
					c-0.16-0.08,0.14,0.09-0.08-0.02c-0.47-0.24-1.01-0.38-1.49-0.62c-0.42-0.21-0.83-0.43-1.25-0.64
					c-1.04-0.53-1.95,1.03-0.91,1.56c0.54,0.28,1.08,0.57,1.64,0.83c0.62,0.29,1.33,0.68,2.03,0.7c2.19,0.07,1.94-2.92,1.95-4.33
					c0.03-2.02,0.11-4.12-0.14-6.13c-0.25-2.05-2.91-2.94-4.47-3.78C777.43,764.97,776.52,766.53,777.55,767.08L777.55,767.08z"/>
			</g>
		</g>
		
			<ellipse transform="matrix(5.423447e-03 -1 1 5.423447e-03 -254.0854 1673.1707)" class="st0" cx="714.09" cy="964.32" rx="26.32" ry="45.59"/>
		
			<ellipse transform="matrix(5.423442e-03 -1 1 5.423442e-03 179.1558 2111.5273)" class="st0" cx="1151.08" cy="965.7" rx="26.32" ry="45.59"/>
		<path class="st14" d="M689.85,937.46l-10.38,12.97l-1.46,8.62c2.3,4.33,3.82,6.41,7.93,6.64c3.46,0.19,7-4.36,8.58-7.13
			l5.86-13.41c4.62-9.56,1.85-12.25-0.78-14.22l0,0C696.35,928.94,693.32,932.09,689.85,937.46z"/>
		<path class="st14" d="M735.35,957.39l-19.48,4.22l-2.55,6.81c-0.57,4.86-0.51,7.45,2.75,9.97c2.73,2.12,8.24,0.39,11.11-0.99
			l12.45-7.69c9.23-5.23,8.49-9.02,7.45-12.14l0,0C745.55,954.08,741.26,954.94,735.35,957.39z"/>
		<path class="st12" d="M677.06,725.64c-10.65,16.14-15.35,36.73-19.56,55.37c-0.91,4.02-1.26,6.41-0.19,10.34
			c3.55,13.09,7.58,25.33,9.12,38.98c0.77,6.88,11.66,6.96,10.88,0c-1.42-12.68-3.86-25.18-7.9-37.3c-0.76-2.28-1.59-4.54-2.46-6.78
			c0.8,2.06-0.27,3.57,0.15,1.74c0.26-1.15,0.5-2.3,0.75-3.45c4.02-17.95,8.36-37.88,18.6-53.41
			C690.33,725.27,680.91,719.82,677.06,725.64L677.06,725.64z"/>
		<path class="st14" d="M674.99,727.49c-6.87,9.58-11.97,28.3-16.89,42.61c-1.79,3.84-0.99,7.95,1.65,8.48l8.72,3.59
			c2.17,0.44,6.53-3.26,7.72-6.55l13.09-36.24c2.13-5.9,1.07-11.74-2.46-13.52l0.21-3.2C686.52,720.15,680.14,720.77,674.99,727.49z
			"/>
		<path class="st2" d="M688.71,799.57c0,4.06-2.87,9-6.4,11.05c-3.54,2.04-6.4,0.41-6.4-3.65c0-4.06,2.87-9,6.4-11.05
			C685.84,793.88,688.71,795.51,688.71,799.57z"/>
		<path class="st15" d="M722.83,690.41l0.08,2.06c0,0,0.27,6.2-5.83,2.99c-6.1-3.21-5.91-10.94-5.91-10.94
			S715.8,683.98,722.83,690.41z"/>
		<path class="st16" d="M717.04,695.64c7.96,4.14,7.67-3.1,7.67-3.1l0.06,0.03l-0.24-2.46c-8.88-7.63-14.52-7.26-14.52-7.26
			S709.08,691.51,717.04,695.64z M711.48,684.82c0,0,4.53-0.24,11.32,5.68l0.06,1.78c0,0,0.21,5.37-5.71,2.29
			S711.48,684.82,711.48,684.82z"/>
		<polygon class="st16" points="727.69,693.93 722.96,691.77 722.7,689.09 727.43,691.25 		"/>
		<path class="st16" d="M710.41,684.91l-0.84-0.38c-0.46-0.21-0.87-0.85-0.93-1.42l0,0c-0.06-0.58,0.27-0.88,0.73-0.67l0.84,0.38
			c0.46,0.21,0.87,0.85,0.93,1.42l0,0C711.19,684.82,710.86,685.12,710.41,684.91z"/>
		<path class="st17" d="M712.38,688.02L712.38,688.02c-0.2-0.24-0.26-0.53-0.14-0.67l1.41-1.56c0.12-0.13,0.38-0.05,0.58,0.18v0
			c0.2,0.24,0.26,0.53,0.14,0.67l-1.41,1.56C712.83,688.34,712.57,688.26,712.38,688.02z"/>
		<path class="st6" d="M710.59,848.22c7.24,21.23,7.9,44.06,7.22,66.28c-0.51,16.56-3.12,33.26-2.71,49.82
			c0.27,10.86,17.18,10.91,16.91,0c-0.43-17.02,2.28-34.18,2.75-51.2c0.63-23.16-0.33-47.29-7.87-69.4
			C723.4,833.48,707.06,837.88,710.59,848.22L710.59,848.22z"/>
		<path class="st6" d="M676.57,829.16c3.79,13.78,5.51,28,6.89,42.2c0.81,8.39,1.81,16.39,0.92,24.76
			c-1.78,16.83-4.91,33.99-4.8,50.95c0.07,10.88,16.99,10.9,16.91,0c-0.12-17.22,3.1-34.61,4.87-51.7
			c0.89-8.61-0.31-17.02-1.16-25.63c-1.5-15.13-3.29-30.39-7.33-45.08C689.99,814.19,673.67,818.64,676.57,829.16L676.57,829.16z"/>
		<path class="st6" d="M690.43,851.52L690.43,851.52c1.56,1.75-5.15-6.76-3.14-5.55c4.18,2.53,27.66,18.48,32.55,18.56
			c5.9,0.1,2.46-5.61,6.85-9.55c4.17-3.74,5.15-9.82,5.56-15.4c0.11-1.54,0.19-3.16-0.43-4.58c-0.67-1.53-2.04-2.62-3.38-3.63
			c-10.43-7.89-30.95-27.43-45.52-21.19C666.08,817.41,682.95,843.14,690.43,851.52z"/>
		<path class="st27" d="M678.19,726.57c-3.09,3.98-2.72,6.44-2.57,11.88c0.14,5.31,3.75,9.91,8.87,11.35l52.28,14.66
			c0,0,3-20.11-7.31-26.17c-5.56-3.26-14.17-8.48-20.94-12.6C698.57,719.64,685.32,717.37,678.19,726.57z"/>
		<path class="st12" d="M702.03,725.89l4.42-19.71l12.02,8.09l-3.62,17.94C714.5,735.13,701.16,732.58,702.03,725.89z"/>
		<path class="st12" d="M709.32,677.44c0,0-12.05-8.39-12.17,12.01c-0.08,14.19,8.54,26.49,20.18,32.02
			c7.25,3.45,16.11-0.97,16.51-8.03c1.73-10.31,1.75-19.94-1.63-28.23c0.48-8.52-5.38-5.49-15.51-6.04L709.32,677.44z"/>
		<path class="st14" d="M702.43,717.03c0,0-13.94-5.18-12.61-24.79c1.43-21.22,20.95-19.39,31.8-20.43
			c4.8-0.46,8.14-1.15,13.06,3.23c4.47,3.99,0.29,12.96-6.13,13.53c-2.54,0.23-1.38,7.08-1.89,9.43c-0.91,4.18-3.52,6.22-4.48,10.28
			c-0.91,3.84-6.57,9.85-10.24,10.27C705.39,719.32,702.43,717.03,702.43,717.03z"/>
		<path class="st27" d="M675.43,821.07c-3.33-1.29-2.53-58.49,0.46-90.08l58.85,28c-0.3,26.89-3.69,48.12-0.47,80.89L675.43,821.07z
			"/>
		<path class="st27" d="M714.63,845.73c-14.54-5.3-28.39-11.11-36.53-21.09c-4-2.31-3.49-6.38,1.12-9.04l0,0
			c4.61-2.66,11.66-2.96,15.66-0.65l36.53,21.09c4,2.31,3.49,6.38-1.12,9.04h0C725.67,847.74,718.63,848.03,714.63,845.73z"/>
		<path class="st27" d="M734.74,758.99l-9.7-4.61c-0.4,26.22-3.61,47.27-0.45,79.46l-0.16-0.05c0.07,1.82-1.23,3.76-3.82,5.25l0,0
			c-4.61,2.66-11.66,2.96-15.66,0.65c-6.98-2.55-13.79-5.21-19.9-8.4c8.03,6.15,18.6,10.44,29.57,14.44
			c4,2.31,11.04,2.02,15.66-0.65v0c2.59-1.5,3.88-3.43,3.82-5.25l0.16,0.05C731.05,807.1,734.44,785.88,734.74,758.99z"/>
		<path class="st2" d="M722.65,734.23c-13.5-2.03-22.62,6.46-25.84-12.99v0c1.97-1.22,4.51-0.63,5.83,1.28
			c2.32,3.35,7.25,5.46,12.69,4.8c1.63-0.2,3.23,0.55,4.12,1.93L722.65,734.23z"/>
		<path class="st12" d="M724.87,751.82c0.92,11.25,2.71,21.55,7.41,31.86c3.38,7.42,6.85,18.03,14.17,22.71
			c16.53,10.56,34.14-16.48,41.95-26.77c4.23-5.58-5.21-11.01-9.4-5.49c-4.42,5.83-20.75,31.36-29.17,20.35
			c-8.99-11.76-12.92-28.3-14.09-42.66C735.19,744.89,724.3,744.83,724.87,751.82L724.87,751.82z"/>
		<path class="st12" d="M725.44,704.19c0.29,3.36-1.43,6.24-3.83,6.45c-0.26,0.02-0.52,0.01-0.78-0.03
			c-2.08-0.33-3.84-2.69-4.1-5.67c-0.29-3.36,1.43-6.24,3.83-6.45C722.97,698.28,725.15,700.83,725.44,704.19z"/>
		<path class="st27" d="M719.35,751.49l6.97,28.86c3.89,7.75,21.57-0.46,18.96-7.09l-9.1-27.13c-1.68-4.23-6.3-6.49-10.68-5.24l0,0
			C720.95,742.2,718.23,746.88,719.35,751.49z"/>
		<path class="st14" d="M727.78,676.46c0,4.63-3.76,8.39-8.39,8.39c-4.63,0-8.39-3.76-8.39-8.39c0-4.63,3.76-8.39,8.39-8.39
			C724.02,668.07,727.78,671.83,727.78,676.46z"/>
		<path class="st14" d="M737.25,675.51c0,4.63-3.76,8.39-8.39,8.39c-4.63,0-8.39-3.76-8.39-8.39c0-4.63,3.76-8.39,8.39-8.39
			C733.49,667.12,737.25,670.87,737.25,675.51z"/>
		<path class="st14" d="M738.56,684.08c0,4.63-3.76,8.39-8.39,8.39c-4.63,0-8.39-3.76-8.39-8.39c0-4.63,3.76-8.39,8.39-8.39
			C734.8,675.69,738.56,679.44,738.56,684.08z"/>
		<path class="st0" d="M634.09,752.76l0.06-18.1l-0.02,0c-0.01-3.57-2.15-6.99-6.57-9.55L464.44,630.6
			c-9.77-5.66-26.86-4.98-38.16,1.52l-295.84,170.2c-5.88,3.38-9.01,7.67-9.31,11.81l-0.05-0.03l0.02,0.71c0,0.19,0,0.38,0.02,0.57
			l0.43,15.07l0.02,0.01c-1.51,4.61,0.44,9.28,6.08,12.54l163.13,94.51c4.89,2.83,11.6,4.08,18.51,3.8
			c1.73-0.07,3.46-0.23,5.19-0.49c3.45-0.52,6.84-1.41,9.98-2.67c1.57-0.63,3.07-1.35,4.48-2.16l295.84-170.2
			c6.01-3.46,9.15-7.87,9.32-12.09l0,0v0C634.1,753.4,634.11,753.08,634.09,752.76z"/>
		<path class="st2" d="M100.23,818.42l-0.47-16.36l21.09,13.69c0,0-5.96,14.83-6.6,14.31C113.61,829.55,100.23,818.42,100.23,818.42
			z"/>
		<path class="st2" d="M269.45,925.49l-163.13-94.51c-9.77-5.66-8.53-15.52,2.77-22.03l295.84-170.2c11.3-6.5,28.39-7.18,38.16-1.52
			l163.13,94.51c9.77,5.66,8.53,15.52-2.77,22.03l-295.84,170.2C296.3,930.47,279.22,931.15,269.45,925.49z"/>
		<path class="st18" d="M287.36,834.92l117.58-196.17c11.3-6.5,28.39-7.18,38.16-1.52l163.13,94.51c9.77,5.66,8.53,15.52-2.77,22.03
			l-295.84,170.2c-5.65,3.25-12.75,5.05-19.65,5.32L287.36,834.92z"/>
		<polygon class="st18" points="416.09,770 446.12,729.37 612.84,722.62 612.77,741.68 430.49,799.46 		"/>
		<path class="st6" d="M260.58,910.28c0,2.84-2.01,3.98-4.48,2.54c-2.47-1.43-4.47-4.89-4.46-7.73c0-2.84,2.01-3.98,4.48-2.54
			C258.58,903.98,260.58,907.44,260.58,910.28z"/>
		<path class="st6" d="M269.48,906.83l-163.13-94.51c-9.77-5.66-8.53-15.52,2.77-22.03l295.84-170.2c11.3-6.5,28.39-7.18,38.16-1.52
			l163.13,94.51c9.77,5.66,8.53,15.52-2.77,22.03l-295.84,170.2C296.33,911.81,279.25,912.49,269.48,906.83z"/>
		<path class="st3" d="M530.14,685.25l-45.04-26.1c-1.86-1.08-1.62-2.97,0.53-4.2l0,0c2.15-1.24,5.43-1.37,7.28-0.29l45.04,26.1
			c1.86,1.08,1.62,2.97-0.53,4.2l0,0C535.27,686.2,531.99,686.33,530.14,685.25z"/>
		<path class="st6" d="M202.46,880.74l-36.18-20.96c-1.53-0.89-2.78-3.29-2.78-5.33l0,0c0-2.04,1.26-2.99,2.79-2.1l36.18,20.96
			c1.53,0.89,2.78,3.29,2.78,5.33l0,0C205.25,880.68,204,881.63,202.46,880.74z"/>
		<path class="st6" d="M561.3,771.45l17.85-10.27c1.06-0.61,1.93-2.26,1.93-3.67l0,0c0-1.41-0.86-2.07-1.92-1.46l-17.85,10.27
			c-1.06,0.61-1.93,2.26-1.93,3.67l0,0C559.38,771.4,560.24,772.06,561.3,771.45z"/>
		<path class="st6" d="M535.99,787.29l17.85-10.27c1.06-0.61,1.93-2.26,1.93-3.67l0,0c0-1.41-0.86-2.07-1.92-1.46L536,782.16
			c-1.06,0.61-1.93,2.26-1.93,3.67l0,0C534.06,787.24,534.93,787.9,535.99,787.29z"/>
		<path class="st7" d="M414.16,629.87L165.38,772.99c-5.79,3.33-5.81,11.69-0.02,15.04l150.77,87.36c2.68,1.56,5.99,1.56,8.68,0.01
			l248.78-143.12c5.79-3.33,5.81-11.69,0.02-15.04l-150.77-87.36C420.15,628.32,416.84,628.32,414.16,629.87z"/>
		<path class="st6" d="M480.73,685.3c-35.92-20.74-93.99-20.85-129.69-0.23c-35.7,20.61-35.52,54.13,0.41,74.88
			c35.92,20.74,93.99,20.85,129.69,0.23S516.65,706.04,480.73,685.3z M372.74,747.65c-24.09-13.91-24.21-36.39-0.27-50.21
			c23.94-13.82,62.88-13.75,86.97,0.16c24.09,13.91,24.21,36.39,0.27,50.21C435.77,761.63,396.83,761.56,372.74,747.65z"/>
		<path class="st8" d="M481.13,760.18c21.85-12.61,30.23-30.06,25.23-46.46L476.73,717c3.13,10.89-2.53,22.44-17.02,30.81
			c-19.82,11.44-49.9,13.35-73.34,5.79l-15.53,14.91C405.92,780.14,451.32,777.39,481.13,760.18z"/>
		<path class="st2" d="M421.41,669.8l-2.35,17.38c14.67,0.46,29.14,3.93,40.37,10.42c10.17,5.87,16.06,13.28,17.67,20.91l30.09-1.51
			c-2.25-11.57-11.06-22.81-26.46-31.7C464.2,675.76,442.98,670.6,421.41,669.8z"/>
		<path class="st2" d="M337.52,806.19l-69.29-40.01c-4.55-2.63-3.98-7.26,1.28-10.3l0,0c5.26-3.04,13.28-3.37,17.84-0.74
			l69.29,40.01c4.55,2.63,3.98,7.26-1.28,10.3l0,0C350.1,808.48,342.07,808.81,337.52,806.19z"/>
		<path class="st2" d="M303.33,824.85l-69.29-40.01c-4.55-2.63-3.98-7.26,1.28-10.3h0c5.26-3.04,13.28-3.37,17.84-0.74l69.29,40.01
			c4.55,2.63,3.98,7.26-1.28,10.3l0,0C315.91,827.14,307.88,827.48,303.33,824.85z"/>
		<path class="st12" d="M1008.22,181.81c-2.26,14.5-7.52,25.11-14.74,37.6c-2.37,4.11-4.93,7.76-4.14,12.53
			c1.09,6.56,3.15,12.79,3.89,19.49c0.81,7.34-10.68,7.28-11.48,0c-1.32-11.97-6.77-20.98-1.08-32.52
			c2.99-6.06,6.99-11.54,10.11-17.52c3.69-7.06,5.15-14.83,6.37-22.64C998.28,171.48,1009.35,174.57,1008.22,181.81L1008.22,181.81z
			"/>
		<path class="st13" d="M1011.03,182.1c-4.69,13.33-10.94,25.82-16.16,38.91c-3.61,9.04-18.42,5.1-14.77-4.07
			c5.22-13.09,11.47-25.59,16.16-38.91C999.51,168.79,1014.31,172.77,1011.03,182.1L1011.03,182.1z"/>
		<path class="st12" d="M1015.19,264.88c-12.89,5.81-28.74,16.7-35.33,29.65c-3.85,7.56-3.27,15.3-2.84,23.39
			c0.76,14.2,1.52,28.39,2.28,42.59c0.56,10.42-15.65,10.39-16.21,0c-0.83-15.52-1.66-31.04-2.49-46.56
			c-0.58-10.81,1.05-21.49,7.09-30.74c8.9-13.64,24.61-25.69,39.32-32.32C1016.45,246.63,1024.7,260.6,1015.19,264.88
			L1015.19,264.88z"/>
		<path class="st12" d="M916.53,324.8c11.73-12.76,20.1-27.7,33.25-39.29c8.15-7.18,16.99-11.15,27.64-8.06
			c12.82,3.73,23.4,4.42,35.03-3.39c8.69-5.83,16.81,8.21,8.18,13.99c-10.87,7.3-23.08,10.05-36.01,7.92
			c-4.39-0.72-8.48-2.27-12.78-3.28c-1.78-0.42-1.62-0.5-2.57-0.37c-3.84,0.52-7.27,3.89-9.94,6.37
			c-12.13,11.28-20.23,25.46-31.35,37.56C920.91,343.95,909.47,332.47,916.53,324.8L916.53,324.8z"/>
		<path class="st44" d="M918.76,346.48l-0.5-1.03c-0.29-0.59-0.04-1.3,0.55-1.59l0,0c0.59-0.29,1.3-0.04,1.59,0.55l0.5,1.03
			c0.29,0.59,0.04,1.3-0.55,1.59l0,0C919.76,347.32,919.05,347.07,918.76,346.48z"/>
		<path class="st45" d="M918.4,344.18l3.22-4.33c0.39-0.53,1.14-0.64,1.66-0.25l0,0c0.53,0.39,0.64,1.14,0.25,1.66l-3.22,4.33
			c-0.39,0.53-1.14,0.64-1.66,0.25l0,0C918.12,345.45,918.01,344.7,918.4,344.18z"/>
		<path class="st6" d="M934.37,330.76c0.46-2.83-0.68-7.12-2.49-7.8l-8.66,3.41l-0.73-0.25c-4.22,1.17-24.02,4.77-30.16,6.79
			c-3.12,1.03-0.56,4.96-0.56,4.96c6.47,6.96,16.45,9.11,16.45,9.11c4.84,0.18,4.97-4.37,11.78-6.71c1.15-0.4,3.07-0.26,2.72,0.67
			l-4.07,4.9l2.03,0.98c0,0,6.49-6.51,11.1-10.71C933.69,334.37,934.55,332.37,934.37,330.76z"/>
		<path class="st12" d="M931.26,321.67l-5.37,0.29c0,0-18.03,6.87-21.54,8.31c-4.08,1.67,3.01,15.02,23.77,2.79
			C940.61,327.72,931.26,321.67,931.26,321.67z"/>
		<path class="st46" d="M995.6,240.01c-27.79,17.62-44.75,33.73-43.69,41.3c0,0,13.84-7.67,24.7-1.37
			c10.74,6.23,8.4,11.59,5.66,14.47c-0.86,0.91,4.76,6.9,6.02,6.94c12.88,0.39,52.74-4.32,53.53-28.61
			c0.67-20.59-2.15-23.05-2.15-23.05S1010.71,259.74,995.6,240.01z"/>
		<path class="st18" d="M1003.68,182.11c0,0-10.6,14.72-10.02,23.99c0.37,5.9,4.22,12.74,4.73,14.65
			c4.17,15.65,1.11,20.15,1.41,24.43c0,0,2.53,14.81,39.39,3.07l16.31-43.18L1003.68,182.11z"/>
		<path class="st18" d="M1051.55,215.24c0.34-0.56,3.82-6.04,3.96-6.68c1.62-7.3,5.9-12.87-1.91-22.54
			c-1.63-2.02-19.58-13.14-33.63-16.52c-6.81-1.64-13.83,1.8-16.97,8.05c-1.84,3.66-3.84,10.99-3.84,10.99
			c-1.51,14.53,6.04-4.23,6.6,3.88c-0.02-0.2-0.06-0.4-0.08-0.59c0,0,0.98,13.69,1.7,24.29c0.45,6.61,0.76,11.39,0.78,12.06
			c0,0.03,0,0.07,0,0.08l23.5,20.82l14.3-22.64l0,0L1051.55,215.24z"/>
		<path class="st12" d="M1020.87,169.35c0,0-13.04,12-2.88,21.62c10.15,9.62,29.48-9.46,29.48-9.46
			C1038.27,174.98,1029.34,170.4,1020.87,169.35z"/>
		<path class="st18" d="M1055.5,208.56c-1.59,0.66-6.01,6.59-9.48,9.66c-6.74,5.97-16.51,9.41-25.13,6.82
			c-12.65-3.81-25.29-11.07-25.29-11.07s2.61,15.77,0,26.04c-1.73,6.82,12.7,11.98,12.7,11.98c15.95,5.98,31.37-2.3,31.37-2.3
			l11.83-31.63L1055.5,208.56z"/>
		<g>
			<g>
				<path class="st46" d="M1017.83,169.14c-1.25,2.39-1.88,5.25-2.61,7.83c-0.8,2.85-1.92,6.05-1.9,9.05
					c0.01,1.88,1.58,3.47,2.96,4.57c1.89,1.52,4.17,2.58,6.56,3.03c2.4,0.46,4.9,0.41,7.26-0.25c1.94-0.54,3.66-1.57,5.42-2.52
					c1.83-1,3.66-2,5.5-2.98c0.75-0.4,1.5-0.76,2.18-1.28c1.09-0.82,1.86-1.97,2.94-2.8c1.37-1.06,0.01-3.42-1.37-2.35
					c-1.56,1.2-2.67,2.79-4.43,3.71c-1.26,0.66-2.5,1.34-3.75,2.02c-3.33,1.81-6.54,3.99-10.47,4.04c-2.2,0.03-4.42-0.48-6.36-1.54
					c-0.99-0.54-1.92-1.21-2.71-2.04c-0.38-0.4-0.68-0.83-0.94-1.31c-0.18-0.32-0.04,0.2-0.06-0.18c-0.05-1.01,0.23-2.03,0.44-3.04
					c0.33-1.55,0.72-3.08,1.14-4.6c0.46-1.68,0.95-3.36,1.49-5.02c0.22-0.67,0.44-1.34,0.68-2c0.2-0.56,0.21-0.61,0.39-0.95
					C1020.99,168.96,1018.64,167.59,1017.83,169.14L1017.83,169.14z"/>
			</g>
		</g>
		<path class="st44" d="M977.55,376.61l-1.02-0.53c-0.58-0.3-0.81-1.03-0.5-1.61l0,0c0.3-0.58,1.03-0.81,1.61-0.5l1.02,0.53
			c0.58,0.3,0.81,1.03,0.5,1.61l0,0C978.85,376.69,978.13,376.91,977.55,376.61z"/>
		<path class="st45" d="M975.88,374.98v-5.4c0-0.65,0.54-1.19,1.19-1.19l0,0c0.65,0,1.19,0.54,1.19,1.19l0,5.4
			c0,0.65-0.54,1.19-1.19,1.19l0,0C976.42,376.17,975.88,375.64,975.88,374.98z"/>
		<path class="st6" d="M980.72,354.69c-1.32-2.55-4.79-5.31-6.65-4.78l-4.93,7.9l-0.73,0.23c-2.69,3.46-16.45,18.14-20.18,23.42
			c-1.9,2.68,2.5,4.32,2.5,4.32c9.35,1.74,18.64-2.48,18.64-2.48c3.99-2.73,1.39-6.47,5.47-12.41c0.69-1,2.31-2.03,2.58-1.09
			l-0.35,6.36l2.22-0.42c0,0,1.33-9.1,2.53-15.22C982.32,357.99,981.82,355.87,980.72,354.69z"/>
		<path class="st12" d="M972.8,349.23l-4.14,3.43c0,0-10.38,16.26-12.35,19.51c-2.28,3.77,11.37,10.27,20.75-11.92
			C983.91,348.52,972.8,349.23,972.8,349.23z"/>
		<g>
			<path class="st6" d="M999.22,145.81c-1.64,4.62-2.07,10.18,0.93,14.05c0.55,0.71,1.2,1.34,1.82,1.99
				c1.62,1.71,3.03,3.62,4.19,5.67c0.2,0.35,0.4,0.72,0.73,0.96c0.75,0.55,1.87,0.19,2.52-0.47c0.66-0.66,1.01-1.56,1.52-2.34
				c1.52-2.33,33.31,16.19,34.88,13.9c2.12-3.11-5.7-38.27-6.52-41.94c-1.05-4.69-24.27,1.53-28.08-1.4
				c-0.75-0.57-1.57-1.05-2.24-1.71l0,0c-0.97-0.96-1.85-3.01-3.45-2.32c-1.28,0.56-1.72,2.88-2.16,4
				C1002.08,139.44,1000.38,142.52,999.22,145.81z"/>
		</g>
		<path class="st12" d="M1022.64,177.55l-6.4-24.72l15.49,4.9l5.21,20.18C1038.04,181.21,1027.27,190.17,1022.64,177.55z"/>
		<path class="st23" d="M1021.09,171.05c0,0,6.95-3.56,6.98-3.62c0,0-2.38,5.06-5.83,7.03L1021.09,171.05z"/>
		<path class="st12" d="M1026.08,168.99l-11.84,0.4c-4.32,0.14-7.98-3.27-8.12-7.6l-0.97-28.9c-0.14-4.32,3.27-7.98,7.6-8.12
			l11.84-0.4c4.32-0.14,7.98,3.27,8.12,7.6l0.97,28.89C1033.83,165.19,1030.41,168.85,1026.08,168.99z"/>
		<path class="st6" d="M1025.29,142.01c-4.85-5.99-13.83,1.15-18.67-0.72c-5.26-2.03-3.47-7.43,0.1-11.79
			c1.91-2.34,4.35-4.31,9.2-6.15c13.6-5.14,27.25,0.61,27.76,15.99c0,0,1.78,20.92-10.5,24.03l-1.33-2.93c0,0,7.06-7.79-0.46-12.33
			c-1.76-1.06-1.84-1.09-1.68-3.65C1029.87,141.88,1026.92,144.03,1025.29,142.01z"/>
		<path class="st12" d="M1036.1,160.73c-2.16,1.8-4.63,1.18-5.52-1.38c-0.89-2.56,0.14-6.09,2.3-7.89c2.16-1.8,4.63-1.18,5.52,1.38
			C1039.29,155.4,1038.26,158.93,1036.1,160.73z"/>
		<path class="st6" d="M1003.32,153.47c0,0,0.2-7.07,17.12-16.31c16.91-9.24,0.77-0.43,0.77-0.43l-16.77-3.79
			C1004.44,132.95,997.81,140.47,1003.32,153.47z"/>
		<path class="st12" d="M1061.04,202.46c1.46,9.75,1.38,18.77,1.19,28.55c-0.17,8.89,2.38,19.23-0.18,27.95
			c-1.66,5.64-6.24,8.13-11.77,8.79c-9.42,1.13-18.96,0.67-28.41,1.87c-7.31,0.93-7.24-10.56,0-11.48
			c8.13-1.03,16.21-1.21,24.38-1.57c4.18-0.18,4.68,0.66,5.08-2.79c0.94-8.24-0.84-16.85-0.51-25.16
			c0.31-7.89,0.32-15.21-0.85-23.09C1048.89,198.29,1059.95,195.17,1061.04,202.46L1061.04,202.46z"/>
		<path class="st2" d="M1059.27,193.27c7.01,18.06,5.26,35.25,4.79,54.15c-0.24,9.84-15.56,9.87-15.31,0
			c0.43-17.56,2.27-33.29-4.24-50.08C1040.94,188.14,1055.74,184.16,1059.27,193.27L1059.27,193.27z"/>
		<path class="st12" d="M989.67,262.37L989.67,262.37c-3.59,0.58-7.01-1.89-7.59-5.48l-2.27-14.1c-0.58-3.59,1.89-7.01,5.48-7.59
			l0,0c3.59-0.58,7.01,1.89,7.59,5.48l2.27,14.1C995.74,258.38,993.27,261.79,989.67,262.37z"/>
		<path class="st24" d="M1026,271.62l-0.01-1.28l-1.65,0.64l-0.35-0.82l-41.39-23.9c-0.5-0.29-1.38-0.25-1.95,0.08l-17.82,10.29
			v-0.29l-3.3,1.32v1.37h0.02c0.04,0.13,0.14,0.26,0.31,0.35l43.07,24.87c0.5,0.29,1.38,0.25,1.95-0.08l20.64-11.92
			C1025.84,272.07,1026,271.84,1026,271.62L1026,271.62z"/>
		<path class="st25" d="M1002.91,282.89l-43.07-24.87c-0.5-0.29-0.44-0.8,0.14-1.13l20.64-11.92c0.58-0.33,1.45-0.37,1.95-0.08
			l43.07,24.87c0.5,0.29,0.44,0.8-0.14,1.13l-20.64,11.92C1004.29,283.14,1003.41,283.18,1002.91,282.89z"/>
		<path class="st24" d="M1005.85,266.88l-10.42-6.02c-0.12-0.07-0.11-0.19,0.03-0.27l5-2.88c0.14-0.08,0.35-0.09,0.47-0.02
			l10.42,6.02c0.12,0.07,0.11,0.19-0.03,0.27l-5,2.88C1006.19,266.94,1005.97,266.94,1005.85,266.88z"/>
		<path class="st2" d="M1001.81,254.91c-0.18-1.13-1.06-2.48-1.98-3l-42.76-24.3c-0.38-0.22-0.71-0.26-0.95-0.15l0,0l-0.01,0
			c-0.08,0.04-0.16,0.1-0.22,0.17l-1.42,1.49l1.29-0.11l4.06,26.28c0.18,1.13,1.06,2.48,1.98,3l40.44,22.98l1.31,1.47l0.16,0.36
			c0.82,0.18,2.78-1.21,2.78-1.21L1001.81,254.91z"/>
		<path class="st6" d="M1003.06,284.17l-42.76-24.3c-0.92-0.52-1.81-1.87-1.98-3l-4.11-26.57c-0.18-1.13,0.43-1.63,1.35-1.11
			l42.76,24.3c0.92,0.52,1.81,1.87,1.98,3l4.11,26.57C1004.58,284.2,1003.98,284.69,1003.06,284.17z"/>
		<path class="st12" d="M1005.81,269.06L1005.81,269.06c-1.13-3.46,0.77-7.22,4.23-8.35l11.97-3.93c3.46-1.13,7.22,0.77,8.35,4.23
			l0,0c1.13,3.46-0.77,7.22-4.23,8.35l-11.97,3.93C1010.7,274.43,1006.94,272.52,1005.81,269.06z"/>
		<path class="st2" d="M980.33,258.44c0.22,1.41-1.06,1.73-2.86,0.71c-1.8-1.02-3.43-2.99-3.65-4.41c-0.22-1.41,1.06-1.73,2.86-0.71
			C978.48,255.06,980.11,257.03,980.33,258.44z"/>
		<path class="st6" d="M1024.57,141.25c0,0,13.59,17.8,12.38,29.44c-1,9.63-11.46,15.75-13.33,30.3c-0.39,3.03,3.53,4.63,5.4,2.22
			c2.36-3.03,5.45-6.34,9.16-8.88c9.08-6.21,10.73-12.82,9.87-17.66c-0.86-4.84-4.64-40.17-4.64-40.17l-20.85-2.08L1024.57,141.25z"
			/>
	</g>
</g>
</svg>
