<?xml version="1.0" encoding="utf-8"?>
<!-- Generator: Adobe Illustrator 27.9.0, SVG Export Plug-In . SVG Version: 6.00 Build 0)  -->
<svg version="1.1" id="Layer_1" xmlns="http://www.w3.org/2000/svg" xmlns:xlink="http://www.w3.org/1999/xlink" x="0px" y="0px"
	 viewBox="0 0 773 539.5" style="enable-background:new 0 0 773 539.5;" xml:space="preserve">
<style type="text/css">
	.st0{fill:#FBD068;}
	.st1{fill:#FEF4DC;}
	.st2{fill:#68529D;}
	.st3{fill:#FC7955;}
	.st4{fill:#F9986E;}
	.st5{fill:#FFFFFF;}
</style>
<g>
	<path class="st0" d="M386.6,22.5c-0.1,0-0.2,0-0.2,0c-81,0.1-146.5,65.8-146.5,146.7c0,30.5,9.3,58.8,25.2,82.3l0,0
		c4.1,6,8.6,11.7,13.6,17c19.4,26,52.8,28.7,52.1,73.8h55.5h0.2h55.7c-0.7-45.1,32.7-47.7,52.1-73.8c4.9-5.3,9.5-11,13.5-17l0,0
		c15.9-23.5,25.3-51.8,25.3-82.3C533.3,88.2,467.6,22.5,386.6,22.5z"/>
	<path class="st1" d="M500.8,135.8c-2.7,0-5.2-1.7-6.1-4.4c-12.8-37-44.5-65.4-82.6-74.2c-3.5-0.8-5.7-4.3-4.9-7.7
		c0.8-3.5,4.3-5.7,7.7-4.9c42.4,9.7,77.6,41.3,91.9,82.5c1.2,3.4-0.6,7.1-4,8.2C502.2,135.6,501.5,135.8,500.8,135.8z"/>
	<path class="st1" d="M389.8,54.4c-0.1,0-0.1,0-0.2,0c-0.8,0-1.5,0-2.3,0h-0.9l0,0c-3.6,0-6.5-2.9-6.5-6.5c0-3.6,2.9-6.5,6.5-6.5
		h0.9c0.9,0,1.8,0,2.7,0c3.6,0.1,6.4,3.1,6.3,6.6C396.2,51.6,393.3,54.4,389.8,54.4z"/>
	<path class="st2" d="M415.9,342.4h-6.2V229.6h-46.5v112.7h-6.3V229.6h-21.2c-15.1,0-27.5-12.3-27.5-27.5
		c0-15.1,12.3-27.4,27.5-27.4c15.1,0,27.5,12.3,27.5,27.4v21.2h46.5v-21.2c0-15.1,12.3-27.4,27.5-27.4c15.2,0,27.5,12.3,27.5,27.4
		c0,15.2-12.3,27.5-27.5,27.5h-21.3V342.4L415.9,342.4z M415.9,223.4h21.2c11.7,0,21.2-9.5,21.2-21.2s-9.5-21.2-21.2-21.2
		c-11.7,0-21.2,9.5-21.2,21.2V223.4z M335.7,181c-11.7,0-21.2,9.5-21.2,21.2s9.5,21.2,21.2,21.2h21.2v-21.2
		C356.9,190.5,347.4,181,335.7,181z"/>
	<polygon class="st3" points="386.4,342.4 386.4,387.1 442,424.7 442,342.4 	"/>
	<polygon class="st4" points="386.4,342.4 330.8,342.4 330.8,424.7 386.4,387.1 	"/>
	<polygon class="st3" points="386.4,517 414.2,470.9 358.7,470.9 	"/>
	<polygon class="st5" points="330.8,424.7 358.7,470.9 414.2,470.9 442,424.7 386.4,387.1 	"/>
	<path class="st3" d="M443.9,354.7c0,1.1-0.9,2-2,2h-111c-1.1,0-2-0.9-2-2v-12.9c0-1.1,0.9-2,2-2h111c1.1,0,2,0.9,2,2V354.7z"/>
</g>
</svg>
